<?xml version="1.0" encoding="utf-8"?>
<!-- Generator: Adobe Illustrator 16.0.0, SVG Export Plug-In . SVG Version: 6.00 Build 0)  -->
<!DOCTYPE svg PUBLIC "-//W3C//DTD SVG 1.1//EN" "http://www.w3.org/Graphics/SVG/1.1/DTD/svg11.dtd">
<svg version="1.1" id="Layer_1" xmlns="http://www.w3.org/2000/svg" xmlns:xlink="http://www.w3.org/1999/xlink" x="0px" y="0px"
	 width="996.451px" height="184.998px" viewBox="0 0 996.451 184.998" enable-background="new 0 0 996.451 184.998"
	 xml:space="preserve">
<g>
	<defs>
		<rect id="SVGID_1_" width="996.451" height="184.998"/>
	</defs>
	<clipPath id="SVGID_2_">
		<use xlink:href="#SVGID_1_"  overflow="visible"/>
	</clipPath>
	<path clip-path="url(#SVGID_2_)" fill="#0072BC" d="M481.897,73.874V103.2h23.616v13.768c-1.841,1.053-3.942,1.843-6.295,2.365
		c-2.362,0.525-5.519,0.786-9.453,0.786c-4.849,0-9.276-0.786-13.278-2.359c-4.002-1.575-7.452-3.805-10.333-6.694
		c-2.884-2.882-5.145-6.36-6.783-10.43c-1.643-4.066-2.464-8.523-2.464-13.378v-0.393c0-4.724,0.757-9.054,2.259-12.991
		c1.511-3.935,3.644-7.343,6.399-10.23c2.755-2.878,6.034-5.146,9.842-6.786c3.802-1.643,7.933-2.459,12.396-2.459
		c5.767,0,11.145,1.048,16.135,3.145c4.985,2.098,9.771,5.05,14.361,8.857l25.778-31.088c-7.476-6.561-15.975-11.68-25.482-15.347
		c-9.508-3.676-20.24-5.512-32.174-5.512c-10.888,0-20.953,1.804-30.201,5.406c-9.247,3.615-17.282,8.632-24.106,15.059
		c-6.821,6.425-12.131,14.03-15.936,22.822c-3.354,7.737-5.223,16.042-5.619,24.902l-27.712-66.224h-45.652l-39.333,94.001V17.402
		h-48.014l-29.517,48.407l-29.513-48.407h-48.008v30.807c-2.286-4.083-4.959-7.874-8.036-11.38
		c-6.023-6.847-13.651-12.295-22.904-16.358c-9.256-4.052-20.164-6.085-32.732-6.085c-10.778,0-20.663,1.863-29.643,5.583
		C40.516,23.689,32.75,28.8,26.2,35.313c-6.566,6.507-11.636,14.12-15.23,22.818C7.378,66.839,5.583,76.18,5.583,86.155v0.504
		c0,10.652,1.918,20.378,5.788,29.165c3.864,8.789,9.25,16.272,16.171,22.442c6.909,6.17,15.13,10.993,24.653,14.452
		c9.517,3.468,20.023,5.201,31.52,5.201c14.551,0,26.99-2.537,37.315-7.604c5.051-2.485,9.646-5.422,13.897-8.717l-23.13-27.891
		c-2.864,2.047-5.712,3.69-8.546,4.905c-5.114,2.193-10.735,3.291-16.843,3.291c-8.077,0-14.865-1.854-20.34-5.571
		c-4.585-3.115-7.93-7.613-10.059-13.451h66.913h19.888v23.846v7.953v3.565v16.895h44.863V86.865l31.775,48.994h0.784l31.781-48.994
		v68.277h27.134h18.715h30.482l7.076-18.497h48.211l7.281,18.497h49.98l-6.499-15.537c6.707,5.719,14.431,10.187,23.203,13.375
		c9.377,3.412,19.448,5.113,30.207,5.113c12.591,0,24.006-1.897,34.237-5.688c10.229-3.801,19.09-8.772,26.563-14.921v-63.61
		H481.897z M54.305,73.683c1.508-7.105,4.292-12.808,8.396-17.068c4.31-4.489,9.875-6.724,16.708-6.724
		c7,0,12.748,2.235,17.245,6.724c4.268,4.26,6.897,9.963,7.918,17.068H54.305z M347.033,103.979l12.597-33.448l12.592,33.448
		H347.033z"/>
</g>
<g>
	<defs>
		<path id="SVGID_3_" d="M359.628,70.532l12.592,33.448h-25.189L359.628,70.532z M62.703,56.615
			c4.307-4.488,9.872-6.727,16.705-6.727c6.999,0,12.747,2.239,17.244,6.727c4.269,4.26,6.9,9.963,7.921,17.068H54.307
			C55.812,66.578,58.595,60.875,62.703,56.615 M49.495,19.966c-8.981,3.721-16.749,8.837-23.298,15.344
			c-6.568,6.507-11.638,14.12-15.229,22.822c-3.59,8.708-5.383,18.048-5.383,28.02v0.507c0,10.654,1.922,20.382,5.786,29.162
			c3.866,8.792,9.25,16.278,16.17,22.445c6.913,6.167,15.13,10.993,24.655,14.455c9.518,3.466,20.024,5.199,31.521,5.199
			c14.549,0,26.987-2.538,37.315-7.606c5.052-2.482,9.646-5.423,13.897-8.715l-23.13-27.894c-2.863,2.048-5.711,3.694-8.548,4.908
			c-5.114,2.19-10.738,3.291-16.844,3.291c-8.076,0-14.868-1.854-20.339-5.573c-4.585-3.11-7.927-7.611-10.06-13.445h66.913h19.885
			v23.843v7.95v3.567v16.893h44.867V86.862l31.775,48.995h0.786l31.781-48.995v68.278h27.132h18.717h30.479l7.079-18.494h48.207
			l7.285,18.494h49.98l-6.498-15.536c6.703,5.718,14.428,10.188,23.197,13.375c9.379,3.413,19.454,5.114,30.209,5.114
			c12.592,0,24.004-1.894,34.239-5.688c10.23-3.799,19.088-8.77,26.566-14.923V73.878H481.9v29.319h23.613v13.771
			c-1.842,1.058-3.939,1.84-6.293,2.365c-2.365,0.522-5.519,0.783-9.455,0.783c-4.85,0-9.274-0.783-13.276-2.361
			c-4.004-1.573-7.451-3.797-10.332-6.691c-2.89-2.879-5.146-6.358-6.789-10.431c-1.64-4.06-2.461-8.522-2.461-13.371v-0.4
			c0-4.718,0.756-9.048,2.261-12.984c1.511-3.938,3.644-7.35,6.398-10.236c2.755-2.878,6.033-5.143,9.841-6.787
			c3.802-1.639,7.933-2.458,12.395-2.458c5.771,0,11.146,1.053,16.133,3.145c4.984,2.1,9.772,5.052,14.366,8.857l25.773-31.089
			c-7.473-6.557-15.968-11.677-25.479-15.344c-9.505-3.678-20.239-5.515-32.175-5.515c-10.884,0-20.953,1.811-30.2,5.407
			c-9.247,3.614-17.285,8.635-24.11,15.062c-6.818,6.424-12.128,14.032-15.93,22.822c-3.351,7.736-5.225,16.039-5.621,24.899
			l-27.715-66.222h-45.653l-39.327,94.001V17.403h-48.017l-29.514,48.406L190.82,17.403h-48.014V48.21
			c-2.279-4.087-4.952-7.877-8.033-11.381c-6.02-6.847-13.651-12.295-22.9-16.355c-9.259-4.055-20.167-6.087-32.732-6.087
			C68.359,14.387,58.478,16.253,49.495,19.966"/>
	</defs>
	<clipPath id="SVGID_4_">
		<use xlink:href="#SVGID_3_"  overflow="visible"/>
	</clipPath>
	<path clip-path="url(#SVGID_4_)" fill="#ED1C24" d="M165,68.413c0,37.781-30.86,68.416-68.923,68.416
		c-38.065,0-68.92-30.635-68.92-68.416C27.157,30.625,58.012,0,96.077,0C134.14,0,165,30.625,165,68.413"/>
</g>
<g>
	<defs>
		<rect id="SVGID_5_" width="996.451" height="184.998"/>
	</defs>
	<clipPath id="SVGID_6_">
		<use xlink:href="#SVGID_5_"  overflow="visible"/>
	</clipPath>
	<path clip-path="url(#SVGID_6_)" fill="#FFFFFF" d="M79.138,14.386c12.568,0,23.479,2.033,32.735,6.084
		c9.253,4.063,16.88,9.514,22.898,16.359c3.08,3.506,5.753,7.299,8.038,11.38V17.401h48.011l29.511,48.407l29.52-48.407h48.011
		v93.021l39.332-94.003h45.65l27.718,66.22c0.39-8.856,2.265-17.162,5.618-24.898c3.8-8.79,9.115-16.394,15.931-22.819
		c6.824-6.431,14.859-11.451,24.112-15.065c9.244-3.597,19.31-5.404,30.197-5.404c11.935,0,22.669,1.836,32.175,5.51
		c9.511,3.67,18.008,8.789,25.481,15.346l-25.774,31.092c-4.599-3.805-9.384-6.759-14.367-8.854
		c-4.987-2.1-10.362-3.151-16.133-3.151c-4.462,0-8.593,0.819-12.392,2.462c-3.814,1.639-7.088,3.905-9.843,6.785
		c-2.754,2.887-4.887,6.296-6.399,10.233c-1.501,3.934-2.258,8.267-2.258,12.985v0.399c0,4.853,0.818,9.312,2.461,13.377
		c1.637,4.066,3.899,7.547,6.786,10.428c2.881,2.892,6.331,5.119,10.33,6.691c4.001,1.575,8.429,2.361,13.278,2.361
		c3.937,0,7.091-0.264,9.456-0.786c2.353-0.521,4.453-1.308,6.297-2.361v-13.771h-23.618V73.876h66.708v63.604
		c-7.479,6.155-16.335,11.128-26.568,14.924c-10.229,3.794-21.645,5.688-34.237,5.688c-10.758,0-20.826-1.701-30.206-5.113
		c-8.772-3.187-16.496-7.66-23.2-13.375l6.498,15.537h-49.979l-7.282-18.494h-48.211l-7.082,18.494h-30.478h-18.715h-27.131v-68.28
		l-31.782,48.997h-0.789l-31.776-48.997v68.28h-44.86v-16.896v-3.567v-7.947v-23.846h-19.888H56.008
		c2.13,5.835,5.472,10.335,10.063,13.445c5.469,3.72,12.26,5.577,20.337,5.577c6.105,0,11.729-1.097,16.845-3.295
		c2.829-1.211,5.683-2.86,8.546-4.908l23.124,27.897c-4.248,3.292-8.839,6.228-13.891,8.711
		c-10.327,5.068-22.766,7.606-37.315,7.606c-11.5,0-22.006-1.73-31.52-5.199c-9.529-3.462-17.743-8.284-24.655-14.454
		c-6.921-6.17-12.305-13.653-16.171-22.443c-3.867-8.784-5.786-18.512-5.786-29.162v-0.51c0-9.972,1.793-19.31,5.384-28.017
		c3.594-8.705,8.663-16.315,15.226-22.825c6.551-6.507,14.32-11.618,23.3-15.343C58.479,16.251,68.362,14.386,79.138,14.386
		 M54.307,73.685h50.264c-1.018-7.105-3.65-12.811-7.919-17.071c-4.494-4.486-10.244-6.724-17.244-6.724
		c-6.83,0-12.398,2.238-16.705,6.724C58.596,60.874,55.809,66.58,54.307,73.685 M347.032,103.983h25.189l-12.592-33.451
		L347.032,103.983 M79.138,8.803c-11.456,0-22.147,2.018-31.779,6.002c-9.622,3.99-18.063,9.555-25.101,16.543
		C15.211,38.337,9.675,46.634,5.806,56.001C1.954,65.351,0,75.493,0,86.151v0.51c0,11.407,2.106,21.977,6.257,31.415
		c4.178,9.494,10.09,17.691,17.568,24.359c7.416,6.625,16.323,11.85,26.462,15.534c10.084,3.671,21.332,5.536,33.43,5.536
		c15.338,0,28.719-2.752,39.773-8.174c4.747-2.335,9.359-5.175,13.734-8.458v8.268v5.586h5.585h44.86h5.586v-5.586V105.74
		l21.508,33.157l1.649,2.547h3.033h0.789h3.034l1.649-2.547l21.513-33.16v49.404v5.586h5.586h27.131h18.715h30.478h3.844
		l1.373-3.591l5.709-14.903h40.562l5.891,14.953l1.39,3.541h3.806h49.979h8.391l-2.679-6.407c2.914,1.464,5.944,2.77,9.083,3.911
		c9.937,3.613,20.742,5.447,32.113,5.447c13.196,0,25.369-2.032,36.179-6.034c10.775-4.002,20.255-9.332,28.173-15.849l2.039-1.675
		v-2.641V73.876V68.29h-5.586H523.99l24.386-29.414l3.468-4.183l-4.08-3.582c-7.946-6.968-17.084-12.474-27.159-16.359
		c-10.104-3.905-21.606-5.885-34.184-5.885c-11.518,0-22.358,1.945-32.224,5.786c-9.887,3.863-18.606,9.314-25.914,16.203
		c-7.352,6.926-13.146,15.223-17.23,24.67c-1.032,2.385-1.939,4.835-2.714,7.331l-20.339-48.595l-1.435-3.429h-3.72h-45.65h-3.719
		l-1.435,3.429l-28.593,68.336V17.401v-5.586h-5.585h-48.011h-3.14l-1.631,2.679L220.334,55.08L195.59,14.494l-1.636-2.679h-3.134
		h-48.011h-5.585v5.586v13.836c-6.252-6.554-14.012-11.888-23.107-15.88C104.181,11.006,92.41,8.803,79.138,8.803 M61.843,68.1
		c1.268-3.007,2.899-5.551,4.882-7.61c3.242-3.377,7.387-5.014,12.683-5.014c5.515,0,9.866,1.666,13.299,5.093
		c2.071,2.065,3.649,4.556,4.758,7.531H61.843z M489.765,114.533c-4.128,0-7.907-0.664-11.233-1.972
		c-3.275-1.288-6.106-3.119-8.417-5.439c-2.344-2.339-4.213-5.219-5.566-8.573c-1.367-3.382-2.056-7.179-2.056-11.289v-0.399
		c0-4.001,0.636-7.704,1.892-10.993c1.232-3.212,2.99-6.029,5.225-8.367c2.253-2.356,4.873-4.163,8.009-5.515
		c3.078-1.329,6.505-2.004,10.183-2.004c4.993,0,9.693,0.912,13.968,2.714c3.35,1.405,6.653,3.283,9.851,5.594h-29.722h-5.585v5.586
		v29.323v5.583h5.585h18.032v4.571c-0.611,0.201-1.253,0.375-1.922,0.527C496.055,114.312,493.279,114.533,489.765,114.533
		 M355.105,98.397l4.524-12.011l4.521,12.011H355.105z M114.712,108.471h8.209h14.303v18.261v7.947v0.944l-21.126-25.482
		L114.712,108.471z M65.543,108.471h43.971l-0.965,0.692c-2.552,1.829-5.076,3.281-7.499,4.316
		c-4.392,1.887-9.318,2.843-14.642,2.843c-6.912,0-12.698-1.552-17.198-4.609C67.846,110.786,66.628,109.712,65.543,108.471"/>
	<path clip-path="url(#SVGID_6_)" fill="#FFFFFF" d="M601.787,87.404c1.688,0,3.357,0.093,5.007,0.275
		c1.65,0.184,3.172,0.459,4.565,0.825c3.007,0.734,5.629,1.926,7.868,3.576c2.236,1.65,4.07,3.595,5.501,5.831
		c1.43,2.239,2.493,4.677,3.19,7.317c0.696,2.641,1.045,5.319,1.045,8.031c0,3.229-0.495,6.383-1.485,9.462
		c-0.99,3.082-2.659,5.832-5.005,8.253c-2.35,2.421-5.467,4.365-9.354,5.831c-3.889,1.469-8.766,2.201-14.634,2.201
		c-2.714,0-5.098-0.128-7.151-0.386c-2.055-0.255-3.339-0.457-3.851-0.604v24.977H571.86V95.986c0-5.722,2.971-8.582,8.912-8.582
		H601.787z M612.79,112.93c0-2.271-0.588-4.565-1.761-6.876c-1.174-2.311-3.044-3.905-5.611-4.786
		c-0.954-0.366-2.108-0.642-3.466-0.825c-1.356-0.183-2.733-0.275-4.126-0.275h-10.342v25.196c0.586,0.147,1.705,0.349,3.355,0.605
		c1.65,0.258,3.538,0.385,5.666,0.385c3.302,0,5.997-0.402,8.088-1.21c2.091-0.807,3.74-1.852,4.95-3.136
		c1.211-1.282,2.054-2.731,2.531-4.347C612.551,116.049,612.79,114.471,612.79,112.93"/>
	<path clip-path="url(#SVGID_6_)" fill="#FFFFFF" d="M659.661,90.265c0,2.349-0.844,4.346-2.53,5.997
		c-1.688,1.649-3.74,2.475-6.161,2.475c-2.35,0-4.365-0.825-6.053-2.475c-1.687-1.651-2.529-3.648-2.529-5.997
		c0-2.346,0.843-4.327,2.529-5.941c1.688-1.613,3.703-2.421,6.053-2.421c2.421,0,4.473,0.808,6.161,2.421
		C658.817,85.938,659.661,87.918,659.661,90.265 M643.377,113.48c0-2.493,0.732-4.217,2.2-5.171
		c1.467-0.953,3.411-1.431,5.832-1.431c1.688,0,3.246,0.185,4.676,0.551c1.432,0.367,2.328,0.624,2.696,0.77v54.793h-15.404V113.48z
		"/>
	<path clip-path="url(#SVGID_6_)" fill="#FFFFFF" d="M694.538,119.422v24.316c0,3.228,0.751,5.409,2.256,6.547
		c1.503,1.138,3.467,1.705,5.887,1.705c1.025,0,2.036-0.127,3.025-0.386c0.99-0.256,1.87-0.55,2.642-0.88
		c0.769-0.33,1.411-0.66,1.924-0.991c0.513-0.329,0.807-0.53,0.881-0.604l5.721,9.242c-0.147,0.147-0.624,0.55-1.43,1.21
		c-0.808,0.66-1.964,1.357-3.466,2.09c-1.504,0.734-3.338,1.393-5.501,1.981c-2.165,0.586-4.604,0.88-7.317,0.88
		c-7.042,0-12.141-1.797-15.294-5.392c-3.154-3.593-4.73-8.252-4.73-13.973v-25.747h-3.632c-2.493,0-4.235-0.55-5.226-1.65
		c-0.99-1.1-1.485-2.641-1.485-4.621c0-1.541,0.221-2.878,0.66-4.017c0.44-1.136,0.732-1.887,0.88-2.255h8.803v-9.683
		c0-2.492,0.731-4.216,2.2-5.17c1.467-0.953,3.41-1.431,5.831-1.431c1.687,0,3.246,0.184,4.678,0.55
		c1.429,0.368,2.326,0.624,2.694,0.77v14.964h11.772c2.494,0,4.236,0.55,5.227,1.65s1.485,2.641,1.485,4.621
		c0,1.54-0.219,2.88-0.66,4.017c-0.44,1.138-0.734,1.889-0.88,2.255H694.538z"/>
	<path clip-path="url(#SVGID_6_)" fill="#FFFFFF" d="M797.303,106.438c-0.66-0.731-1.541-1.596-2.641-2.586
		c-1.101-0.989-2.514-1.905-4.236-2.75c-1.725-0.843-3.777-1.558-6.161-2.146c-2.385-0.586-5.116-0.88-8.196-0.88
		c-2.642,0-4.825,0.258-6.548,0.77c-1.724,0.515-3.079,1.21-4.07,2.091c-0.99,0.881-1.688,1.87-2.09,2.971
		c-0.405,1.1-0.606,2.201-0.606,3.301c0,2.054,0.787,3.87,2.366,5.446c1.577,1.578,4.382,2.806,8.417,3.686l9.352,2.091
		c3.595,0.809,6.858,1.798,9.793,2.971c2.934,1.175,5.446,2.624,7.537,4.347c2.09,1.724,3.702,3.795,4.841,6.216
		c1.138,2.421,1.705,5.282,1.705,8.582c0,3.669-0.588,6.987-1.76,9.957c-1.175,2.971-2.99,5.521-5.446,7.647
		c-2.459,2.129-5.611,3.778-9.463,4.951c-3.851,1.173-8.417,1.761-13.697,1.761c-4.99,0-9.354-0.423-13.094-1.266
		s-6.896-1.815-9.463-2.916c-2.568-1.1-4.585-2.145-6.052-3.136c-1.467-0.99-2.383-1.631-2.75-1.925l7.481-11.443
		c0.293,0.294,1.046,0.88,2.257,1.761c1.21,0.881,2.821,1.799,4.84,2.75c2.017,0.954,4.456,1.815,7.317,2.587
		c2.86,0.77,6.052,1.154,9.572,1.154c2.934,0,5.336-0.274,7.206-0.825c1.871-0.55,3.318-1.266,4.347-2.145
		c1.026-0.881,1.741-1.907,2.146-3.082c0.403-1.172,0.604-2.382,0.604-3.63c0-2.787-1.118-5.006-3.355-6.657
		c-2.238-1.65-5.374-2.878-9.407-3.686l-10.343-2.092c-2.494-0.512-4.969-1.281-7.426-2.31c-2.458-1.026-4.677-2.401-6.657-4.126
		c-1.98-1.723-3.576-3.812-4.786-6.272c-1.211-2.455-1.815-5.336-1.815-8.637s0.587-6.361,1.761-9.187
		c1.172-2.822,2.952-5.298,5.336-7.426c2.383-2.127,5.391-3.796,9.022-5.007c3.631-1.21,7.866-1.815,12.708-1.815
		c3.667,0,6.821,0.202,9.462,0.605c2.641,0.404,4.896,0.88,6.767,1.43c1.871,0.55,3.373,1.12,4.511,1.705
		c1.137,0.588,1.998,1.065,2.586,1.431c1.394,0.88,2.476,1.944,3.246,3.19c0.771,1.248,1.155,2.458,1.155,3.631
		c0,1.249-0.257,2.365-0.771,3.355c-0.514,0.991-1.1,1.871-1.76,2.642c-0.66,0.77-1.34,1.395-2.036,1.87
		C798.31,105.872,797.743,106.219,797.303,106.438"/>
	<path clip-path="url(#SVGID_6_)" fill="#FFFFFF" d="M836.363,119.422v24.316c0,3.228,0.751,5.409,2.256,6.547
		c1.502,1.138,3.467,1.705,5.887,1.705c1.025,0,2.036-0.127,3.025-0.386c0.99-0.256,1.87-0.55,2.642-0.88
		c0.769-0.33,1.411-0.66,1.924-0.991c0.513-0.329,0.807-0.53,0.881-0.604l5.721,9.242c-0.147,0.147-0.624,0.55-1.43,1.21
		c-0.808,0.66-1.964,1.357-3.466,2.09c-1.504,0.734-3.338,1.393-5.501,1.981c-2.165,0.586-4.604,0.88-7.317,0.88
		c-7.042,0-12.141-1.797-15.294-5.392c-3.154-3.593-4.73-8.252-4.73-13.973v-25.747h-3.632c-2.493,0-4.235-0.55-5.226-1.65
		c-0.99-1.1-1.485-2.641-1.485-4.621c0-1.541,0.221-2.878,0.66-4.017c0.44-1.136,0.732-1.887,0.88-2.255h8.803v-9.683
		c0-2.492,0.731-4.216,2.2-5.17c1.467-0.953,3.41-1.431,5.831-1.431c1.687,0,3.246,0.184,4.678,0.55
		c1.429,0.368,2.326,0.624,2.694,0.77v14.964h11.772c2.494,0,4.237,0.55,5.227,1.65c0.99,1.101,1.485,2.641,1.485,4.621
		c0,1.54-0.219,2.88-0.66,4.017c-0.439,1.138-0.734,1.889-0.88,2.255H836.363z"/>
	<path clip-path="url(#SVGID_6_)" fill="#FFFFFF" d="M925.044,134.936c0,4.181-0.715,8.087-2.145,11.718
		c-1.431,3.631-3.485,6.786-6.162,9.463c-2.678,2.679-5.886,4.805-9.628,6.381c-3.74,1.577-7.921,2.366-12.543,2.366
		c-4.621,0-8.801-0.789-12.542-2.366c-3.741-1.576-6.951-3.702-9.627-6.381c-2.68-2.677-4.732-5.832-6.163-9.463
		c-1.43-3.631-2.146-7.537-2.146-11.718s0.716-8.087,2.146-11.718c1.431-3.631,3.483-6.783,6.163-9.462
		c2.676-2.678,5.886-4.804,9.627-6.382c3.741-1.576,7.921-2.365,12.542-2.365c4.622,0,8.803,0.789,12.543,2.365
		c3.742,1.578,6.95,3.704,9.628,6.382c2.677,2.679,4.731,5.831,6.162,9.462C924.329,126.849,925.044,130.755,925.044,134.936
		 M909.42,134.936c0-2.493-0.312-4.822-0.935-6.986c-0.624-2.163-1.578-4.033-2.861-5.611c-1.284-1.576-2.843-2.823-4.676-3.741
		c-1.834-0.916-3.961-1.375-6.382-1.375c-2.419,0-4.548,0.459-6.38,1.375c-1.835,0.918-3.395,2.165-4.678,3.741
		c-1.283,1.578-2.237,3.448-2.859,5.611c-0.625,2.164-0.937,4.493-0.937,6.986c0,2.495,0.312,4.824,0.937,6.987
		c0.622,2.164,1.576,4.035,2.859,5.61c1.283,1.579,2.843,2.825,4.678,3.741c1.832,0.918,3.961,1.375,6.38,1.375
		c2.421,0,4.548-0.457,6.382-1.375c1.833-0.916,3.392-2.162,4.676-3.741c1.283-1.575,2.237-3.446,2.861-5.61
		C909.108,139.76,909.42,137.431,909.42,134.936"/>
	<path clip-path="url(#SVGID_6_)" fill="#FFFFFF" d="M938.908,110.62c0.365-0.221,1.172-0.642,2.42-1.266
		c1.246-0.623,2.933-1.247,5.061-1.871c2.127-0.622,4.732-1.19,7.813-1.705c3.079-0.512,6.601-0.77,10.562-0.77
		c4.913,0,9.315,0.753,13.203,2.256c3.887,1.503,7.206,3.613,9.957,6.326c2.751,2.715,4.859,5.979,6.328,9.792
		c1.465,3.814,2.2,8.032,2.2,12.654c0,4.548-0.698,8.525-2.092,11.938c-1.394,3.41-3.282,6.271-5.666,8.582
		c-2.385,2.31-5.136,4.053-8.252,5.226c-3.119,1.175-6.437,1.761-9.958,1.761c-2.567,0-4.822-0.239-6.767-0.715
		c-1.944-0.477-3.594-1.026-4.951-1.65c-1.356-0.623-2.403-1.229-3.136-1.816c-0.733-0.586-1.173-0.989-1.32-1.21v26.847h-15.402
		V110.62z M980.607,134.496c0-2.272-0.33-4.438-0.99-6.492c-0.659-2.053-1.65-3.887-2.971-5.501
		c-1.319-1.612-2.954-2.897-4.896-3.852c-1.945-0.952-4.201-1.43-6.768-1.43c-3.521,0-6.069,0.258-7.646,0.77
		c-1.579,0.515-2.585,0.881-3.026,1.101v25.087c0.292,0.588,0.733,1.284,1.32,2.09c0.587,0.808,1.376,1.56,2.367,2.255
		c0.989,0.699,2.217,1.285,3.685,1.761c1.467,0.479,3.263,0.716,5.392,0.716c4.254,0,7.572-1.467,9.957-4.401
		C979.415,143.666,980.607,139.631,980.607,134.496"/>
</g>
</svg>
