<?xml version="1.0" encoding="utf-8"?>
<!DOCTYPE svg PUBLIC "-//W3C//DTD SVG 1.1//EN" "http://www.w3.org/Graphics/SVG/1.1/DTD/svg11.dtd">
<svg version="1.1" id="Layer_1" xmlns="http://www.w3.org/2000/svg" xmlns:xlink="http://www.w3.org/1999/xlink" x="0px" y="0px"
	 viewBox="20.6 349.7 553.2 154.6" style="enable-background:new 20.6 349.7 553.2 154.6;" xml:space="preserve">
<style type="text/css">
	.st0{clip-path:url(#SVGID_2_);fill:#005eb8;}
	.st1{clip-path:url(#SVGID_4_);fill:#f0280a;}
	.st2{clip-path:url(#SVGID_6_);fill:#FFFFFF;}
</style>
<g>
	<g>
		<defs>
			<rect id="SVGID_1_" x="20.6" y="349.7" width="553.2" height="154.6"/>
		</defs>
		<clipPath id="SVGID_2_">
			<use xlink:href="#SVGID_1_"  style="overflow:visible;"/>
		</clipPath>
		<path class="st0" d="M501.6,414.7V444h23.6v13.7c-1.8,1-3.9,1.8-6.3,2.4c-2.4,0.5-5.5,0.8-9.4,0.8c-4.8,0-9.3-0.8-13.3-2.4
			s-7.4-3.8-10.3-6.7c-2.9-2.9-5.1-6.3-6.8-10.4c-1.6-4.1-2.5-8.5-2.5-13.4v-0.4c0-4.7,0.8-9,2.3-13c1.5-3.9,3.6-7.3,6.4-10.2
			c2.7-2.9,6-5.1,9.8-6.8c3.8-1.6,7.9-2.5,12.4-2.5c5.8,0,11.1,1,16.1,3.1s9.8,5,14.3,8.8l25.7-31c-7.5-6.5-15.9-11.7-25.4-15.3
			c-9.5-3.7-20.2-5.5-32.1-5.5c-10.9,0-20.9,1.8-30.1,5.4s-17.3,8.6-24.1,15c-6.8,6.4-12.1,14-15.9,22.8c-3.3,7.7-5.2,16-5.6,24.9
			l-27.7-66.1h-45.6L317.8,451v-92.8H270l-29.5,48.3L211,358.3h-47.9v30.8c-2.3-4.1-4.9-7.9-8-11.4c-6-6.8-13.6-12.3-22.9-16.3
			c-9.2-4-20.1-6.1-32.7-6.1c-10.8,0-20.6,1.9-29.6,5.6s-16.7,8.8-23.3,15.3S35,390.3,31.4,399c-3.6,8.7-5.4,18-5.4,28v0.5
			c0,10.6,1.9,20.3,5.8,29.1c3.9,8.8,9.2,16.2,16.1,22.4c6.9,6.2,15.1,11,24.6,14.4c9.5,3.5,20,5.2,31.5,5.2
			c14.5,0,26.9-2.5,37.2-7.6c5-2.5,9.6-5.4,13.9-8.7L132,454.5c-2.9,2-5.7,3.7-8.5,4.9c-5.1,2.2-10.7,3.3-16.8,3.3
			c-8.1,0-14.8-1.9-20.3-5.6c-4.6-3.1-7.9-7.6-10-13.4h66.8h19.9v23.8v7.9v3.6v16.9h44.8v-68.2l31.7,48.9h0.8l31.7-48.9v68.2h27.1
			h18.7h30.4l7.1-18.5h48.1l7.3,18.5h49.9l-6.5-15.5c6.7,5.7,14.4,10.2,23.2,13.3c9.4,3.4,19.4,5.1,30.2,5.1c12.6,0,24-1.9,34.2-5.7
			c10.2-3.8,19.1-8.8,26.5-14.9v-63.5L501.6,414.7L501.6,414.7z M74.8,414.5c1.5-7.1,4.3-12.8,8.4-17c4.3-4.5,9.9-6.7,16.7-6.7
			c7,0,12.7,2.2,17.2,6.7c4.3,4.3,6.9,9.9,7.9,17H74.8z M367,444.7l12.6-33.4l12.6,33.4H367z"/>
	</g>
</g>
<g>
	<g>
		<defs>
			<path id="SVGID_3_" d="M379.5,411.4l12.6,33.4H367L379.5,411.4z M83.2,397.5c4.3-4.5,9.9-6.7,16.7-6.7c7,0,12.7,2.2,17.2,6.7
				c4.3,4.3,6.9,9.9,7.9,17H74.8C76.3,407.4,79.1,401.7,83.2,397.5 M70,360.9c-9,3.7-16.7,8.8-23.3,15.3S35.1,390.3,31.5,399
				c-3.6,8.7-5.4,18-5.4,28v0.5c0,10.6,1.9,20.3,5.8,29.1c3.9,8.8,9.2,16.2,16.1,22.4c6.9,6.2,15.1,11,24.6,14.4
				c9.5,3.5,20,5.2,31.5,5.2c14.5,0,26.9-2.5,37.2-7.6c5-2.5,9.6-5.4,13.9-8.7l-23.1-27.8c-2.9,2-5.7,3.7-8.5,4.9
				c-5.1,2.2-10.7,3.3-16.8,3.3c-8.1,0-14.8-1.9-20.3-5.6c-4.6-3.1-7.9-7.6-10-13.4h66.8h19.9v23.8v7.9v3.6v16.9H208v-68.2
				l31.7,48.9h0.8l31.7-48.9v68.2h27.1H318h30.4l7.1-18.5h48.1l7.3,18.5h49.9l-6.5-15.5c6.7,5.7,14.4,10.2,23.2,13.3
				c9.4,3.4,19.4,5.1,30.2,5.1c12.6,0,24-1.9,34.2-5.7c10.2-3.8,19.1-8.8,26.5-14.9v-63.5h-66.6V444h23.6v13.7
				c-1.8,1.1-3.9,1.8-6.3,2.4c-2.4,0.5-5.5,0.8-9.4,0.8c-4.8,0-9.3-0.8-13.3-2.4s-7.4-3.8-10.3-6.7c-2.9-2.9-5.1-6.3-6.8-10.4
				c-1.6-4.1-2.5-8.5-2.5-13.4v-0.4c0-4.7,0.8-9,2.3-13c1.5-3.9,3.6-7.3,6.4-10.2c2.7-2.9,6-5.1,9.8-6.8c3.8-1.6,7.9-2.5,12.4-2.5
				c5.8,0,11.1,1,16.1,3.1s9.8,5,14.3,8.8l25.7-31c-7.5-6.5-15.9-11.7-25.4-15.3c-9.5-3.7-20.2-5.5-32.1-5.5
				c-10.9,0-20.9,1.8-30.1,5.4s-17.3,8.6-24.1,15c-6.8,6.4-12.1,14-15.9,22.8c-3.3,7.7-5.2,16-5.6,24.9l-27.7-66.1h-45.6L318,451
				v-92.8h-48l-29.5,48.3L211,358.3h-47.9v30.8c-2.3-4.1-4.9-7.9-8-11.4c-6-6.8-13.6-12.3-22.9-16.3c-9.2-4-20.1-6.1-32.7-6.1
				C88.8,355.3,78.9,357.2,70,360.9"/>
		</defs>
		<clipPath id="SVGID_4_">
			<use xlink:href="#SVGID_3_"  style="overflow:visible;"/>
		</clipPath>
		<path class="st1" d="M185.3,409.2c0,37.7-30.8,68.3-68.8,68.3s-68.8-30.6-68.8-68.3s30.8-68.3,68.8-68.3
			C154.5,341,185.3,371.5,185.3,409.2"/>
	</g>
</g>
<g>
	<g>
		<defs>
			<rect id="SVGID_5_" x="20.6" y="349.7" width="553.2" height="154.6"/>
		</defs>
		<clipPath id="SVGID_6_">
			<use xlink:href="#SVGID_5_"  style="overflow:visible;"/>
		</clipPath>
		<path class="st2" d="M99.6,355.3c12.5,0,23.4,2,32.7,6.1c9.2,4.1,16.8,9.5,22.9,16.3c3.1,3.5,5.7,7.3,8,11.4v-30.8H211l29.5,48.3
			l29.5-48.3h47.9v92.8l39.3-93.8h45.6l27.7,66.1c0.4-8.8,2.3-17.1,5.6-24.9c3.8-8.8,9.1-16.4,15.9-22.8s14.8-11.4,24.1-15
			c9.2-3.6,19.3-5.4,30.1-5.4c11.9,0,22.6,1.8,32.1,5.5s18,8.8,25.4,15.3l-25.7,31c-4.6-3.8-9.4-6.7-14.3-8.8
			c-5-2.1-10.3-3.1-16.1-3.1c-4.5,0-8.6,0.8-12.4,2.5c-3.8,1.6-7.1,3.9-9.8,6.8c-2.7,2.9-4.9,6.3-6.4,10.2c-1.5,3.9-2.3,8.3-2.3,13
			v0.4c0,4.8,0.8,9.3,2.5,13.4c1.6,4.1,3.9,7.5,6.8,10.4s6.3,5.1,10.3,6.7s8.4,2.4,13.3,2.4c3.9,0,7.1-0.3,9.4-0.8
			c2.4-0.5,4.4-1.3,6.3-2.4V444h-23.6v-29.3h66.6v63.5c-7.5,6.1-16.3,11.1-26.5,14.9s-21.6,5.7-34.2,5.7c-10.7,0-20.8-1.7-30.2-5.1
			c-8.8-3.2-16.5-7.6-23.2-13.3l6.5,15.5h-49.9l-7.3-18.5h-48.1l-7.1,18.5h-30.4h-18.7h-27.1v-68.2l-31.7,48.9h-0.8l-31.7-48.9v68.2
			h-44.8V479v-3.6v-7.9v-23.8h-19.9H76.5c2.1,5.8,5.5,10.3,10,13.4c5.5,3.7,12.2,5.6,20.3,5.6c6.1,0,11.7-1.1,16.8-3.3
			c2.8-1.2,5.7-2.9,8.5-4.9l23.1,27.8c-4.2,3.3-8.8,6.2-13.9,8.7c-10.3,5.1-22.7,7.6-37.2,7.6c-11.5,0-22-1.7-31.5-5.2
			S54.9,485.1,48,479c-6.9-6.2-12.3-13.6-16.1-22.4c-3.9-8.8-5.8-18.5-5.8-29.1V427c0-10,1.8-19.3,5.4-28s8.6-16.3,15.2-22.8
			c6.5-6.5,14.3-11.6,23.3-15.3C78.9,357.2,88.8,355.3,99.6,355.3 M74.8,414.5H125c-1-7.1-3.6-12.8-7.9-17
			c-4.5-4.5-10.2-6.7-17.2-6.7c-6.8,0-12.4,2.2-16.7,6.7C79.1,401.7,76.3,407.4,74.8,414.5 M367,444.7h25.1l-12.6-33.4L367,444.7
			 M99.6,349.7c-11.4,0-22.1,2-31.7,6s-18,9.5-25.1,16.5c-7,7-12.6,15.3-16.4,24.6c-3.8,9.3-5.8,19.5-5.8,30.1v0.5
			c0,11.4,2.1,21.9,6.2,31.4c4.2,9.5,10.1,17.7,17.5,24.3c7.4,6.6,16.3,11.8,26.4,15.5s21.3,5.5,33.4,5.5c15.3,0,28.7-2.7,39.7-8.2
			c4.7-2.3,9.3-5.2,13.7-8.4v8.3v5.6h5.6h44.8h5.6v-5.6v-49.3l21.5,33.1l1.6,2.5h3h0.8h3l1.6-2.5l21.5-33.1v49.3v5.6h5.6h27.1h18.7
			h30.4h3.8l1.4-3.6l5.7-14.9h40.5l5.9,14.9l1.4,3.5h3.8h49.9h8.4l-2.7-6.4c2.9,1.5,5.9,2.8,9.1,3.9c9.9,3.6,20.7,5.4,32.1,5.4
			c13.2,0,25.3-2,36.1-6s20.2-9.3,28.1-15.8l2-1.7v-2.6v-63.5V409h-5.6h-24.6l24.3-29.4l3.5-4.2l-4.1-3.6c-7.9-7-17-12.4-27.1-16.3
			s-21.6-5.9-34.1-5.9c-11.5,0-22.3,1.9-32.2,5.8c-9.9,3.9-18.6,9.3-25.9,16.2c-7.3,6.9-13.1,15.2-17.2,24.6c-1,2.4-1.9,4.8-2.7,7.3
			L407.8,355l-1.4-3.4h-3.7h-45.6h-3.7L352,355l-28.5,68.2v-65.1v-5.6h-5.6H270h-3.1l-1.6,2.7l-24.7,40.5l-24.7-40.5l-1.6-2.7H211
			h-47.9h-5.6v5.6v13.8c-6.2-6.5-14-11.9-23.1-15.9C124.6,351.9,112.8,349.7,99.6,349.7 M82.3,408.9c1.3-3,2.9-5.5,4.9-7.6
			c3.2-3.4,7.4-5,12.7-5c5.5,0,9.8,1.7,13.3,5.1c2.1,2.1,3.6,4.5,4.8,7.5H82.3z M509.4,455.3c-4.1,0-7.9-0.7-11.2-2
			c-3.3-1.3-6.1-3.1-8.4-5.4s-4.2-5.2-5.6-8.6s-2.1-7.2-2.1-11.3v-0.4c0-4,0.6-7.7,1.9-11c1.2-3.2,3-6,5.2-8.4s4.9-4.2,8-5.5
			s6.5-2,10.2-2c5,0,9.7,0.9,13.9,2.7c3.3,1.4,6.6,3.3,9.8,5.6h-29.7H496v5.6V444v5.6h5.6h18v4.6c-0.6,0.2-1.3,0.4-1.9,0.5
			C515.7,455.1,512.9,455.3,509.4,455.3 M375,439.2l4.5-12l4.5,12H375z M135.1,449.2h8.2h14.3v18.2v7.9v0.9l-21.1-25.4L135.1,449.2z
			 M86,449.2h43.9l-1,0.7c-2.5,1.8-5.1,3.3-7.5,4.3c-4.4,1.9-9.3,2.8-14.6,2.8c-6.9,0-12.7-1.5-17.2-4.6
			C88.3,451.5,87.1,450.5,86,449.2"/>
	</g>
</g>
</svg>
