<?xml version="1.0" standalone="no"?>
<!DOCTYPE svg PUBLIC "-//W3C//DTD SVG 1.1//EN" "http://www.w3.org/Graphics/SVG/1.1/DTD/svg11.dtd" >
<svg>
<metadata>
Created by FontForge 20090622 at Fri May 19 09:54:47 2017
 By deploy user
Copyright 2014 Dalton Maag Ltd. Modification of this file requires prior written permission from Dalton Maag Ltd.
</metadata>
<defs>
<font id="CoText-Light" horiz-adv-x="652" >
  <font-face 
    font-family="Co Text Light"
    font-weight="300"
    font-stretch="normal"
    units-per-em="1000"
    panose-1="2 11 3 3 6 2 2 2 2 4"
    ascent="789"
    descent="-211"
    x-height="494"
    cap-height="686"
    bbox="-228 -435 1340 1310"
    underline-thickness="59"
    underline-position="-71"
    unicode-range="U+0008-U+FEFC"
  />
<missing-glyph horiz-adv-x="500" 
d="M50 0v750h400v-750h-400zM400 50v650h-300v-650h300z" />
    <glyph glyph-name="f_f" unicode="ff" horiz-adv-x="688" 
d="M528 436v-436h-66v436h-277v-436h-66v436h-61q-14 0 -23.5 6.5t-9.5 22.5q0 11 3.5 18.5t5.5 10.5h85v66q0 46 14 79.5t38 55t57.5 32t72.5 10.5q52 0 76.5 -9t32.5 -13q10 -6 15 -13t5 -18t-7 -20.5t-12 -14.5q-14 12 -41.5 23t-64.5 11q-36 0 -59.5 -10.5t-37 -28.5
t-18.5 -43t-5 -55v-52h277v66q0 46 14 79.5t38 55t57.5 32t72.5 10.5q52 0 76.5 -9t32.5 -13q10 -6 15 -13t5 -18t-7 -20.5t-12 -14.5q-14 12 -41.5 23t-64.5 11q-36 0 -59.5 -10.5t-37 -28.5t-18.5 -43t-5 -55v-52h130q14 0 23.5 -6.5t9.5 -22.5q0 -11 -3.5 -18.5
t-5.5 -10.5h-154z" />
    <glyph glyph-name="f_i" unicode="fi" horiz-adv-x="619" 
d="M488 494q33 0 33 -36v-458h-66v436h-270v-436h-66v436h-61q-14 0 -23.5 6.5t-9.5 22.5q0 11 3.5 18.5t5.5 10.5h85v53q0 55 17 91.5t45.5 58.5t66 31t78.5 9q54 0 85.5 -8t43.5 -15q9 -5 15.5 -12t6.5 -20q0 -9 -5 -17.5t-12 -13.5q-20 14 -57.5 23t-77.5 9
q-75 0 -107.5 -36.5t-32.5 -117.5v-35h303z" />
    <glyph glyph-name="f_l" unicode="fl" horiz-adv-x="604" 
d="M440 670q-5 2 -34.5 7.5t-71.5 5.5q-78 0 -113.5 -35t-35.5 -116v-38h130q14 0 23.5 -6.5t9.5 -22.5q0 -11 -3.5 -18.5t-5.5 -10.5h-154v-436h-66v436h-61q-14 0 -23.5 6.5t-9.5 22.5q0 11 3.5 18.5t5.5 10.5h85v42q0 58 18 97t48 62t69 32.5t81 9.5q34 0 64.5 -4
t53.5 -9t37 -9.5t16 -5.5v-709h-66v670z" />
    <glyph glyph-name="f_f_i" unicode="ffi" horiz-adv-x="962" 
d="M831 494q33 0 33 -36v-458h-66v436h-270v-436h-66v436h-277v-436h-66v436h-61q-14 0 -23.5 6.5t-9.5 22.5q0 11 3.5 18.5t5.5 10.5h85v66q0 46 14 79.5t38 55t57.5 32t72.5 10.5q52 0 76.5 -9t32.5 -13q10 -6 15 -13t5 -18t-7 -20.5t-12 -14.5q-14 12 -41.5 23t-64.5 11
q-36 0 -59.5 -10.5t-37 -28.5t-18.5 -43t-5 -55v-52h277v53q0 55 17 91.5t45.5 58.5t66 31t78.5 9q54 0 85.5 -8t43.5 -15q9 -5 15.5 -12t6.5 -20q0 -9 -5 -17.5t-12 -13.5q-20 14 -57.5 23t-77.5 9q-75 0 -107.5 -36.5t-32.5 -117.5v-35h303z" />
    <glyph glyph-name="f_f_l" unicode="ffl" horiz-adv-x="947" 
d="M783 670q-5 2 -34.5 7.5t-71.5 5.5q-78 0 -113.5 -35t-35.5 -116v-38h130q14 0 23.5 -6.5t9.5 -22.5q0 -11 -3.5 -18.5t-5.5 -10.5h-154v-436h-66v436h-277v-436h-66v436h-61q-14 0 -23.5 6.5t-9.5 22.5q0 11 3.5 18.5t5.5 10.5h85v66q0 46 14 79.5t38 55t57.5 32
t72.5 10.5q52 0 76.5 -9t32.5 -13q10 -6 15 -13t5 -18t-7 -20.5t-12 -14.5q-14 12 -41.5 23t-64.5 11q-36 0 -59.5 -10.5t-37 -28.5t-18.5 -43t-5 -55v-52h277v42q0 58 18 97t48 62t69 32.5t81 9.5q34 0 64.5 -4t53.5 -9t37 -9.5t16 -5.5v-709h-66v670z" />
    <glyph glyph-name="uniFEFB" unicode="&#xfedf;&#xfe8e;" horiz-adv-x="553" arabic-form="isolated" 
d="M411 753q0 15 8 24.5t26 9.5q8 0 16.5 -2.5t11.5 -4.5v-780h-433v58h107v350q0 15 8 24.5t26 9.5q8 0 16.5 -2.5t11.5 -4.5v-377h202v695z" />
    <glyph glyph-name="uniFEFC" unicode="&#xfee0;&#xfe8e;" horiz-adv-x="620" arabic-form="final" 
d="M40 0v58h107v350q0 15 8 24.5t26 9.5q8 0 16.5 -2.5t11.5 -4.5v-377h81q39 0 63 12t37 34.5t17 53.5t4 70v525q0 15 8 24.5t26 9.5q8 0 16.5 -2.5t11.5 -4.5v-553q0 -38 4 -69.5t17 -53.5t37 -34t63 -12h41v-58h-41q-58 0 -96.5 20.5t-55.5 55.5q-25 -42 -60 -59t-92 -17
h-250z" />
    <glyph glyph-name="uniFEF5" unicode="&#xfedf;&#xfe82;" horiz-adv-x="553" arabic-form="isolated" 
d="M411 753q0 15 8 24.5t26 9.5q8 0 16.5 -2.5t11.5 -4.5v-780h-433v58h107v350q0 15 8 24.5t26 9.5q8 0 16.5 -2.5t11.5 -4.5v-377h202v695zM63 538q0 51 21 71t47 20q15 0 28.5 -6t27.5 -13t28 -13t30 -6q11 0 17.5 9t6.5 31h47q0 -51 -19.5 -71.5t-47.5 -20.5
q-14 0 -29.5 6t-30.5 13l-29 13t-25 6t-18 -8t-7 -31h-47z" />
    <glyph glyph-name="uniFEF6" unicode="&#xfee0;&#xfe82;" horiz-adv-x="620" arabic-form="final" 
d="M40 0v58h107v350q0 15 8 24.5t26 9.5q8 0 16.5 -2.5t11.5 -4.5v-377h81q39 0 63 12t37 34.5t17 53.5t4 70v525q0 15 8 24.5t26 9.5q8 0 16.5 -2.5t11.5 -4.5v-553q0 -38 4 -69.5t17 -53.5t37 -34t63 -12h41v-58h-41q-58 0 -96.5 20.5t-55.5 55.5q-25 -42 -60 -59t-92 -17
h-250zM63 538q0 51 21 71t47 20q15 0 28.5 -6t27.5 -13t28 -13t30 -6q11 0 17.5 9t6.5 31h47q0 -51 -19.5 -71.5t-47.5 -20.5q-14 0 -29.5 6t-30.5 13l-29 13t-25 6t-18 -8t-7 -31h-47z" />
    <glyph glyph-name="uniFEF7" unicode="&#xfedf;&#xfe84;" horiz-adv-x="553" arabic-form="isolated" 
d="M411 753q0 15 8 24.5t26 9.5q8 0 16.5 -2.5t11.5 -4.5v-780h-433v58h107v350q0 15 8 24.5t26 9.5q8 0 16.5 -2.5t11.5 -4.5v-377h202v695zM90 577h49q-12 11 -17.5 25t-5.5 28q0 20 8 34.5t21 23.5t29 13.5t32 4.5q23 0 39.5 -8.5t16.5 -22.5q0 -6 -2.5 -12t-10.5 -14
q-17 15 -42 15q-17 0 -30 -9.5t-13 -30.5q0 -17 12.5 -32t38.5 -15h49v-42h-174v42z" />
    <glyph glyph-name="uniFEF8" unicode="&#xfee0;&#xfe84;" horiz-adv-x="620" arabic-form="final" 
d="M40 0v58h107v350q0 15 8 24.5t26 9.5q8 0 16.5 -2.5t11.5 -4.5v-377h81q39 0 63 12t37 34.5t17 53.5t4 70v525q0 15 8 24.5t26 9.5q8 0 16.5 -2.5t11.5 -4.5v-553q0 -38 4 -69.5t17 -53.5t37 -34t63 -12h41v-58h-41q-58 0 -96.5 20.5t-55.5 55.5q-25 -42 -60 -59t-92 -17
h-250zM91 577h49q-12 11 -17.5 25t-5.5 28q0 20 8 34.5t21 23.5t29 13.5t32 4.5q23 0 39.5 -8.5t16.5 -22.5q0 -6 -2.5 -12t-10.5 -14q-17 15 -42 15q-17 0 -30 -9.5t-13 -30.5q0 -17 12.5 -32t38.5 -15h49v-42h-174v42z" />
    <glyph glyph-name="uniFEF9" unicode="&#xfedf;&#xfe88;" horiz-adv-x="553" arabic-form="isolated" 
d="M411 753q0 15 8 24.5t26 9.5q8 0 16.5 -2.5t11.5 -4.5v-780h-433v58h107v350q0 15 8 24.5t26 9.5q8 0 16.5 -2.5t11.5 -4.5v-377h202v695zM76 -182h49q-12 11 -17.5 25t-5.5 28q0 20 8 34.5t21 23.5t29 13.5t32 4.5q23 0 39.5 -8.5t16.5 -22.5q0 -6 -2.5 -12t-10.5 -14
q-17 15 -42 15q-17 0 -30 -9.5t-13 -30.5q0 -17 12.5 -32t38.5 -15h49v-42h-174v42z" />
    <glyph glyph-name="uniFEFA" unicode="&#xfee0;&#xfe88;" horiz-adv-x="620" arabic-form="final" 
d="M40 0v58h107v350q0 15 8 24.5t26 9.5q8 0 16.5 -2.5t11.5 -4.5v-377h81q39 0 63 12t37 34.5t17 53.5t4 70v525q0 15 8 24.5t26 9.5q8 0 16.5 -2.5t11.5 -4.5v-553q0 -38 4 -69.5t17 -53.5t37 -34t63 -12h41v-58h-41q-58 0 -96.5 20.5t-55.5 55.5q-25 -42 -60 -59t-92 -17
h-250zM76 -182h49q-12 11 -17.5 25t-5.5 28q0 20 8 34.5t21 23.5t29 13.5t32 4.5q23 0 39.5 -8.5t16.5 -22.5q0 -6 -2.5 -12t-10.5 -14q-17 15 -42 15q-17 0 -30 -9.5t-13 -30.5q0 -17 12.5 -32t38.5 -15h49v-42h-174v42z" />
    <glyph glyph-name="uni06440671" unicode="&#xfedf;&#xfb51;" horiz-adv-x="553" 
d="M411 753q0 15 8 24.5t26 9.5q8 0 16.5 -2.5t11.5 -4.5v-780h-433v58h107v350q0 15 8 24.5t26 9.5q8 0 16.5 -2.5t11.5 -4.5v-377h202v695zM245 567v22q0 26 -14 38.5t-37 12.5q-26 0 -47.5 -17.5t-24.5 -55.5h123zM76 567q7 57 40 87t84 30q36 0 63.5 -22t27.5 -72v-65
h-247v42h32z" />
    <glyph glyph-name="uni06440671.fina" unicode="&#xfee0;&#xfb51;" horiz-adv-x="620" 
d="M40 0v58h107v350q0 15 8 24.5t26 9.5q8 0 16.5 -2.5t11.5 -4.5v-377h81q39 0 63 12t37 34.5t17 53.5t4 70v525q0 15 8 24.5t26 9.5q8 0 16.5 -2.5t11.5 -4.5v-553q0 -38 4 -69.5t17 -53.5t37 -34t63 -12h41v-58h-41q-58 0 -96.5 20.5t-55.5 55.5q-25 -42 -60 -59t-92 -17
h-250zM245 567v22q0 26 -14 38.5t-37 12.5q-26 0 -47.5 -17.5t-24.5 -55.5h123zM76 567q7 57 40 87t84 30q36 0 63.5 -22t27.5 -72v-65h-247v42h32z" />
    <glyph glyph-name="uniFEDBFE8E" unicode="&#xfedb;&#xfe8e;" horiz-adv-x="613" 
d="M254 442h12q48 0 100 -13.5t96 -46.5t72.5 -89.5t28.5 -143.5v-149h-483v753q0 15 8 24.5t26 9.5q8 0 16 -2.5t12 -4.5v-367l333 352q16 17 27.5 19.5t21.5 2.5q25 0 41 -22zM501 132q0 74 -20.5 122.5t-53.5 77.5t-74.5 40.5t-82.5 11.5q-35 0 -70 -9t-58 -23v-294h359
v74z" />
    <glyph glyph-name="uniFEDCFE8E" unicode="&#xfedc;&#xfe8e;" horiz-adv-x="681" 
d="M266 442q48 0 100 -13.5t96 -46.5t72.5 -89.5t28.5 -143.5v-91h133v-58h-616v753q0 15 8 24.5t26 9.5q8 0 16 -2.5t12 -4.5v-367l333 352q16 17 27.5 19.5t21.5 2.5q25 0 41 -22l-311 -323h12zM501 132q0 74 -20.5 122.5t-53.5 77.5t-74.5 40.5t-82.5 11.5q-35 0 -70 -9
t-58 -23v-294h359v74z" />
    <glyph glyph-name="uniFEDBFE82" unicode="&#xfedb;&#xfe82;" horiz-adv-x="613" 
d="M254 442h12q48 0 100 -13.5t96 -46.5t72.5 -89.5t28.5 -143.5v-149h-483v753q0 15 8 24.5t26 9.5q8 0 16 -2.5t12 -4.5v-367l333 352q16 17 27.5 19.5t21.5 2.5q25 0 41 -22zM501 132q0 74 -20.5 122.5t-53.5 77.5t-74.5 40.5t-82.5 11.5q-35 0 -70 -9t-58 -23v-294h359
v74zM-8 864q0 51 21 71t47 20q15 0 28.5 -6t27.5 -13t28 -13t30 -6q11 0 17.5 9t6.5 31h47q0 -51 -19.5 -71.5t-47.5 -20.5q-14 0 -29.5 6t-30.5 13l-29 13t-25 6t-18 -8t-7 -31h-47z" />
    <glyph glyph-name="uniFEDCFE82" unicode="&#xfedc;&#xfe82;" horiz-adv-x="681" 
d="M266 442q48 0 100 -13.5t96 -46.5t72.5 -89.5t28.5 -143.5v-91h133v-58h-616v753q0 15 8 24.5t26 9.5q8 0 16 -2.5t12 -4.5v-367l333 352q16 17 27.5 19.5t21.5 2.5q25 0 41 -22l-311 -323h12zM501 132q0 74 -20.5 122.5t-53.5 77.5t-74.5 40.5t-82.5 11.5q-35 0 -70 -9
t-58 -23v-294h359v74zM-7 864q0 51 21 71t47 20q15 0 28.5 -6t27.5 -13t28 -13t30 -6q11 0 17.5 9t6.5 31h47q0 -51 -19.5 -71.5t-47.5 -20.5q-14 0 -29.5 6t-30.5 13l-29 13t-25 6t-18 -8t-7 -31h-47z" />
    <glyph glyph-name="uniFEDBFE84" unicode="&#xfedb;&#xfe84;" horiz-adv-x="613" 
d="M254 442h12q48 0 100 -13.5t96 -46.5t72.5 -89.5t28.5 -143.5v-149h-483v753q0 15 8 24.5t26 9.5q8 0 16 -2.5t12 -4.5v-367l333 352q16 17 27.5 19.5t21.5 2.5q25 0 41 -22zM501 132q0 74 -20.5 122.5t-53.5 77.5t-74.5 40.5t-82.5 11.5q-35 0 -70 -9t-58 -23v-294h359
v74zM36 900h49q-12 11 -17.5 25t-5.5 28q0 20 8 34.5t21 23.5t29 13.5t32 4.5q23 0 39.5 -8.5t16.5 -22.5q0 -6 -2.5 -12t-10.5 -14q-17 15 -42 15q-17 0 -30 -9.5t-13 -30.5q0 -17 12.5 -32t38.5 -15h49v-42h-174v42z" />
    <glyph glyph-name="uniFEDCFE84" unicode="&#xfedc;&#xfe84;" horiz-adv-x="681" 
d="M266 442q48 0 100 -13.5t96 -46.5t72.5 -89.5t28.5 -143.5v-91h133v-58h-616v753q0 15 8 24.5t26 9.5q8 0 16 -2.5t12 -4.5v-367l333 352q16 17 27.5 19.5t21.5 2.5q25 0 41 -22l-311 -323h12zM501 132q0 74 -20.5 122.5t-53.5 77.5t-74.5 40.5t-82.5 11.5q-35 0 -70 -9
t-58 -23v-294h359v74zM36 900h49q-12 11 -17.5 25t-5.5 28q0 20 8 34.5t21 23.5t29 13.5t32 4.5q23 0 39.5 -8.5t16.5 -22.5q0 -6 -2.5 -12t-10.5 -14q-17 15 -42 15q-17 0 -30 -9.5t-13 -30.5q0 -17 12.5 -32t38.5 -15h49v-42h-174v42z" />
    <glyph glyph-name="uniFEDBFE88" unicode="&#xfedb;&#xfe88;" horiz-adv-x="613" 
d="M254 442h12q48 0 100 -13.5t96 -46.5t72.5 -89.5t28.5 -143.5v-149h-483v753q0 15 8 24.5t26 9.5q8 0 16 -2.5t12 -4.5v-367l333 352q16 17 27.5 19.5t21.5 2.5q25 0 41 -22zM501 132q0 74 -20.5 122.5t-53.5 77.5t-74.5 40.5t-82.5 11.5q-35 0 -70 -9t-58 -23v-294h359
v74zM81 -182h49q-12 11 -17.5 25t-5.5 28q0 20 8 34.5t21 23.5t29 13.5t32 4.5q23 0 39.5 -8.5t16.5 -22.5q0 -6 -2.5 -12t-10.5 -14q-17 15 -42 15q-17 0 -30 -9.5t-13 -30.5q0 -17 12.5 -32t38.5 -15h49v-42h-174v42z" />
    <glyph glyph-name="uniFEDCFE88" unicode="&#xfedc;&#xfe88;" horiz-adv-x="681" 
d="M266 442q48 0 100 -13.5t96 -46.5t72.5 -89.5t28.5 -143.5v-91h133v-58h-616v753q0 15 8 24.5t26 9.5q8 0 16 -2.5t12 -4.5v-367l333 352q16 17 27.5 19.5t21.5 2.5q25 0 41 -22l-311 -323h12zM501 132q0 74 -20.5 122.5t-53.5 77.5t-74.5 40.5t-82.5 11.5q-35 0 -70 -9
t-58 -23v-294h359v74zM81 -182h49q-12 11 -17.5 25t-5.5 28q0 20 8 34.5t21 23.5t29 13.5t32 4.5q23 0 39.5 -8.5t16.5 -22.5q0 -6 -2.5 -12t-10.5 -14q-17 15 -42 15q-17 0 -30 -9.5t-13 -30.5q0 -17 12.5 -32t38.5 -15h49v-42h-174v42z" />
    <glyph glyph-name="uniFEDBFB51" unicode="&#xfedb;&#xfb51;" horiz-adv-x="613" 
d="M254 442h12q48 0 100 -13.5t96 -46.5t72.5 -89.5t28.5 -143.5v-149h-483v753q0 15 8 24.5t26 9.5q8 0 16 -2.5t12 -4.5v-367l333 352q16 17 27.5 19.5t21.5 2.5q25 0 41 -22zM501 132q0 74 -20.5 122.5t-53.5 77.5t-74.5 40.5t-82.5 11.5q-35 0 -70 -9t-58 -23v-294h359
v74zM174 900v22q0 26 -14 38.5t-37 12.5q-26 0 -47.5 -17.5t-24.5 -55.5h123zM5 900q7 57 40 87t84 30q36 0 63.5 -22t27.5 -72v-65h-247v42h32z" />
    <glyph glyph-name="uniFEDCFB51" unicode="&#xfedc;&#xfb51;" horiz-adv-x="681" 
d="M266 442q48 0 100 -13.5t96 -46.5t72.5 -89.5t28.5 -143.5v-91h133v-58h-616v753q0 15 8 24.5t26 9.5q8 0 16 -2.5t12 -4.5v-367l333 352q16 17 27.5 19.5t21.5 2.5q25 0 41 -22l-311 -323h12zM501 132q0 74 -20.5 122.5t-53.5 77.5t-74.5 40.5t-82.5 11.5q-35 0 -70 -9
t-58 -23v-294h359v74zM174 900v22q0 26 -14 38.5t-37 12.5q-26 0 -47.5 -17.5t-24.5 -55.5h123zM5 900q7 57 40 87t84 30q36 0 63.5 -22t27.5 -72v-65h-247v42h32z" />
    <glyph glyph-name="uniFEDBFEDE" unicode="&#xfedb;&#xfede;" horiz-adv-x="1018" 
d="M906 58v74q0 74 -20.5 122.5t-53.5 77.5t-74.5 40.5t-82.5 11.5q-35 0 -70 -9t-58 -23v-140q0 -35 5 -63.5t18 -48.5t36.5 -31t61.5 -11h238zM671 442q48 0 100 -13.5t96 -46.5t72.5 -89.5t28.5 -143.5v-149h-300q-44 0 -74 9.5t-48 32.5q-5 -133 -68 -201.5t-184 -68.5
q-75 0 -124 23.5t-78 61.5t-40.5 85.5t-11.5 94.5q0 24 3.5 65t15.5 77q5 15 13.5 23t23.5 8q7 0 16.5 -2t16.5 -6q-13 -40 -19 -80t-6 -78q0 -47 10 -87.5t32.5 -69.5t59 -45.5t89.5 -16.5q38 0 72.5 9.5t60.5 37.5t41.5 79t15.5 133v669q0 15 8 24.5t26 9.5q8 0 16 -2.5
t12 -4.5v-367l333 352q16 17 27.5 19.5t21.5 2.5q25 0 41 -22l-311 -323h12z" />
    <glyph glyph-name="uniFEDCFEDE" unicode="&#xfedc;&#xfede;" horiz-adv-x="1086" 
d="M906 58v74q0 74 -20.5 122.5t-53.5 77.5t-74.5 40.5t-82.5 11.5q-35 0 -70 -9t-58 -23v-140q0 -35 5 -63.5t18 -48.5t36.5 -31t61.5 -11h238zM671 442q48 0 100 -13.5t96 -46.5t72.5 -89.5t28.5 -143.5v-91h133v-58h-433q-44 0 -74 9.5t-48 32.5q-5 -133 -68 -201.5
t-184 -68.5q-75 0 -124 23.5t-78 61.5t-40.5 85.5t-11.5 94.5q0 24 3.5 65t15.5 77q5 15 13.5 23t23.5 8q7 0 16.5 -2t16.5 -6q-13 -40 -19 -80t-6 -78q0 -47 10 -87.5t32.5 -69.5t59 -45.5t89.5 -16.5q38 0 72.5 9.5t60.5 37.5t41.5 79t15.5 133v669q0 15 8 24.5t26 9.5
q8 0 16 -2.5t12 -4.5v-367l333 352q16 17 27.5 19.5t21.5 2.5q25 0 41 -22l-311 -323h12z" />
    <glyph glyph-name="uniFEDBFEE0" unicode="&#xfedb;&#xfee0;" horiz-adv-x="671" 
d="M200 227q0 -38 4 -69.5t17 -53.5t37 -34t63 -12h238v74q0 74 -20.5 122.5t-53.5 77.5t-74.5 40.5t-82.5 11.5q-35 0 -70 -9t-58 -23v-125zM324 442q48 0 100 -13.5t96 -46.5t72.5 -89.5t28.5 -143.5v-149h-300q-58 0 -96.5 20.5t-55.5 55.5q-25 -42 -60 -59t-92 -17h-32
v58h32q39 0 63 12t37 34.5t17 53.5t4 70v525q0 15 8 24.5t26 9.5q8 0 16 -2.5t12 -4.5v-367l333 352q16 17 27.5 19.5t21.5 2.5q25 0 41 -22l-311 -323h12z" />
    <glyph glyph-name="uniFEDCFEE0" unicode="&#xfedc;&#xfee0;" horiz-adv-x="738" 
d="M200 227q0 -38 4 -69.5t17 -53.5t37 -34t63 -12h238v74q0 74 -20.5 122.5t-53.5 77.5t-74.5 40.5t-82.5 11.5q-35 0 -70 -9t-58 -23v-125zM324 442q48 0 100 -13.5t96 -46.5t72.5 -89.5t28.5 -143.5v-91h132v-58h-432q-58 0 -96.5 20.5t-55.5 55.5q-25 -42 -60 -59
t-92 -17h-32v58h32q39 0 63 12t37 34.5t17 53.5t4 70v525q0 15 8 24.5t26 9.5q8 0 16 -2.5t12 -4.5v-367l333 352q16 17 27.5 19.5t21.5 2.5q25 0 41 -22l-311 -323h12z" />
    <glyph glyph-name="uniFE88" unicode="&#x625;" horiz-adv-x="274" arabic-form="final" 
d="M80 753q0 15 8 24.5t26 9.5q8 0 16 -2.5t12 -4.5v-722h147v-58h-209v753zM87 -182h49q-12 11 -17.5 25t-5.5 28q0 20 8 34.5t21 23.5t29 13.5t32 4.5q23 0 39.5 -8.5t16.5 -22.5q0 -6 -2.5 -12t-10.5 -14q-17 15 -42 15q-17 0 -30 -9.5t-13 -30.5q0 -17 12.5 -32
t38.5 -15h49v-42h-174v42z" />
    <glyph glyph-name="uniFE87" unicode="&#x625;" horiz-adv-x="222" arabic-form="isolated" 
d="M80 753q0 15 8 24.5t26 9.5q8 0 16.5 -2.5t11.5 -4.5v-780h-62v753zM25 -182h49q-12 11 -17.5 25t-5.5 28q0 20 8 34.5t21 23.5t29 13.5t32 4.5q23 0 39.5 -8.5t16.5 -22.5q0 -6 -2.5 -12t-10.5 -14q-17 15 -42 15q-17 0 -30 -9.5t-13 -30.5q0 -17 12.5 -32t38.5 -15h49
v-42h-174v42z" />
    <glyph glyph-name="uniFE86" unicode="&#x624;" horiz-adv-x="595" arabic-form="final" 
d="M478 -25q0 -59 -18 -99.5t-47 -66t-64.5 -37t-71.5 -11.5q-43 0 -73.5 9.5t-47.5 18.5l21 53q13 -7 38 -16.5t62 -9.5q25 0 49.5 8.5t44.5 28t32.5 51.5t12.5 78v18h-134q-50 0 -91.5 14.5t-71.5 41.5t-46.5 66t-16.5 89q0 55 16 98t44.5 72.5t67.5 45t84 15.5
q47 0 85.5 -16t66.5 -45t43 -71t15 -94v-158h133v-58h-133v-25zM416 206q0 45 -11 78t-30.5 55.5t-47 33.5t-59.5 11q-65 0 -105.5 -41.5t-40.5 -131.5q0 -33 10 -61t28.5 -48.5t45.5 -32t62 -11.5h148v148zM191 577h49q-12 11 -17.5 25t-5.5 28q0 20 8 34.5t21 23.5
t29 13.5t32 4.5q23 0 39.5 -8.5t16.5 -22.5q0 -6 -2.5 -12t-10.5 -14q-17 15 -42 15q-17 0 -30 -9.5t-13 -30.5q0 -17 12.5 -32t38.5 -15h49v-42h-174v42z" />
    <glyph glyph-name="uniFE85" unicode="&#x624;" horiz-adv-x="552" arabic-form="isolated" 
d="M482 -25q0 -59 -18 -99.5t-47 -66t-64.5 -37t-71.5 -11.5q-43 0 -73.5 9.5t-47.5 18.5l21 53q13 -7 38 -16.5t62 -9.5q25 0 49.5 8.5t44.5 28t32.5 51.5t12.5 78v18h-134q-50 0 -91.5 14.5t-71.5 41.5t-46.5 66t-16.5 89q0 55 16 98t44.5 72.5t67.5 45t84 15.5
q47 0 85.5 -16t66.5 -45t43 -71t15 -94v-241zM420 206q0 45 -11 78t-30.5 55.5t-47 33.5t-59.5 11q-65 0 -105.5 -41.5t-40.5 -131.5q0 -33 10 -61t28.5 -48.5t45.5 -32t62 -11.5h148v148zM196 577h49q-12 11 -17.5 25t-5.5 28q0 20 8 34.5t21 23.5t29 13.5t32 4.5
q23 0 39.5 -8.5t16.5 -22.5q0 -6 -2.5 -12t-10.5 -14q-17 15 -42 15q-17 0 -30 -9.5t-13 -30.5q0 -17 12.5 -32t38.5 -15h49v-42h-174v42z" />
    <glyph glyph-name="uniFE84" unicode="&#x623;" horiz-adv-x="274" arabic-form="final" 
d="M80 753q0 15 8 24.5t26 9.5q8 0 16 -2.5t12 -4.5v-722h147v-58h-209v753zM21 900h49q-12 11 -17.5 25t-5.5 28q0 20 8 34.5t21 23.5t29 13.5t32 4.5q23 0 39.5 -8.5t16.5 -22.5q0 -6 -2.5 -12t-10.5 -14q-17 15 -42 15q-17 0 -30 -9.5t-13 -30.5q0 -17 12.5 -32t38.5 -15
h49v-42h-174v42z" />
    <glyph glyph-name="uniFE83" unicode="&#x623;" horiz-adv-x="222" arabic-form="isolated" 
d="M80 753q0 15 8 24.5t26 9.5q8 0 16.5 -2.5t11.5 -4.5v-780h-62v753zM21 900h49q-12 11 -17.5 25t-5.5 28q0 20 8 34.5t21 23.5t29 13.5t32 4.5q23 0 39.5 -8.5t16.5 -22.5q0 -6 -2.5 -12t-10.5 -14q-17 15 -42 15q-17 0 -30 -9.5t-13 -30.5q0 -17 12.5 -32t38.5 -15h49
v-42h-174v42z" />
    <glyph glyph-name="uniFE82" unicode="&#x622;" horiz-adv-x="274" arabic-form="final" 
d="M80 753q0 15 8 24.5t26 9.5q8 0 16 -2.5t12 -4.5v-722h147v-58h-209v753zM-11 864q0 51 21 71t47 20q15 0 28.5 -6t27.5 -13t28 -13t30 -6q11 0 17.5 9t6.5 31h47q0 -51 -19.5 -71.5t-47.5 -20.5q-14 0 -29.5 6t-30.5 13l-29 13t-25 6t-18 -8t-7 -31h-47z" />
    <glyph glyph-name="uniFE81" unicode="&#x622;" horiz-adv-x="222" arabic-form="isolated" 
d="M80 753q0 15 8 24.5t26 9.5q8 0 16.5 -2.5t11.5 -4.5v-780h-62v753zM-11 864q0 51 21 71t47 20q15 0 28.5 -6t27.5 -13t28 -13t30 -6q11 0 17.5 9t6.5 31h47q0 -51 -19.5 -71.5t-47.5 -20.5q-14 0 -29.5 6t-30.5 13l-29 13t-25 6t-18 -8t-7 -31h-47z" />
    <glyph glyph-name="uniFE80" unicode="&#x621;" horiz-adv-x="387" arabic-form="isolated" 
d="M60 49h103q-34 20 -50 48.5t-16 57.5q0 32 12 54t30.5 35.5t41.5 19.5t46 6q35 0 61.5 -11.5t26.5 -28.5q0 -8 -2 -15t-10 -16q-32 22 -67 22q-34 0 -58 -20.5t-24 -54.5q0 -17 7.5 -34.5t22 -31.5t36 -22.5t49.5 -8.5h58v-49h-267v49z" />
    <glyph glyph-name="uniFE8A" unicode="&#x626;" horiz-adv-x="959" arabic-form="final" 
d="M298 -230q-77 0 -126.5 24t-79 62t-41 86t-11.5 95q0 24 3.5 65t15.5 77q5 15 13.5 23t23.5 8q7 0 16.5 -2t16.5 -6q-13 -40 -19 -80t-6 -78q0 -47 10 -87t32.5 -68.5t58 -44.5t86.5 -16h177v575l30.5 11t44.5 13t54 10.5t58 4.5q97 0 141.5 -47.5t44.5 -142.5v-194h133
v-58h-195v224q0 43 -6 73.5t-20 50t-38 28t-60 8.5q-43 0 -77.5 -10t-47.5 -15v-589h-232zM196 381h49q-12 11 -17.5 25t-5.5 28q0 20 8 34.5t21 23.5t29 13.5t32 4.5q23 0 39.5 -8.5t16.5 -22.5q0 -6 -2.5 -12t-10.5 -14q-17 15 -42 15q-17 0 -30 -9.5t-13 -30.5
q0 -17 12.5 -32t38.5 -15h49v-42h-174v42z" />
    <glyph glyph-name="uniFE8C" unicode="&#x626;" horiz-adv-x="346" arabic-form="medial" 
d="M171 76q-25 -42 -60 -59t-92 -17h-34v58h34q39 0 63 12t37 34.5t17 53.5t4 70v180q0 15 8 24.5t26 9.5q8 0 16.5 -2.5t11.5 -4.5v-208q0 -38 4 -69.5t17 -53.5t37 -34t63 -12h38v-58h-38q-58 0 -96.5 20.5t-55.5 55.5zM85 577h49q-12 11 -17.5 25t-5.5 28q0 20 8 34.5
t21 23.5t29 13.5t32 4.5q23 0 39.5 -8.5t16.5 -22.5q0 -6 -2.5 -12t-10.5 -14q-17 15 -42 15q-17 0 -30 -9.5t-13 -30.5q0 -17 12.5 -32t38.5 -15h49v-42h-174v42z" />
    <glyph glyph-name="uniFE8B" unicode="&#x626;" horiz-adv-x="264" arabic-form="initial" 
d="M132 408q0 15 8 24.5t26 9.5q8 0 16.5 -2.5t11.5 -4.5v-435h-209v58h147v350zM76 577h49q-12 11 -17.5 25t-5.5 28q0 20 8 34.5t21 23.5t29 13.5t32 4.5q23 0 39.5 -8.5t16.5 -22.5q0 -6 -2.5 -12t-10.5 -14q-17 15 -42 15q-17 0 -30 -9.5t-13 -30.5q0 -17 12.5 -32
t38.5 -15h49v-42h-174v42z" />
    <glyph glyph-name="uniFE89" unicode="&#x626;" horiz-adv-x="716" arabic-form="isolated" 
d="M298 -230q-77 0 -126.5 24t-79 62t-41 86t-11.5 95q0 24 3.5 65t15.5 77q5 15 13.5 23t23.5 8q7 0 16.5 -2t16.5 -6q-13 -40 -19 -80t-6 -78q0 -47 10 -87t32.5 -68.5t58 -44.5t86.5 -16h177v586q29 13 68.5 20.5t75.5 7.5q35 0 59.5 -9t24.5 -30q0 -15 -15 -31
q-16 7 -31.5 9.5t-31.5 2.5q-23 0 -44.5 -4.5t-43.5 -10.5v-599h-232zM181 371h49q-12 11 -17.5 25t-5.5 28q0 20 8 34.5t21 23.5t29 13.5t32 4.5q23 0 39.5 -8.5t16.5 -22.5q0 -6 -2.5 -12t-10.5 -14q-17 15 -42 15q-17 0 -30 -9.5t-13 -30.5q0 -17 12.5 -32t38.5 -15h49
v-42h-174v42z" />
    <glyph glyph-name="uniFE9E" unicode="&#x62c;" horiz-adv-x="650" arabic-form="final" 
d="M205 442q41 0 79 -18.5t72.5 -49.5t65 -71t56.5 -82.5t47.5 -85t37.5 -77.5h102v-58h-343q-215 0 -215 -182q0 -47 17 -80t46.5 -55t68 -32t80.5 -10q108 0 211 59l29 -47q-44 -28 -108.5 -48t-132.5 -20q-53 0 -103 12.5t-89 40.5t-62.5 72.5t-23.5 108.5
q0 112 68 175.5t202 63.5h185q-41 77 -77.5 137.5t-72 102.5t-71.5 64t-75 22q-35 0 -57 -12q-15 16 -15 31q0 17 21 28t57 11zM281 -170q0 21 13.5 35.5t33.5 14.5t34 -14.5t14 -35.5t-14 -35.5t-34 -14.5t-33.5 14.5t-13.5 35.5z" />
    <glyph glyph-name="uniFEA0" unicode="&#x62c;" horiz-adv-x="559" arabic-form="medial" 
d="M419 58q-32 58 -65.5 112t-62.5 89q-26 31 -48.5 54.5t-44.5 39t-43.5 23.5t-46.5 8q-35 0 -57 -12q-15 16 -15 31q0 17 24.5 28t60.5 11q33 0 63 -12t58.5 -33t55 -49.5t52.5 -61.5q21 -26 40.5 -56t37.5 -60.5l33.5 -59l27.5 -52.5h85v-58h-589v58h434zM170 -130
q0 21 13.5 35.5t33.5 14.5t34 -14.5t14 -35.5t-14 -35.5t-34 -14.5t-33.5 14.5t-13.5 35.5z" />
    <glyph glyph-name="uniFE9F" unicode="&#x62c;" horiz-adv-x="534" arabic-form="initial" 
d="M412 58q-32 58 -65.5 112t-62.5 89q-26 31 -48.5 54.5t-44.5 39t-43.5 23.5t-46.5 8q-35 0 -57 -12q-15 16 -15 31q0 17 24.5 28t60.5 11q33 0 63 -12t58.5 -33t55 -49.5t52.5 -61.5q21 -26 41 -56.5t38.5 -62t34 -61l27.5 -53.5v-53h-499v58h427zM163 -130
q0 21 13.5 35.5t33.5 14.5t34 -14.5t14 -35.5t-14 -35.5t-34 -14.5t-33.5 14.5t-13.5 35.5z" />
    <glyph glyph-name="uniFE9D" unicode="&#x62c;" horiz-adv-x="613" arabic-form="isolated" 
d="M205 442q41 0 79 -18.5t72.5 -49.5t65 -71t56.5 -82.5t47.5 -85t37.5 -77.5v-58h-241q-215 0 -215 -182q0 -47 17 -80t46.5 -55t68 -32t80.5 -10q108 0 211 59l29 -47q-44 -28 -108.5 -48t-132.5 -20q-53 0 -103 12.5t-89 40.5t-62.5 72.5t-23.5 108.5q0 112 68 175.5
t202 63.5h185q-41 77 -77.5 137.5t-72 102.5t-71.5 64t-75 22q-35 0 -57 -12q-15 16 -15 31q0 17 21 28t57 11zM282 -170q0 21 13.5 35.5t33.5 14.5t34 -14.5t14 -35.5t-14 -35.5t-34 -14.5t-33.5 14.5t-13.5 35.5z" />
    <glyph glyph-name="uniFE9A" unicode="&#x62b;" horiz-adv-x="872" arabic-form="final" 
d="M136 345q-8 -25 -11 -47.5t-3 -43.5q0 -45 14 -81t44 -61.5t77.5 -39.5t114.5 -14h306v350q0 15 8.5 24.5t25.5 9.5q9 0 16.5 -2.5t11.5 -4.5v-377h148v-58h-532q-89 0 -146.5 24.5t-90.5 62t-46 82t-13 84.5q0 58 12.5 79t30.5 21q17 0 33 -8zM369 700q0 21 14 35.5
t34 14.5t33.5 -14.5t13.5 -35.5t-13.5 -35.5t-33.5 -14.5t-34 14.5t-14 35.5zM442 570q0 21 14 35.5t34 14.5t33.5 -14.5t13.5 -35.5t-13.5 -35.5t-33.5 -14.5t-34 14.5t-14 35.5zM293 570q0 21 14 35.5t34 14.5t33.5 -14.5t13.5 -35.5t-13.5 -35.5t-33.5 -14.5t-34 14.5
t-14 35.5z" />
    <glyph glyph-name="uniFE9C" unicode="&#x62b;" horiz-adv-x="346" arabic-form="medial" 
d="M171 76q-25 -42 -60 -59t-92 -17h-34v58h34q39 0 63 12t37 34.5t17 53.5t4 70v180q0 15 8 24.5t26 9.5q8 0 16.5 -2.5t11.5 -4.5v-208q0 -38 4 -69.5t17 -53.5t37 -34t63 -12h38v-58h-38q-58 0 -96.5 20.5t-55.5 55.5zM124 700q0 21 14 35.5t34 14.5t33.5 -14.5
t13.5 -35.5t-13.5 -35.5t-33.5 -14.5t-34 14.5t-14 35.5zM197 570q0 21 14 35.5t34 14.5t33.5 -14.5t13.5 -35.5t-13.5 -35.5t-33.5 -14.5t-34 14.5t-14 35.5zM48 570q0 21 14 35.5t34 14.5t33.5 -14.5t13.5 -35.5t-13.5 -35.5t-33.5 -14.5t-34 14.5t-14 35.5z" />
    <glyph glyph-name="uniFE9B" unicode="&#x62b;" horiz-adv-x="264" arabic-form="initial" 
d="M132 408q0 15 8 24.5t26 9.5q8 0 16.5 -2.5t11.5 -4.5v-435h-209v58h147v350zM119 700q0 21 14 35.5t34 14.5t33.5 -14.5t13.5 -35.5t-13.5 -35.5t-33.5 -14.5t-34 14.5t-14 35.5zM192 570q0 21 14 35.5t34 14.5t33.5 -14.5t13.5 -35.5t-13.5 -35.5t-33.5 -14.5t-34 14.5
t-14 35.5zM43 570q0 21 14 35.5t34 14.5t33.5 -14.5t13.5 -35.5t-13.5 -35.5t-33.5 -14.5t-34 14.5t-14 35.5z" />
    <glyph glyph-name="uniFE99" unicode="&#x62b;" horiz-adv-x="810" arabic-form="isolated" 
d="M136 345q-8 -25 -11 -47.5t-3 -43.5q0 -45 14 -81t44 -61.5t77.5 -39.5t114.5 -14h306v350q0 15 8.5 24.5t25.5 9.5q9 0 16.5 -2.5t11.5 -4.5v-435h-384q-89 0 -146.5 24.5t-90.5 62t-46 82t-13 84.5q0 58 12.5 79t30.5 21q17 0 33 -8zM370 700q0 21 14 35.5t34 14.5
t33.5 -14.5t13.5 -35.5t-13.5 -35.5t-33.5 -14.5t-34 14.5t-14 35.5zM443 570q0 21 14 35.5t34 14.5t33.5 -14.5t13.5 -35.5t-13.5 -35.5t-33.5 -14.5t-34 14.5t-14 35.5zM294 570q0 21 14 35.5t34 14.5t33.5 -14.5t13.5 -35.5t-13.5 -35.5t-33.5 -14.5t-34 14.5t-14 35.5z
" />
    <glyph glyph-name="uniFE96" unicode="&#x62a;" horiz-adv-x="872" arabic-form="final" 
d="M136 345q-8 -25 -11 -47.5t-3 -43.5q0 -45 14 -81t44 -61.5t77.5 -39.5t114.5 -14h306v350q0 15 8.5 24.5t25.5 9.5q9 0 16.5 -2.5t11.5 -4.5v-377h148v-58h-532q-89 0 -146.5 24.5t-90.5 62t-46 82t-13 84.5q0 58 12.5 79t30.5 21q17 0 33 -8zM295 570q0 21 14 35.5
t34 14.5t33.5 -14.5t13.5 -35.5t-13.5 -35.5t-33.5 -14.5t-34 14.5t-14 35.5zM444 570q0 21 14 35.5t34 14.5t33.5 -14.5t13.5 -35.5t-13.5 -35.5t-33.5 -14.5t-34 14.5t-14 35.5z" />
    <glyph glyph-name="uniFE98" unicode="&#x62a;" horiz-adv-x="346" arabic-form="medial" 
d="M171 76q-25 -42 -60 -59t-92 -17h-34v58h34q39 0 63 12t37 34.5t17 53.5t4 70v180q0 15 8 24.5t26 9.5q8 0 16.5 -2.5t11.5 -4.5v-208q0 -38 4 -69.5t17 -53.5t37 -34t63 -12h38v-58h-38q-58 0 -96.5 20.5t-55.5 55.5zM51 570q0 21 14 35.5t34 14.5t33.5 -14.5
t13.5 -35.5t-13.5 -35.5t-33.5 -14.5t-34 14.5t-14 35.5zM200 570q0 21 14 35.5t34 14.5t33.5 -14.5t13.5 -35.5t-13.5 -35.5t-33.5 -14.5t-34 14.5t-14 35.5z" />
    <glyph glyph-name="uniFE97" unicode="&#x62a;" horiz-adv-x="321" arabic-form="initial" 
d="M132 408q0 15 8 24.5t26 9.5q8 0 16.5 -2.5t11.5 -4.5v-435h-209v58h147v350zM42 570q0 21 14 35.5t34 14.5t33.5 -14.5t13.5 -35.5t-13.5 -35.5t-33.5 -14.5t-34 14.5t-14 35.5zM191 570q0 21 14 35.5t34 14.5t33.5 -14.5t13.5 -35.5t-13.5 -35.5t-33.5 -14.5t-34 14.5
t-14 35.5z" />
    <glyph glyph-name="uniFE95" unicode="&#x62a;" horiz-adv-x="810" arabic-form="isolated" 
d="M136 345q-8 -25 -11 -47.5t-3 -43.5q0 -45 14 -81t44 -61.5t77.5 -39.5t114.5 -14h306v350q0 15 8.5 24.5t25.5 9.5q9 0 16.5 -2.5t11.5 -4.5v-435h-384q-89 0 -146.5 24.5t-90.5 62t-46 82t-13 84.5q0 58 12.5 79t30.5 21q17 0 33 -8zM295 570q0 21 14 35.5t34 14.5
t33.5 -14.5t13.5 -35.5t-13.5 -35.5t-33.5 -14.5t-34 14.5t-14 35.5zM444 570q0 21 14 35.5t34 14.5t33.5 -14.5t13.5 -35.5t-13.5 -35.5t-33.5 -14.5t-34 14.5t-14 35.5z" />
    <glyph glyph-name="uniFE90" unicode="&#x628;" horiz-adv-x="873" arabic-form="final" 
d="M136 345q-8 -25 -11 -47.5t-3 -43.5q0 -45 14 -81t44 -61.5t77.5 -39.5t114.5 -14h306v350q0 15 8.5 24.5t25.5 9.5q9 0 16.5 -2.5t11.5 -4.5v-377h148v-58h-532q-89 0 -146.5 24.5t-90.5 62t-46 82t-13 84.5q0 58 12.5 79t30.5 21q17 0 33 -8zM387 -130q0 21 13.5 35.5
t33.5 14.5t34 -14.5t14 -35.5t-14 -35.5t-34 -14.5t-33.5 14.5t-13.5 35.5z" />
    <glyph glyph-name="uniFE92" unicode="&#x628;" horiz-adv-x="346" arabic-form="medial" 
d="M171 76q-25 -42 -60 -59t-92 -17h-34v58h34q39 0 63 12t37 34.5t17 53.5t4 70v180q0 15 8 24.5t26 9.5q8 0 16.5 -2.5t11.5 -4.5v-208q0 -38 4 -69.5t17 -53.5t37 -34t63 -12h38v-58h-38q-58 0 -96.5 20.5t-55.5 55.5zM125 -130q0 21 13.5 35.5t33.5 14.5t34 -14.5
t14 -35.5t-14 -35.5t-34 -14.5t-33.5 14.5t-13.5 35.5z" />
    <glyph glyph-name="uniFE91" unicode="&#x628;" horiz-adv-x="264" arabic-form="initial" 
d="M132 408q0 15 8 24.5t26 9.5q8 0 16.5 -2.5t11.5 -4.5v-435h-209v58h147v350zM60 -130q0 21 13.5 35.5t33.5 14.5t34 -14.5t14 -35.5t-14 -35.5t-34 -14.5t-33.5 14.5t-13.5 35.5z" />
    <glyph glyph-name="uniFE8F" unicode="&#x628;" horiz-adv-x="810" arabic-form="isolated" 
d="M136 345q-8 -25 -11 -47.5t-3 -43.5q0 -45 14 -81t44 -61.5t77.5 -39.5t114.5 -14h306v350q0 15 8.5 24.5t25.5 9.5q9 0 16.5 -2.5t11.5 -4.5v-435h-384q-89 0 -146.5 24.5t-90.5 62t-46 82t-13 84.5q0 58 12.5 79t30.5 21q17 0 33 -8zM387 -130q0 21 13.5 35.5
t33.5 14.5t34 -14.5t14 -35.5t-14 -35.5t-34 -14.5t-33.5 14.5t-13.5 35.5z" />
    <glyph glyph-name="uniFE8E" unicode="&#x627;" horiz-adv-x="274" arabic-form="final" 
d="M80 753q0 15 8 24.5t26 9.5q8 0 16 -2.5t12 -4.5v-722h147v-58h-209v753z" />
    <glyph glyph-name="uniFE8D" unicode="&#x627;" horiz-adv-x="222" arabic-form="isolated" 
d="M80 753q0 15 8 24.5t26 9.5q8 0 16.5 -2.5t11.5 -4.5v-780h-62v753z" />
    <glyph glyph-name="uniFEAE" unicode="&#x631;" horiz-adv-x="413" arabic-form="final" 
d="M199 408q0 15 8 24.5t26 9.5q8 0 16.5 -2.5t11.5 -4.5v-377h167v-58h-167v-64q0 -48 -13.5 -80t-35.5 -51t-50 -27t-57 -8q-32 0 -57 6.5t-38 11.5l17 52q11 -5 29 -9.5t44 -4.5q17 0 34.5 3t32 14.5t23.5 32.5t9 57v475z" />
    <glyph glyph-name="uniFEAD" unicode="&#x631;" horiz-adv-x="341" arabic-form="isolated" 
d="M199 408q0 15 8 24.5t26 9.5q8 0 16.5 -2.5t11.5 -4.5v-499q0 -48 -13.5 -80t-35.5 -51t-50 -27t-57 -8q-32 0 -57 6.5t-38 11.5l17 52q11 -5 29 -9.5t44 -4.5q17 0 34.5 3t32 14.5t23.5 32.5t9 57v475z" />
    <glyph glyph-name="uniFEAC" unicode="&#x630;" horiz-adv-x="661" arabic-form="final" 
d="M480 132q0 74 -20.5 122.5t-53.5 77.5t-74.5 40.5t-82.5 11.5q-35 0 -67 -7.5t-57 -21.5q-10 10 -13 18.5t-3 16.5q0 12 10.5 21.5t29 16t43 10.5t53.5 4q48 0 100 -13.5t96 -46.5t72.5 -89.5t28.5 -143.5v-91h134v-58h-626v58h430v74zM236 570q0 21 14 35.5t34 14.5
t33.5 -14.5t13.5 -35.5t-13.5 -35.5t-33.5 -14.5t-34 14.5t-14 35.5z" />
    <glyph glyph-name="uniFEAB" unicode="&#x630;" horiz-adv-x="602" arabic-form="isolated" 
d="M480 132q0 74 -20.5 122.5t-53.5 77.5t-74.5 40.5t-82.5 11.5q-35 0 -67 -7.5t-57 -21.5q-10 10 -13 18.5t-3 16.5q0 12 10.5 21.5t29 16t43 10.5t53.5 4q48 0 100 -13.5t96 -46.5t72.5 -89.5t28.5 -143.5v-149h-492v58h430v74zM236 570q0 21 14 35.5t34 14.5t33.5 -14.5
t13.5 -35.5t-13.5 -35.5t-33.5 -14.5t-34 14.5t-14 35.5z" />
    <glyph glyph-name="uniFEAA" unicode="&#x62f;" horiz-adv-x="661" arabic-form="final" 
d="M480 132q0 74 -20.5 122.5t-53.5 77.5t-74.5 40.5t-82.5 11.5q-35 0 -67 -7.5t-57 -21.5q-10 10 -13 18.5t-3 16.5q0 12 10.5 21.5t29 16t43 10.5t53.5 4q48 0 100 -13.5t96 -46.5t72.5 -89.5t28.5 -143.5v-91h134v-58h-626v58h430v74z" />
    <glyph glyph-name="uniFEA9" unicode="&#x62f;" horiz-adv-x="602" arabic-form="isolated" 
d="M480 132q0 74 -20.5 122.5t-53.5 77.5t-74.5 40.5t-82.5 11.5q-35 0 -67 -7.5t-57 -21.5q-10 10 -13 18.5t-3 16.5q0 12 10.5 21.5t29 16t43 10.5t53.5 4q48 0 100 -13.5t96 -46.5t72.5 -89.5t28.5 -143.5v-149h-492v58h430v74z" />
    <glyph glyph-name="uniFEA6" unicode="&#x62e;" horiz-adv-x="650" arabic-form="final" 
d="M205 442q41 0 79 -18.5t72.5 -49.5t65 -71t56.5 -82.5t47.5 -85t37.5 -77.5h102v-58h-343q-215 0 -215 -182q0 -47 17 -80t46.5 -55t68 -32t80.5 -10q108 0 211 59l29 -47q-44 -28 -108.5 -48t-132.5 -20q-53 0 -103 12.5t-89 40.5t-62.5 72.5t-23.5 108.5
q0 112 68 175.5t202 63.5h185q-41 77 -77.5 137.5t-72 102.5t-71.5 64t-75 22q-35 0 -57 -12q-15 16 -15 31q0 17 21 28t57 11zM165 551q0 21 14 35.5t34 14.5t33.5 -14.5t13.5 -35.5t-13.5 -35.5t-33.5 -14.5t-34 14.5t-14 35.5z" />
    <glyph glyph-name="uniFEA8" unicode="&#x62e;" horiz-adv-x="559" arabic-form="medial" 
d="M419 58q-32 58 -65.5 112t-62.5 89q-26 31 -48.5 54.5t-44.5 39t-43.5 23.5t-46.5 8q-35 0 -57 -12q-15 16 -15 31q0 17 24.5 28t60.5 11q33 0 63 -12t58.5 -33t55 -49.5t52.5 -61.5q21 -26 40.5 -56t37.5 -60.5l33.5 -59l27.5 -52.5h85v-58h-589v58h434zM75 551
q0 21 14 35.5t34 14.5t33.5 -14.5t13.5 -35.5t-13.5 -35.5t-33.5 -14.5t-34 14.5t-14 35.5z" />
    <glyph glyph-name="uniFEA7" unicode="&#x62e;" horiz-adv-x="534" arabic-form="initial" 
d="M412 58q-32 58 -65.5 112t-62.5 89q-26 31 -48.5 54.5t-44.5 39t-43.5 23.5t-46.5 8q-35 0 -57 -12q-15 16 -15 31q0 17 24.5 28t60.5 11q33 0 63 -12t58.5 -33t55 -49.5t52.5 -61.5q21 -26 41 -56.5t38.5 -62t34 -61l27.5 -53.5v-53h-499v58h427zM68 551q0 21 14 35.5
t34 14.5t33.5 -14.5t13.5 -35.5t-13.5 -35.5t-33.5 -14.5t-34 14.5t-14 35.5z" />
    <glyph glyph-name="uniFEA5" unicode="&#x62e;" horiz-adv-x="613" arabic-form="isolated" 
d="M205 442q41 0 79 -18.5t72.5 -49.5t65 -71t56.5 -82.5t47.5 -85t37.5 -77.5v-58h-241q-215 0 -215 -182q0 -47 17 -80t46.5 -55t68 -32t80.5 -10q108 0 211 59l29 -47q-44 -28 -108.5 -48t-132.5 -20q-53 0 -103 12.5t-89 40.5t-62.5 72.5t-23.5 108.5q0 112 68 175.5
t202 63.5h185q-41 77 -77.5 137.5t-72 102.5t-71.5 64t-75 22q-35 0 -57 -12q-15 16 -15 31q0 17 21 28t57 11zM166 551q0 21 14 35.5t34 14.5t33.5 -14.5t13.5 -35.5t-13.5 -35.5t-33.5 -14.5t-34 14.5t-14 35.5z" />
    <glyph glyph-name="uniFEA2" unicode="&#x62d;" horiz-adv-x="650" arabic-form="final" 
d="M205 442q41 0 79 -18.5t72.5 -49.5t65 -71t56.5 -82.5t47.5 -85t37.5 -77.5h102v-58h-343q-215 0 -215 -182q0 -47 17 -80t46.5 -55t68 -32t80.5 -10q108 0 211 59l29 -47q-44 -28 -108.5 -48t-132.5 -20q-53 0 -103 12.5t-89 40.5t-62.5 72.5t-23.5 108.5
q0 112 68 175.5t202 63.5h185q-41 77 -77.5 137.5t-72 102.5t-71.5 64t-75 22q-35 0 -57 -12q-15 16 -15 31q0 17 21 28t57 11z" />
    <glyph glyph-name="uniFEA4" unicode="&#x62d;" horiz-adv-x="559" arabic-form="medial" 
d="M419 58q-32 58 -65.5 112t-62.5 89q-26 31 -48.5 54.5t-44.5 39t-43.5 23.5t-46.5 8q-35 0 -57 -12q-15 16 -15 31q0 17 24.5 28t60.5 11q33 0 63 -12t58.5 -33t55 -49.5t52.5 -61.5q21 -26 40.5 -56t37.5 -60.5l33.5 -59l27.5 -52.5h85v-58h-589v58h434z" />
    <glyph glyph-name="uniFEA3" unicode="&#x62d;" horiz-adv-x="534" arabic-form="initial" 
d="M412 58q-32 58 -65.5 112t-62.5 89q-26 31 -48.5 54.5t-44.5 39t-43.5 23.5t-46.5 8q-35 0 -57 -12q-15 16 -15 31q0 17 24.5 28t60.5 11q33 0 63 -12t58.5 -33t55 -49.5t52.5 -61.5q21 -26 41 -56.5t38.5 -62t34 -61l27.5 -53.5v-53h-499v58h427z" />
    <glyph glyph-name="uniFEA1" unicode="&#x62d;" horiz-adv-x="613" arabic-form="isolated" 
d="M205 442q41 0 79 -18.5t72.5 -49.5t65 -71t56.5 -82.5t47.5 -85t37.5 -77.5v-58h-241q-215 0 -215 -182q0 -47 17 -80t46.5 -55t68 -32t80.5 -10q108 0 211 59l29 -47q-44 -28 -108.5 -48t-132.5 -20q-53 0 -103 12.5t-89 40.5t-62.5 72.5t-23.5 108.5q0 112 68 175.5
t202 63.5h185q-41 77 -77.5 137.5t-72 102.5t-71.5 64t-75 22q-35 0 -57 -12q-15 16 -15 31q0 17 21 28t57 11z" />
    <glyph glyph-name="uniFEBE" unicode="&#x636;" horiz-adv-x="1176" arabic-form="final" 
d="M540 0q-29 -228 -246 -228q-75 0 -124 24t-78 62.5t-40.5 85.5t-11.5 93q0 24 3.5 65t15.5 77q5 15 13.5 23t23.5 8q7 0 16.5 -2t16.5 -6q-13 -40 -20 -80t-7 -78q0 -47 10 -87t33 -69t59.5 -45t90.5 -16q37 0 71 9.5t60.5 37t42.5 77.5t16 132v325q0 15 8 24.5t26 9.5
q8 0 16.5 -2.5t11.5 -4.5v-165q16 44 43.5 76.5t61.5 53.5t73 31.5t80 10.5t85.5 -12t82 -43t61.5 -85t24 -137v-107h133v-58h-651zM996 58v97q0 120 -50.5 174.5t-143.5 54.5q-60 0 -107.5 -25.5t-80.5 -69.5t-50 -103.5t-17 -127.5h449zM761 570q0 21 14 35.5t34 14.5
t33.5 -14.5t13.5 -35.5t-13.5 -35.5t-33.5 -14.5t-34 14.5t-14 35.5z" />
    <glyph glyph-name="uniFEC0" unicode="&#x636;" horiz-adv-x="824" arabic-form="medial" 
d="M-15 0v58h148v350q0 15 8 24.5t26 9.5q8 0 16.5 -2.5t11.5 -4.5v-165q16 44 43.5 76.5t61.5 53.5t73 31.5t80 10.5t85.5 -12t82 -43t61.5 -85t24 -137v-107h133v-58h-854zM644 58v97q0 120 -50.5 174.5t-143.5 54.5q-60 0 -107.5 -25.5t-80.5 -69.5t-50 -103.5
t-17 -127.5h449zM407 570q0 21 14 35.5t34 14.5t33.5 -14.5t13.5 -35.5t-13.5 -35.5t-33.5 -14.5t-34 14.5t-14 35.5z" />
    <glyph glyph-name="uniFEBF" unicode="&#x636;" horiz-adv-x="766" arabic-form="initial" 
d="M133 58v350q0 15 8 24.5t26 9.5q8 0 16.5 -2.5t11.5 -4.5v-165q16 44 43.5 76.5t61.5 53.5t73 31.5t80 10.5t85.5 -12t82 -43t61.5 -85t24 -137v-165h-721v58h148zM644 58v97q0 120 -50.5 174.5t-143.5 54.5q-60 0 -107.5 -25.5t-80.5 -69.5t-50 -103.5t-17 -127.5h449z
M406 570q0 21 14 35.5t34 14.5t33.5 -14.5t13.5 -35.5t-13.5 -35.5t-33.5 -14.5t-34 14.5t-14 35.5z" />
    <glyph glyph-name="uniFEBD" unicode="&#x636;" horiz-adv-x="1118" arabic-form="isolated" 
d="M485 408q0 15 8 24.5t26 9.5q8 0 16.5 -2.5t11.5 -4.5v-165q16 44 43.5 76.5t61.5 53.5t73 31.5t80 10.5t85.5 -12t82 -43t61.5 -85t24 -137v-165h-518q-29 -228 -246 -228q-75 0 -124 24t-78 62.5t-40.5 85.5t-11.5 93q0 24 3.5 65t15.5 77q5 15 13.5 23t23.5 8
q7 0 16.5 -2t16.5 -6q-13 -40 -20 -80t-7 -78q0 -47 10 -87t33 -69t59.5 -45t90.5 -16q37 0 71 9.5t60.5 37t42.5 77.5t16 132v325zM996 58v97q0 120 -50.5 174.5t-143.5 54.5q-60 0 -107.5 -25.5t-80.5 -69.5t-50 -103.5t-17 -127.5h449zM751 570q0 21 14 35.5t34 14.5
t33.5 -14.5t13.5 -35.5t-13.5 -35.5t-33.5 -14.5t-34 14.5t-14 35.5z" />
    <glyph glyph-name="uniFEBA" unicode="&#x635;" horiz-adv-x="1176" arabic-form="final" 
d="M540 0q-29 -228 -246 -228q-75 0 -124 24t-78 62.5t-40.5 85.5t-11.5 93q0 24 3.5 65t15.5 77q5 15 13.5 23t23.5 8q7 0 16.5 -2t16.5 -6q-13 -40 -20 -80t-7 -78q0 -47 10 -87t33 -69t59.5 -45t90.5 -16q37 0 71 9.5t60.5 37t42.5 77.5t16 132v325q0 15 8 24.5t26 9.5
q8 0 16.5 -2.5t11.5 -4.5v-165q16 44 43.5 76.5t61.5 53.5t73 31.5t80 10.5t85.5 -12t82 -43t61.5 -85t24 -137v-107h133v-58h-651zM996 58v97q0 120 -50.5 174.5t-143.5 54.5q-60 0 -107.5 -25.5t-80.5 -69.5t-50 -103.5t-17 -127.5h449z" />
    <glyph glyph-name="uniFEBC" unicode="&#x635;" horiz-adv-x="824" arabic-form="medial" 
d="M-15 0v58h148v350q0 15 8 24.5t26 9.5q8 0 16.5 -2.5t11.5 -4.5v-165q16 44 43.5 76.5t61.5 53.5t73 31.5t80 10.5t85.5 -12t82 -43t61.5 -85t24 -137v-107h133v-58h-854zM644 58v97q0 120 -50.5 174.5t-143.5 54.5q-60 0 -107.5 -25.5t-80.5 -69.5t-50 -103.5
t-17 -127.5h449z" />
    <glyph glyph-name="uniFEBB" unicode="&#x635;" horiz-adv-x="766" arabic-form="initial" 
d="M133 58v350q0 15 8 24.5t26 9.5q8 0 16.5 -2.5t11.5 -4.5v-165q16 44 43.5 76.5t61.5 53.5t73 31.5t80 10.5t85.5 -12t82 -43t61.5 -85t24 -137v-165h-721v58h148zM644 58v97q0 120 -50.5 174.5t-143.5 54.5q-60 0 -107.5 -25.5t-80.5 -69.5t-50 -103.5t-17 -127.5h449z
" />
    <glyph glyph-name="uniFEB9" unicode="&#x635;" horiz-adv-x="1118" arabic-form="isolated" 
d="M485 408q0 15 8 24.5t26 9.5q8 0 16.5 -2.5t11.5 -4.5v-165q16 44 43.5 76.5t61.5 53.5t73 31.5t80 10.5t85.5 -12t82 -43t61.5 -85t24 -137v-165h-518q-29 -228 -246 -228q-75 0 -124 24t-78 62.5t-40.5 85.5t-11.5 93q0 24 3.5 65t15.5 77q5 15 13.5 23t23.5 8
q7 0 16.5 -2t16.5 -6q-13 -40 -20 -80t-7 -78q0 -47 10 -87t33 -69t59.5 -45t90.5 -16q37 0 71 9.5t60.5 37t42.5 77.5t16 132v325zM996 58v97q0 120 -50.5 174.5t-143.5 54.5q-60 0 -107.5 -25.5t-80.5 -69.5t-50 -103.5t-17 -127.5h449z" />
    <glyph glyph-name="uniFEB6" unicode="&#x634;" horiz-adv-x="1242" arabic-form="final" 
d="M649 -8q-28 0 -57 10t-49 35q-6 -127 -68 -196.5t-181 -69.5q-75 0 -124 24t-78 62t-40.5 85.5t-11.5 94.5q0 24 3.5 65t15.5 77q5 15 13.5 23t23.5 8q7 0 16.5 -2t16.5 -6q-13 -40 -20 -80t-7 -78q0 -47 10 -87t33 -69t59.5 -45.5t90.5 -16.5q38 0 72.5 9.5t60.5 37.5
t41.5 78.5t15.5 132.5v324q0 15 8 24.5t26 9.5q8 0 16 -2.5t12 -4.5v-208q0 -41 3.5 -74t14 -56t30.5 -35t53 -12q36 0 57.5 13.5t33.5 37.5t16 56.5t4 70.5v180q0 15 8 24.5t26 9.5q8 0 16.5 -2.5t11.5 -4.5v-208q0 -38 3 -70.5t14.5 -56t33.5 -37t60 -13.5q33 0 53 12
t30.5 35t14 56t3.5 74v181q0 15 8 24.5t26 9.5q8 0 16.5 -2.5t11.5 -4.5v-208q0 -41 5.5 -72.5t19 -53t37 -32.5t59.5 -11h41v-58h-41q-58 0 -94 22t-53 57q-20 -42 -51.5 -64.5t-85.5 -22.5q-56 0 -90.5 24.5t-51.5 59.5q-47 -84 -141 -84zM734 700q0 21 14 35.5t34 14.5
t33.5 -14.5t13.5 -35.5t-13.5 -35.5t-33.5 -14.5t-34 14.5t-14 35.5zM807 570q0 21 14 35.5t34 14.5t33.5 -14.5t13.5 -35.5t-13.5 -35.5t-33.5 -14.5t-34 14.5t-14 35.5zM658 570q0 21 14 35.5t34 14.5t33.5 -14.5t13.5 -35.5t-13.5 -35.5t-33.5 -14.5t-34 14.5t-14 35.5z
" />
    <glyph glyph-name="uniFEB8" unicode="&#x634;" horiz-adv-x="904" arabic-form="medial" 
d="M594 -8q-56 0 -90.5 24.5t-51.5 59.5q-47 -84 -141 -84q-14 0 -33 2.5t-38.5 11.5t-37.5 26t-30 46q-17 -38 -52.5 -58t-92.5 -20h-42v58h42q36 0 59 13t36.5 35.5t19 53.5t5.5 67v181q0 15 8 24.5t26 9.5q8 0 16 -2.5t12 -4.5v-208q0 -41 3.5 -74t14 -56t30.5 -35
t53 -12q36 0 57.5 13.5t33.5 37.5t16 56.5t4 70.5v180q0 15 8 24.5t26 9.5q8 0 16.5 -2.5t11.5 -4.5v-208q0 -38 3 -70.5t14.5 -56t33.5 -37t60 -13.5q33 0 53 12t30.5 35t14 56t3.5 74v181q0 15 8 24.5t26 9.5q8 0 16.5 -2.5t11.5 -4.5v-208q0 -41 5.5 -72.5t19 -53
t37 -32.5t59.5 -11h41v-58h-41q-58 0 -94 22t-53 57q-20 -42 -51.5 -64.5t-85.5 -22.5zM395 700q0 21 14 35.5t34 14.5t33.5 -14.5t13.5 -35.5t-13.5 -35.5t-33.5 -14.5t-34 14.5t-14 35.5zM468 570q0 21 14 35.5t34 14.5t33.5 -14.5t13.5 -35.5t-13.5 -35.5t-33.5 -14.5
t-34 14.5t-14 35.5zM319 570q0 21 14 35.5t34 14.5t33.5 -14.5t13.5 -35.5t-13.5 -35.5t-33.5 -14.5t-34 14.5t-14 35.5z" />
    <glyph glyph-name="uniFEB7" unicode="&#x634;" horiz-adv-x="827" arabic-form="initial" 
d="M172 78q-17 -38 -52.5 -58t-92.5 -20h-42v58h42q36 0 59 13t36.5 35.5t19 53.5t5.5 67v181q0 15 8 24.5t26 9.5q8 0 16 -2.5t12 -4.5v-208q0 -41 3.5 -74t14 -56t30.5 -35t53 -12q36 0 57.5 13.5t33.5 37.5t16 56.5t4 70.5v180q0 15 8 24.5t26 9.5q8 0 16.5 -2.5
t11.5 -4.5v-208q0 -38 4 -69.5t16 -53.5t34.5 -34t60.5 -12h97v350q0 15 8 24.5t26 9.5q8 0 16 -2.5t12 -4.5v-435h-159q-56 0 -92.5 20.5t-53.5 55.5q-47 -84 -141 -84q-14 0 -33 2.5t-38.5 11.5t-37.5 26t-30 46zM394 700q0 21 14 35.5t34 14.5t33.5 -14.5t13.5 -35.5
t-13.5 -35.5t-33.5 -14.5t-34 14.5t-14 35.5zM467 570q0 21 14 35.5t34 14.5t33.5 -14.5t13.5 -35.5t-13.5 -35.5t-33.5 -14.5t-34 14.5t-14 35.5zM318 570q0 21 14 35.5t34 14.5t33.5 -14.5t13.5 -35.5t-13.5 -35.5t-33.5 -14.5t-34 14.5t-14 35.5z" />
    <glyph glyph-name="uniFEB5" unicode="&#x634;" horiz-adv-x="1165" arabic-form="isolated" 
d="M648 50q36 0 57.5 13.5t33.5 37.5t16 56.5t4 70.5v180q0 15 8 24.5t26 9.5q8 0 16.5 -2.5t11.5 -4.5v-208q0 -38 4 -69.5t16 -53.5t34.5 -34t60.5 -12h97v350q0 15 8 24.5t26 9.5q8 0 16 -2.5t12 -4.5v-435h-159q-57 0 -93 20.5t-53 55.5q-47 -84 -141 -84q-28 0 -57 10
t-49 35q-6 -127 -68 -196.5t-181 -69.5q-75 0 -124 24t-78 62t-40.5 85.5t-11.5 94.5q0 24 3.5 65t15.5 77q5 15 13.5 23t23.5 8q7 0 16.5 -2t16.5 -6q-13 -40 -20 -80t-7 -78q0 -47 10 -87t33 -69t59.5 -45.5t90.5 -16.5q38 0 72.5 9.5t60.5 37.5t41.5 78.5t15.5 132.5v324
q0 15 8 24.5t26 9.5q8 0 16 -2.5t12 -4.5v-208q0 -41 3.5 -74t14 -56t30.5 -35t53 -12zM732 700q0 21 14 35.5t34 14.5t33.5 -14.5t13.5 -35.5t-13.5 -35.5t-33.5 -14.5t-34 14.5t-14 35.5zM805 570q0 21 14 35.5t34 14.5t33.5 -14.5t13.5 -35.5t-13.5 -35.5t-33.5 -14.5
t-34 14.5t-14 35.5zM656 570q0 21 14 35.5t34 14.5t33.5 -14.5t13.5 -35.5t-13.5 -35.5t-33.5 -14.5t-34 14.5t-14 35.5z" />
    <glyph glyph-name="uniFEB2" unicode="&#x633;" horiz-adv-x="1242" arabic-form="final" 
d="M649 -8q-28 0 -57 10t-49 35q-6 -127 -68 -196.5t-181 -69.5q-75 0 -124 24t-78 62t-40.5 85.5t-11.5 94.5q0 24 3.5 65t15.5 77q5 15 13.5 23t23.5 8q7 0 16.5 -2t16.5 -6q-13 -40 -20 -80t-7 -78q0 -47 10 -87t33 -69t59.5 -45.5t90.5 -16.5q38 0 72.5 9.5t60.5 37.5
t41.5 78.5t15.5 132.5v324q0 15 8 24.5t26 9.5q8 0 16 -2.5t12 -4.5v-208q0 -41 3.5 -74t14 -56t30.5 -35t53 -12q36 0 57.5 13.5t33.5 37.5t16 56.5t4 70.5v180q0 15 8 24.5t26 9.5q8 0 16.5 -2.5t11.5 -4.5v-208q0 -38 3 -70.5t14.5 -56t33.5 -37t60 -13.5q33 0 53 12
t30.5 35t14 56t3.5 74v181q0 15 8 24.5t26 9.5q8 0 16.5 -2.5t11.5 -4.5v-208q0 -41 5.5 -72.5t19 -53t37 -32.5t59.5 -11h41v-58h-41q-58 0 -94 22t-53 57q-20 -42 -51.5 -64.5t-85.5 -22.5q-56 0 -90.5 24.5t-51.5 59.5q-47 -84 -141 -84z" />
    <glyph glyph-name="uniFEB4" unicode="&#x633;" horiz-adv-x="904" arabic-form="medial" 
d="M594 -8q-56 0 -90.5 24.5t-51.5 59.5q-47 -84 -141 -84q-14 0 -33 2.5t-38.5 11.5t-37.5 26t-30 46q-17 -38 -52.5 -58t-92.5 -20h-42v58h42q36 0 59 13t36.5 35.5t19 53.5t5.5 67v181q0 15 8 24.5t26 9.5q8 0 16 -2.5t12 -4.5v-208q0 -41 3.5 -74t14 -56t30.5 -35
t53 -12q36 0 57.5 13.5t33.5 37.5t16 56.5t4 70.5v180q0 15 8 24.5t26 9.5q8 0 16.5 -2.5t11.5 -4.5v-208q0 -38 3 -70.5t14.5 -56t33.5 -37t60 -13.5q33 0 53 12t30.5 35t14 56t3.5 74v181q0 15 8 24.5t26 9.5q8 0 16.5 -2.5t11.5 -4.5v-208q0 -41 5.5 -72.5t19 -53
t37 -32.5t59.5 -11h41v-58h-41q-58 0 -94 22t-53 57q-20 -42 -51.5 -64.5t-85.5 -22.5z" />
    <glyph glyph-name="uniFEB3" unicode="&#x633;" horiz-adv-x="827" arabic-form="initial" 
d="M172 78q-17 -38 -52.5 -58t-92.5 -20h-42v58h42q36 0 59 13t36.5 35.5t19 53.5t5.5 67v181q0 15 8 24.5t26 9.5q8 0 16 -2.5t12 -4.5v-208q0 -41 3.5 -74t14 -56t30.5 -35t53 -12q36 0 57.5 13.5t33.5 37.5t16 56.5t4 70.5v180q0 15 8 24.5t26 9.5q8 0 16.5 -2.5
t11.5 -4.5v-208q0 -38 4 -69.5t16 -53.5t34.5 -34t60.5 -12h97v350q0 15 8 24.5t26 9.5q8 0 16 -2.5t12 -4.5v-435h-159q-56 0 -92.5 20.5t-53.5 55.5q-47 -84 -141 -84q-14 0 -33 2.5t-38.5 11.5t-37.5 26t-30 46z" />
    <glyph glyph-name="uniFEB1" unicode="&#x633;" horiz-adv-x="1165" arabic-form="isolated" 
d="M648 50q36 0 57.5 13.5t33.5 37.5t16 56.5t4 70.5v180q0 15 8 24.5t26 9.5q8 0 16.5 -2.5t11.5 -4.5v-208q0 -38 4 -69.5t16 -53.5t34.5 -34t60.5 -12h97v350q0 15 8 24.5t26 9.5q8 0 16 -2.5t12 -4.5v-435h-159q-57 0 -93 20.5t-53 55.5q-47 -84 -141 -84q-28 0 -57 10
t-49 35q-6 -127 -68 -196.5t-181 -69.5q-75 0 -124 24t-78 62t-40.5 85.5t-11.5 94.5q0 24 3.5 65t15.5 77q5 15 13.5 23t23.5 8q7 0 16.5 -2t16.5 -6q-13 -40 -20 -80t-7 -78q0 -47 10 -87t33 -69t59.5 -45.5t90.5 -16.5q38 0 72.5 9.5t60.5 37.5t41.5 78.5t15.5 132.5v324
q0 15 8 24.5t26 9.5q8 0 16 -2.5t12 -4.5v-208q0 -41 3.5 -74t14 -56t30.5 -35t53 -12z" />
    <glyph glyph-name="uniFEB0" unicode="&#x632;" horiz-adv-x="413" arabic-form="final" 
d="M199 408q0 15 8 24.5t26 9.5q8 0 16.5 -2.5t11.5 -4.5v-377h167v-58h-167v-64q0 -48 -13.5 -80t-35.5 -51t-50 -27t-57 -8q-32 0 -57 6.5t-38 11.5l17 52q11 -5 29 -9.5t44 -4.5q17 0 34.5 3t32 14.5t23.5 32.5t9 57v475zM186 570q0 21 14 35.5t34 14.5t33.5 -14.5
t13.5 -35.5t-13.5 -35.5t-33.5 -14.5t-34 14.5t-14 35.5z" />
    <glyph glyph-name="uniFEAF" unicode="&#x632;" horiz-adv-x="361" arabic-form="isolated" 
d="M199 408q0 15 8 24.5t26 9.5q8 0 16.5 -2.5t11.5 -4.5v-499q0 -48 -13.5 -80t-35.5 -51t-50 -27t-57 -8q-32 0 -57 6.5t-38 11.5l17 52q11 -5 29 -9.5t44 -4.5q17 0 34.5 3t32 14.5t23.5 32.5t9 57v475zM186 570q0 21 14 35.5t34 14.5t33.5 -14.5t13.5 -35.5t-13.5 -35.5
t-33.5 -14.5t-34 14.5t-14 35.5z" />
    <glyph glyph-name="uniFED2" unicode="&#x641;" horiz-adv-x="1006" arabic-form="final" 
d="M1021 0h-685q-89 0 -146.5 24.5t-90.5 62t-46 82t-13 84.5q0 58 12.5 79t30.5 21q17 0 33 -8q-8 -25 -11 -47.5t-3 -43.5q0 -45 14 -81t44 -61.5t77.5 -39.5t114.5 -14h182q-32 28 -50 67.5t-18 90.5q0 55 16 97.5t44.5 71t67.5 43t84 14.5q47 0 85.5 -16t66.5 -45
t43 -71t15 -94v-158h133v-58zM826 206q0 45 -11 78t-30.5 55.5t-47 33.5t-59.5 11q-65 0 -105.5 -39t-40.5 -129q0 -33 10 -61.5t28.5 -50t45.5 -34t62 -12.5h148v148zM633 570q0 21 14 35.5t34 14.5t33.5 -14.5t13.5 -35.5t-13.5 -35.5t-33.5 -14.5t-34 14.5t-14 35.5z" />
    <glyph glyph-name="uniFED4" unicode="&#x641;" horiz-adv-x="635" arabic-form="medial" 
d="M-15 58h189q-34 32 -50.5 73t-16.5 87q0 43 14 83t41 71.5t66 50.5t89 19q52 0 92 -17t66 -46.5t39.5 -69t13.5 -84.5q0 -48 -16.5 -90t-51.5 -77h190v-58h-665v58zM463 221q0 85 -40 124t-106 39q-36 0 -63 -13t-45 -35.5t-27 -52.5t-9 -64q0 -32 9 -61t27 -52t45 -36.5
t63 -13.5q66 0 106 43.5t40 121.5zM268 570q0 21 14 35.5t34 14.5t33.5 -14.5t13.5 -35.5t-13.5 -35.5t-33.5 -14.5t-34 14.5t-14 35.5z" />
    <glyph glyph-name="uniFED3" unicode="&#x641;" horiz-adv-x="589" arabic-form="initial" 
d="M529 0h-544v58h190q-32 28 -50 67.5t-18 90.5q0 55 16 97.5t44.5 71t67.5 43t84 14.5q47 0 85.5 -16t66.5 -45t43 -71t15 -94v-216zM467 206q0 45 -11 78t-30.5 55.5t-47 33.5t-59.5 11q-65 0 -105.5 -39t-40.5 -129q0 -33 10 -61.5t28.5 -50t45.5 -34t62 -12.5h148v148z
M274 570q0 21 14 35.5t34 14.5t33.5 -14.5t13.5 -35.5t-13.5 -35.5t-33.5 -14.5t-34 14.5t-14 35.5z" />
    <glyph glyph-name="uniFED1" unicode="&#x641;" horiz-adv-x="948" arabic-form="isolated" 
d="M888 0h-552q-89 0 -146.5 24.5t-90.5 62t-46 82t-13 84.5q0 58 12.5 79t30.5 21q17 0 33 -8q-8 -25 -11 -47.5t-3 -43.5q0 -45 14 -81t44 -61.5t77.5 -39.5t114.5 -14h182q-32 28 -50 67.5t-18 90.5q0 55 16 97.5t44.5 71t67.5 43t84 14.5q47 0 85.5 -16t66.5 -45t43 -71
t15 -94v-216zM826 206q0 45 -11 78t-30.5 55.5t-47 33.5t-59.5 11q-65 0 -105.5 -39t-40.5 -129q0 -33 10 -61.5t28.5 -50t45.5 -34t62 -12.5h148v148zM634 570q0 21 14 35.5t34 14.5t33.5 -14.5t13.5 -35.5t-13.5 -35.5t-33.5 -14.5t-34 14.5t-14 35.5z" />
    <glyph glyph-name="uniFECE" unicode="&#x63a;" horiz-adv-x="603" arabic-form="final" 
d="M86 -221q0 72 31.5 127t82.5 104l19 19q-40 36 -70 80.5t-49.5 89.5t-29.5 85t-10 67q0 29 16.5 42t49.5 24q33 10 67 17.5t84 7.5q51 0 85 -7t66 -18q34 -11 50.5 -24t16.5 -42t-10 -66t-28 -77t-43.5 -79t-55.5 -71h260v-58h-348q-28 -26 -50 -50t-37 -49.5t-23 -54.5
t-8 -64q0 -74 49 -107t133 -33q37 0 67 5.5t54.5 13.5t44.5 18l37 19l24 -48q-17 -10 -40 -21t-52 -20.5t-63.5 -15.5t-74.5 -6q-119 0 -182 50.5t-63 141.5zM119 352q7 -38 20 -78.5t32.5 -79t46 -73.5t59.5 -63q64 57 102 129t57 165q-35 14 -76.5 23t-82.5 9t-82.5 -9
t-75.5 -23zM234 570q0 21 14 35.5t34 14.5t33.5 -14.5t13.5 -35.5t-13.5 -35.5t-33.5 -14.5t-34 14.5t-14 35.5z" />
    <glyph glyph-name="uniFED0" unicode="&#x63a;" arabic-form="medial" 
d="M485 352q-35 14 -76.5 23t-82.5 9t-82.5 -9t-76.5 -23q7 -40 19.5 -81t31.5 -79.5t45.5 -73t62.5 -61.5q34 24 60.5 57.5t45.5 72.5t32 81t21 84zM544 351q0 -24 -8.5 -60.5t-25.5 -77.5t-41.5 -81.5t-56.5 -73.5h255v-58h-682v58h255q-32 33 -57 73.5t-41.5 81.5
t-25 77.5t-8.5 60.5q0 29 16.5 42t50.5 24q33 10 67 17.5t84 7.5t84 -7.5t67 -17.5q34 -11 50.5 -24t16.5 -42zM279 570q0 21 14 35.5t34 14.5t33.5 -14.5t13.5 -35.5t-13.5 -35.5t-33.5 -14.5t-34 14.5t-14 35.5z" />
    <glyph glyph-name="uniFECF" unicode="&#x63a;" horiz-adv-x="568" arabic-form="initial" 
d="M315 442q31 0 55.5 -4.5t42 -11t28 -13t14.5 -10.5q7 -5 11.5 -12.5t4.5 -18.5q0 -8 -5 -19t-16 -19q-17 15 -48.5 32.5t-84.5 17.5q-37 0 -64 -12t-44.5 -32t-26 -46.5t-8.5 -55.5q0 -34 11 -66t32 -57.5t51.5 -41t70.5 -15.5h169v-58h-523v58h215q-47 34 -69.5 80.5
t-22.5 98.5q0 41 13.5 78.5t39.5 65.5t64.5 44.5t89.5 16.5zM259 570q0 21 14 35.5t34 14.5t33.5 -14.5t13.5 -35.5t-13.5 -35.5t-33.5 -14.5t-34 14.5t-14 35.5z" />
    <glyph glyph-name="uniFECD" unicode="&#x63a;" horiz-adv-x="558" arabic-form="isolated" 
d="M437 159q17 0 25 -9.5t8 -24.5q0 -5 -2 -15q-101 -8 -168.5 -35.5t-108.5 -66t-58 -83.5t-17 -88q0 -44 15.5 -80t44 -61.5t68.5 -39.5t88 -14q60 0 108.5 16.5t82.5 34.5l25 -48q-18 -10 -41.5 -20.5t-52 -18.5t-61 -13.5t-67.5 -5.5q-65 0 -116 19t-86.5 52t-54.5 78
t-19 98q0 46 11.5 84.5t32 70t48 56.5t59.5 45q-49 34 -72.5 80t-23.5 94q0 35 12.5 67t37 57t60.5 39.5t83 14.5q23 0 50.5 -4.5t51 -13t39 -21.5t15.5 -31q0 -8 -5.5 -19t-15.5 -19q-30 25 -65 37.5t-68 12.5q-32 0 -56 -10.5t-40.5 -28t-24.5 -40.5t-8 -48
q0 -40 21 -77.5t66 -60.5q25 10 52 17.5t52 12.5t44.5 7.5t30.5 2.5zM246 570q0 21 14 35.5t34 14.5t33.5 -14.5t13.5 -35.5t-13.5 -35.5t-33.5 -14.5t-34 14.5t-14 35.5z" />
    <glyph glyph-name="uniFECA" unicode="&#x639;" horiz-adv-x="603" arabic-form="final" 
d="M86 -221q0 72 31.5 127t82.5 104l19 19q-40 36 -70 80.5t-49.5 89.5t-29.5 85t-10 67q0 29 16.5 42t49.5 24q33 10 67 17.5t84 7.5q51 0 85 -7t66 -18q34 -11 50.5 -24t16.5 -42t-10 -66t-28 -77t-43.5 -79t-55.5 -71h260v-58h-348q-28 -26 -50 -50t-37 -49.5t-23 -54.5
t-8 -64q0 -74 49 -107t133 -33q37 0 67 5.5t54.5 13.5t44.5 18l37 19l24 -48q-17 -10 -40 -21t-52 -20.5t-63.5 -15.5t-74.5 -6q-119 0 -182 50.5t-63 141.5zM119 352q7 -38 20 -78.5t32.5 -79t46 -73.5t59.5 -63q64 57 102 129t57 165q-35 14 -76.5 23t-82.5 9t-82.5 -9
t-75.5 -23z" />
    <glyph glyph-name="uniFECC" unicode="&#x639;" arabic-form="medial" 
d="M485 352q-35 14 -76.5 23t-82.5 9t-82.5 -9t-76.5 -23q7 -40 19.5 -81t31.5 -79.5t45.5 -73t62.5 -61.5q34 24 60.5 57.5t45.5 72.5t32 81t21 84zM544 351q0 -24 -8.5 -60.5t-25.5 -77.5t-41.5 -81.5t-56.5 -73.5h255v-58h-682v58h255q-32 33 -57 73.5t-41.5 81.5
t-25 77.5t-8.5 60.5q0 29 16.5 42t50.5 24q33 10 67 17.5t84 7.5t84 -7.5t67 -17.5q34 -11 50.5 -24t16.5 -42z" />
    <glyph glyph-name="uniFECB" unicode="&#x639;" horiz-adv-x="568" arabic-form="initial" 
d="M315 442q31 0 55.5 -4.5t42 -11t28 -13t14.5 -10.5q7 -5 11.5 -12.5t4.5 -18.5q0 -8 -5 -19t-16 -19q-17 15 -48.5 32.5t-84.5 17.5q-37 0 -64 -12t-44.5 -32t-26 -46.5t-8.5 -55.5q0 -34 11 -66t32 -57.5t51.5 -41t70.5 -15.5h169v-58h-523v58h215q-47 34 -69.5 80.5
t-22.5 98.5q0 41 13.5 78.5t39.5 65.5t64.5 44.5t89.5 16.5z" />
    <glyph glyph-name="uniFEC9" unicode="&#x639;" horiz-adv-x="558" arabic-form="isolated" 
d="M437 159q17 0 25 -9.5t8 -24.5q0 -5 -2 -15q-101 -8 -168.5 -35.5t-108.5 -66t-58 -83.5t-17 -88q0 -44 15.5 -80t44 -61.5t68.5 -39.5t88 -14q60 0 108.5 16.5t82.5 34.5l25 -48q-18 -10 -41.5 -20.5t-52 -18.5t-61 -13.5t-67.5 -5.5q-65 0 -116 19t-86.5 52t-54.5 78
t-19 98q0 46 11.5 84.5t32 70t48 56.5t59.5 45q-49 34 -72.5 80t-23.5 94q0 35 12.5 67t37 57t60.5 39.5t83 14.5q23 0 50.5 -4.5t51 -13t39 -21.5t15.5 -31q0 -8 -5.5 -19t-15.5 -19q-30 25 -65 37.5t-68 12.5q-32 0 -56 -10.5t-40.5 -28t-24.5 -40.5t-8 -48
q0 -40 21 -77.5t66 -60.5q25 10 52 17.5t52 12.5t44.5 7.5t30.5 2.5z" />
    <glyph glyph-name="uniFEC6" unicode="&#x638;" horiz-adv-x="847" arabic-form="final" 
d="M40 0v58h115v695q0 15 8 24.5t26 9.5q8 0 16.5 -2.5t11.5 -4.5v-510q16 44 43.5 76.5t61.5 53.5t73 31.5t80 10.5t85.5 -12t82 -43t61.5 -85t24 -137v-107h134v-58h-822zM666 58v97q0 120 -50.5 174.5t-143.5 54.5q-60 0 -107.5 -25.5t-80.5 -69.5t-50 -103.5t-17 -127.5
h449zM433 570q0 21 14 35.5t34 14.5t33.5 -14.5t13.5 -35.5t-13.5 -35.5t-33.5 -14.5t-34 14.5t-14 35.5z" />
    <glyph glyph-name="uniFEC8" unicode="&#x638;" horiz-adv-x="844" arabic-form="medial" 
d="M-15 0v58h167v695q0 15 8 24.5t26 9.5q8 0 16.5 -2.5t11.5 -4.5v-510q16 44 43.5 76.5t61.5 53.5t73 31.5t80 10.5t85.5 -12t82 -43t61.5 -85t24 -137v-107h134v-58h-874zM663 58v97q0 120 -50.5 174.5t-143.5 54.5q-60 0 -107.5 -25.5t-80.5 -69.5t-50 -103.5
t-17 -127.5h449zM430 570q0 21 14 35.5t34 14.5t33.5 -14.5t13.5 -35.5t-13.5 -35.5t-33.5 -14.5t-34 14.5t-14 35.5z" />
    <glyph glyph-name="uniFEC7" unicode="&#x638;" horiz-adv-x="785" arabic-form="initial" 
d="M152 58v695q0 15 8 24.5t26 9.5q8 0 16.5 -2.5t11.5 -4.5v-510q16 44 43.5 76.5t61.5 53.5t73 31.5t80 10.5t85.5 -12t82 -43t61.5 -85t24 -137v-165h-740v58h167zM663 58v97q0 120 -50.5 174.5t-143.5 54.5q-60 0 -107.5 -25.5t-80.5 -69.5t-50 -103.5t-17 -127.5h449z
M429 570q0 21 14 35.5t34 14.5t33.5 -14.5t13.5 -35.5t-13.5 -35.5t-33.5 -14.5t-34 14.5t-14 35.5z" />
    <glyph glyph-name="uniFEC5" unicode="&#x638;" horiz-adv-x="807" arabic-form="isolated" 
d="M174 58v695q0 15 8 24.5t26 9.5q8 0 16.5 -2.5t11.5 -4.5v-510q16 44 43.5 76.5t61.5 53.5t73 31.5t80 10.5t85.5 -12t82 -43t61.5 -85t24 -137v-165h-707v58h134zM685 58v97q0 120 -50.5 174.5t-143.5 54.5q-60 0 -107.5 -25.5t-80.5 -69.5t-50 -103.5t-17 -127.5h449z
M431 570q0 21 14 35.5t34 14.5t33.5 -14.5t13.5 -35.5t-13.5 -35.5t-33.5 -14.5t-34 14.5t-14 35.5z" />
    <glyph glyph-name="uniFEC2" unicode="&#x637;" horiz-adv-x="847" arabic-form="final" 
d="M40 0v58h115v695q0 15 8 24.5t26 9.5q8 0 16.5 -2.5t11.5 -4.5v-510q16 44 43.5 76.5t61.5 53.5t73 31.5t80 10.5t85.5 -12t82 -43t61.5 -85t24 -137v-107h134v-58h-822zM666 58v97q0 120 -50.5 174.5t-143.5 54.5q-60 0 -107.5 -25.5t-80.5 -69.5t-50 -103.5t-17 -127.5
h449z" />
    <glyph glyph-name="uniFEC4" unicode="&#x637;" horiz-adv-x="844" arabic-form="medial" 
d="M-15 0v58h167v695q0 15 8 24.5t26 9.5q8 0 16.5 -2.5t11.5 -4.5v-510q16 44 43.5 76.5t61.5 53.5t73 31.5t80 10.5t85.5 -12t82 -43t61.5 -85t24 -137v-107h134v-58h-874zM663 58v97q0 120 -50.5 174.5t-143.5 54.5q-60 0 -107.5 -25.5t-80.5 -69.5t-50 -103.5
t-17 -127.5h449z" />
    <glyph glyph-name="uniFEC3" unicode="&#x637;" horiz-adv-x="785" arabic-form="initial" 
d="M152 58v695q0 15 8 24.5t26 9.5q8 0 16.5 -2.5t11.5 -4.5v-510q16 44 43.5 76.5t61.5 53.5t73 31.5t80 10.5t85.5 -12t82 -43t61.5 -85t24 -137v-165h-740v58h167zM663 58v97q0 120 -50.5 174.5t-143.5 54.5q-60 0 -107.5 -25.5t-80.5 -69.5t-50 -103.5t-17 -127.5h449z
" />
    <glyph glyph-name="uniFEC1" unicode="&#x637;" horiz-adv-x="807" arabic-form="isolated" 
d="M174 58v695q0 15 8 24.5t26 9.5q8 0 16.5 -2.5t11.5 -4.5v-510q16 44 43.5 76.5t61.5 53.5t73 31.5t80 10.5t85.5 -12t82 -43t61.5 -85t24 -137v-165h-707v58h134zM685 58v97q0 120 -50.5 174.5t-143.5 54.5q-60 0 -107.5 -25.5t-80.5 -69.5t-50 -103.5t-17 -127.5h449z
" />
    <glyph glyph-name="uniFEE6" unicode="&#x646;" horiz-adv-x="694" arabic-form="final" 
d="M547 212q0 -35 5 -63.5t18 -48.5t36.5 -31t61.5 -11h41v-58h-41q-44 0 -74 9.5t-48 32.5q-5 -133 -68 -201.5t-184 -68.5q-75 0 -124 23.5t-78 61.5t-40.5 85.5t-11.5 94.5q0 24 3.5 65t15.5 77q5 15 13.5 23t23.5 8q7 0 16.5 -2t16.5 -6q-13 -40 -19 -80t-6 -78
q0 -47 10 -87.5t32.5 -69.5t59 -45.5t89.5 -16.5q38 0 72.5 9.5t60.5 37.5t41.5 79t15.5 133v324q0 15 8 24.5t26 9.5q8 0 16 -2.5t12 -4.5v-223zM248 570q0 21 14 35.5t34 14.5t33.5 -14.5t13.5 -35.5t-13.5 -35.5t-33.5 -14.5t-34 14.5t-14 35.5z" />
    <glyph glyph-name="uniFEE8" unicode="&#x646;" horiz-adv-x="346" arabic-form="medial" 
d="M171 76q-25 -42 -60 -59t-92 -17h-34v58h34q39 0 63 12t37 34.5t17 53.5t4 70v180q0 15 8 24.5t26 9.5q8 0 16.5 -2.5t11.5 -4.5v-208q0 -38 4 -69.5t17 -53.5t37 -34t63 -12h38v-58h-38q-58 0 -96.5 20.5t-55.5 55.5zM125 570q0 21 14 35.5t34 14.5t33.5 -14.5
t13.5 -35.5t-13.5 -35.5t-33.5 -14.5t-34 14.5t-14 35.5z" />
    <glyph glyph-name="uniFEE7" unicode="&#x646;" horiz-adv-x="264" arabic-form="initial" 
d="M132 408q0 15 8 24.5t26 9.5q8 0 16.5 -2.5t11.5 -4.5v-435h-209v58h147v350zM119 570q0 21 14 35.5t34 14.5t33.5 -14.5t13.5 -35.5t-13.5 -35.5t-33.5 -14.5t-34 14.5t-14 35.5z" />
    <glyph glyph-name="uniFEE5" unicode="&#x646;" horiz-adv-x="617" arabic-form="isolated" 
d="M547 68q0 -146 -62.5 -221t-190.5 -75q-75 0 -124 23.5t-78 61.5t-40.5 85.5t-11.5 94.5q0 24 3.5 65t15.5 77q5 15 13.5 23t23.5 8q7 0 16.5 -2t16.5 -6q-13 -40 -19 -80t-6 -78q0 -47 10 -87.5t32.5 -69.5t59 -45.5t89.5 -16.5q38 0 72.5 9.5t60.5 37.5t41.5 79
t15.5 133v324q0 15 8 24.5t26 9.5q8 0 16 -2.5t12 -4.5v-367zM248 570q0 21 14 35.5t34 14.5t33.5 -14.5t13.5 -35.5t-13.5 -35.5t-33.5 -14.5t-34 14.5t-14 35.5z" />
    <glyph glyph-name="uniFEE2" unicode="&#x645;" horiz-adv-x="668" arabic-form="final" 
d="M212 58q-39 27 -61.5 74t-22.5 98q0 45 16 83.5t44.5 67t67.5 45t84 16.5q47 0 85.5 -15.5t66.5 -43t43 -65.5t15 -83v-177h133v-58h-543q-32 0 -42.5 -18t-10.5 -49v-163h-62v171q0 22 4.5 43.5t16.5 37.5t32.5 26t52.5 10h81zM488 225q0 75 -41.5 117t-106.5 42
q-32 0 -59 -11.5t-46.5 -32t-30 -49t-10.5 -61.5t11 -64t30.5 -55t46 -38.5t58.5 -14.5h148v167z" />
    <glyph glyph-name="uniFEE4" unicode="&#x645;" horiz-adv-x="615" arabic-form="medial" 
d="M504 0q-17 -71 -69.5 -115t-130.5 -44q-79 0 -131.5 43.5t-69.5 115.5h-118v58h111v7q0 49 14.5 90t41.5 71t65.5 46.5t86.5 16.5t86.5 -16.5t65.5 -46.5t41.5 -71t14.5 -90v-7h118v-58h-126zM160 65q0 -75 37.5 -120.5t106.5 -45.5t106.5 45.5t37.5 120.5t-37.5 120.5
t-106.5 45.5t-106.5 -45.5t-37.5 -120.5z" />
    <glyph glyph-name="uniFEE3" unicode="&#x645;" horiz-adv-x="622" arabic-form="initial" 
d="M363 0q-72 0 -116.5 25t-69.5 64q-23 -51 -62 -70t-96 -19h-34v58h34q39 0 62.5 11t36.5 31.5t17 49.5t5 65q1 53 17.5 95t44.5 71.5t66.5 45t83.5 15.5q47 0 85.5 -15.5t66.5 -43t43 -65.5t15 -83v-235h-199zM500 225q0 75 -41.5 117t-106.5 42t-105.5 -43.5
t-40.5 -118.5q0 -46 12 -77.5t34 -50.5t54 -27.5t72 -8.5h122v167z" />
    <glyph glyph-name="uniFEE1" unicode="&#x645;" horiz-adv-x="610" arabic-form="isolated" 
d="M212 58q-39 27 -61.5 74t-22.5 98q0 45 16 84t44.5 67.5t67.5 44.5t84 16q47 0 85.5 -15.5t66.5 -43t43 -65.5t15 -83v-235h-410q-32 0 -42.5 -18t-10.5 -49v-163h-62v171q0 22 4.5 43.5t16.5 37.5t32.5 26t52.5 10h81zM488 225q0 75 -41.5 117t-106.5 42
q-32 0 -59 -11.5t-46.5 -32t-30 -49t-10.5 -61.5t11 -64t30.5 -55t46 -38.5t58.5 -14.5h148v167z" />
    <glyph glyph-name="uniFEDE" unicode="&#x644;" horiz-adv-x="694" arabic-form="final" 
d="M547 212q0 -35 5 -63.5t18 -48.5t36.5 -31t61.5 -11h41v-58h-41q-44 0 -74 9.5t-48 32.5q-5 -133 -68 -201.5t-184 -68.5q-75 0 -124 23.5t-78 61.5t-40.5 85.5t-11.5 94.5q0 24 3.5 65t15.5 77q5 15 13.5 23t23.5 8q7 0 16.5 -2t16.5 -6q-13 -40 -19 -80t-6 -78
q0 -47 10 -87.5t32.5 -69.5t59 -45.5t89.5 -16.5q38 0 72.5 9.5t60.5 37.5t41.5 79t15.5 133v669q0 15 8 24.5t26 9.5q8 0 16 -2.5t12 -4.5v-568z" />
    <glyph glyph-name="uniFEE0" unicode="&#x644;" horiz-adv-x="346" arabic-form="medial" 
d="M169 76q-25 -42 -60 -59t-92 -17h-32v58h32q39 0 63 12t37 34.5t17 53.5t4 70v525q0 15 8 24.5t26 9.5q8 0 16.5 -2.5t11.5 -4.5v-553q0 -38 4 -69.5t17 -53.5t37 -34t63 -12h40v-58h-40q-58 0 -96.5 20.5t-55.5 55.5z" />
    <glyph glyph-name="uniFEDF" unicode="&#x644;" horiz-adv-x="274" arabic-form="initial" 
d="M132 753q0 15 8 24.5t26 9.5q8 0 16.5 -2.5t11.5 -4.5v-780h-209v58h147v695z" />
    <glyph glyph-name="uniFEDD" unicode="&#x644;" horiz-adv-x="627" arabic-form="isolated" 
d="M547 68q0 -146 -62.5 -221t-190.5 -75q-75 0 -124 23.5t-78 61.5t-40.5 85.5t-11.5 94.5q0 24 3.5 65t15.5 77q5 15 13.5 23t23.5 8q7 0 16.5 -2t16.5 -6q-13 -40 -19 -80t-6 -78q0 -47 10 -87.5t32.5 -69.5t59 -45.5t89.5 -16.5q38 0 72.5 9.5t60.5 37.5t41.5 79
t15.5 133v669q0 15 8 24.5t26 9.5q8 0 16 -2.5t12 -4.5v-712z" />
    <glyph glyph-name="uniFEDA" unicode="&#x643;" horiz-adv-x="852" arabic-form="final" 
d="M336 0q-89 0 -146.5 24.5t-90.5 62t-46 82t-13 84.5q0 58 12.5 79t30.5 21q17 0 33 -8q-8 -25 -11 -47.5t-3 -43.5q0 -45 14 -81t44 -61.5t77.5 -39.5t114.5 -14h306v695q0 15 8.5 24.5t25.5 9.5q9 0 16.5 -2.5t11.5 -4.5v-722h147v-58h-531zM304 415h49q-12 11 -17.5 25
t-5.5 28q0 20 8 34.5t21 23.5t29 13.5t32 4.5q23 0 39.5 -8.5t16.5 -22.5q0 -6 -2.5 -12t-10.5 -14q-17 15 -42 15q-17 0 -30 -9.5t-13 -30.5q0 -17 12.5 -32t38.5 -15h49v-42h-174v42z" />
    <glyph glyph-name="uniFEDC" unicode="&#x643;" horiz-adv-x="595" arabic-form="medial" 
d="M-15 0v58h430v74q0 74 -20.5 122.5t-53.5 77.5t-74.5 40.5t-82.5 11.5q-35 0 -67 -7.5t-57 -21.5q-10 10 -13 18.5t-3 16.5q0 12 10 21l361 354q17 16 28 19t21 3q25 0 41 -22l-337 -323h12q48 0 100 -13.5t96 -46.5t72.5 -89.5t28.5 -143.5v-91h133v-58h-625z" />
    <glyph glyph-name="uniFEDB" unicode="&#x643;" horiz-adv-x="537" arabic-form="initial" 
d="M168 442h12q48 0 100 -13.5t96 -46.5t72.5 -89.5t28.5 -143.5v-149h-492v58h430v74q0 74 -20.5 122.5t-53.5 77.5t-74.5 40.5t-82.5 11.5q-35 0 -67 -7.5t-57 -21.5q-10 10 -13 18.5t-3 16.5q0 12 10 21l361 354q17 16 28 19t21 3q25 0 41 -22z" />
    <glyph glyph-name="uniFED9" unicode="&#x643;" horiz-adv-x="800" arabic-form="isolated" 
d="M116 346q-8 -25 -11 -47.5t-3 -43.5q0 -45 14 -81t44 -61.5t77.5 -39.5t114.5 -14h306v695q0 15 8.5 24.5t25.5 9.5q9 0 16.5 -2.5t11.5 -4.5v-780h-384q-89 0 -146.5 24.5t-90.5 62t-46 82t-13 84.5q0 58 12.5 79t30.5 21q17 0 33 -8zM304 415h49q-12 11 -17.5 25
t-5.5 28q0 20 8 34.5t21 23.5t29 13.5t32 4.5q23 0 39.5 -8.5t16.5 -22.5q0 -6 -2.5 -12t-10.5 -14q-17 15 -42 15q-17 0 -30 -9.5t-13 -30.5q0 -17 12.5 -32t38.5 -15h49v-42h-174v42z" />
    <glyph glyph-name="uniFED6" unicode="&#x642;" horiz-adv-x="843" arabic-form="final" 
d="M298 -230q-77 0 -126.5 24t-79 62t-41 86t-11.5 95q0 24 3.5 65t15.5 77q5 15 13.5 23t23.5 8q7 0 16.5 -2t16.5 -6q-13 -40 -19 -80t-6 -78q0 -47 10 -87t32.5 -68.5t58 -44.5t86.5 -16h372v172h-134q-50 0 -91.5 14.5t-71.5 41.5t-46.5 66t-16.5 89q0 55 16 98
t44.5 72.5t67.5 45t84 15.5q47 0 85.5 -16t66.5 -45t43 -71t15 -94v-158h133v-58h-133v-230h-427zM663 206q0 45 -11 78t-30.5 55.5t-47 33.5t-59.5 11q-65 0 -105.5 -41.5t-40.5 -131.5q0 -33 10 -61t28.5 -48.5t45.5 -32t62 -11.5h148v148zM402 570q0 21 14 35.5t34 14.5
t33.5 -14.5t13.5 -35.5t-13.5 -35.5t-33.5 -14.5t-34 14.5t-14 35.5zM551 570q0 21 14 35.5t34 14.5t33.5 -14.5t13.5 -35.5t-13.5 -35.5t-33.5 -14.5t-34 14.5t-14 35.5z" />
    <glyph glyph-name="uniFED8" unicode="&#x642;" horiz-adv-x="635" arabic-form="medial" 
d="M-15 58h189q-34 32 -50.5 73t-16.5 87q0 43 14 83t41 71.5t66 50.5t89 19q52 0 92 -17t66 -46.5t39.5 -69t13.5 -84.5q0 -48 -16.5 -90t-51.5 -77h190v-58h-665v58zM463 221q0 85 -40 124t-106 39q-36 0 -63 -13t-45 -35.5t-27 -52.5t-9 -64q0 -32 9 -61t27 -52t45 -36.5
t63 -13.5q66 0 106 43.5t40 121.5zM198 570q0 21 14 35.5t34 14.5t33.5 -14.5t13.5 -35.5t-13.5 -35.5t-33.5 -14.5t-34 14.5t-14 35.5zM347 570q0 21 14 35.5t34 14.5t33.5 -14.5t13.5 -35.5t-13.5 -35.5t-33.5 -14.5t-34 14.5t-14 35.5z" />
    <glyph glyph-name="uniFED7" unicode="&#x642;" horiz-adv-x="589" arabic-form="initial" 
d="M529 0h-544v58h190q-32 28 -50 67.5t-18 90.5q0 55 16 97.5t44.5 71t67.5 43t84 14.5q47 0 85.5 -16t66.5 -45t43 -71t15 -94v-216zM467 206q0 45 -11 78t-30.5 55.5t-47 33.5t-59.5 11q-65 0 -105.5 -39t-40.5 -129q0 -33 10 -61.5t28.5 -50t45.5 -34t62 -12.5h148v148z
M201 570q0 21 14 35.5t34 14.5t33.5 -14.5t13.5 -35.5t-13.5 -35.5t-33.5 -14.5t-34 14.5t-14 35.5zM350 570q0 21 14 35.5t34 14.5t33.5 -14.5t13.5 -35.5t-13.5 -35.5t-33.5 -14.5t-34 14.5t-14 35.5z" />
    <glyph glyph-name="uniFED5" unicode="&#x642;" horiz-adv-x="795" arabic-form="isolated" 
d="M298 -230q-77 0 -126.5 24t-79 62t-41 86t-11.5 95q0 24 3.5 65t15.5 77q5 15 13.5 23t23.5 8q7 0 16.5 -2t16.5 -6q-13 -40 -19 -80t-6 -78q0 -47 10 -87t32.5 -68.5t58 -44.5t86.5 -16h372v172h-134q-50 0 -91.5 14.5t-71.5 41.5t-46.5 66t-16.5 89q0 55 16 98
t44.5 72.5t67.5 45t84 15.5q47 0 85.5 -16t66.5 -45t43 -71t15 -94v-446h-427zM663 206q0 45 -11 78t-30.5 55.5t-47 33.5t-59.5 11q-65 0 -105.5 -41.5t-40.5 -131.5q0 -33 10 -61t28.5 -48.5t45.5 -32t62 -11.5h148v148zM402 570q0 21 14 35.5t34 14.5t33.5 -14.5
t13.5 -35.5t-13.5 -35.5t-33.5 -14.5t-34 14.5t-14 35.5zM551 570q0 21 14 35.5t34 14.5t33.5 -14.5t13.5 -35.5t-13.5 -35.5t-33.5 -14.5t-34 14.5t-14 35.5z" />
    <glyph glyph-name="uniFE94" unicode="&#x629;" horiz-adv-x="582" arabic-form="final" 
d="M296 0q-122 0 -179 58t-57 158q0 55 20 97.5t55 71t81.5 43t99.5 14.5h148v-384h133v-58h-301zM402 384h-90q-39 0 -73 -10t-59 -31t-39.5 -52.5t-14.5 -74.5q0 -25 3.5 -47t13.5 -40.5t27.5 -33.5t46.5 -25q14 -5 36.5 -8.5t44.5 -3.5h104v326zM196 570q0 21 14 35.5
t34 14.5t33.5 -14.5t13.5 -35.5t-13.5 -35.5t-33.5 -14.5t-34 14.5t-14 35.5zM345 570q0 21 14 35.5t34 14.5t33.5 -14.5t13.5 -35.5t-13.5 -35.5t-33.5 -14.5t-34 14.5t-14 35.5z" />
    <glyph glyph-name="uniFE93" unicode="&#x629;" horiz-adv-x="534" arabic-form="isolated" 
d="M296 0q-122 0 -179 58t-57 158q0 55 20 97.5t55 71t81.5 43t99.5 14.5h148v-442h-168zM402 384h-90q-39 0 -73 -10t-59 -31t-39.5 -52.5t-14.5 -74.5q0 -25 3.5 -47t13.5 -40.5t27.5 -33.5t46.5 -25q14 -5 36.5 -8.5t44.5 -3.5h104v326zM186 570q0 21 14 35.5t34 14.5
t33.5 -14.5t13.5 -35.5t-13.5 -35.5t-33.5 -14.5t-34 14.5t-14 35.5zM335 570q0 21 14 35.5t34 14.5t33.5 -14.5t13.5 -35.5t-13.5 -35.5t-33.5 -14.5t-34 14.5t-14 35.5z" />
    <glyph glyph-name="uniFEF2" unicode="&#x64a;" horiz-adv-x="959" arabic-form="final" 
d="M298 -230q-77 0 -126.5 24t-79 62t-41 86t-11.5 95q0 24 3.5 65t15.5 77q5 15 13.5 23t23.5 8q7 0 16.5 -2t16.5 -6q-13 -40 -19 -80t-6 -78q0 -47 10 -87t32.5 -68.5t58 -44.5t86.5 -16h177v575l30.5 11t44.5 13t54 10.5t58 4.5q97 0 141.5 -47.5t44.5 -142.5v-194h133
v-58h-195v224q0 43 -6 73.5t-20 50t-38 28t-60 8.5q-43 0 -77.5 -10t-47.5 -15v-589h-232zM220 -366q0 21 14 35.5t34 14.5t33.5 -14.5t13.5 -35.5t-13.5 -35.5t-33.5 -14.5t-34 14.5t-14 35.5zM369 -366q0 21 14 35.5t34 14.5t33.5 -14.5t13.5 -35.5t-13.5 -35.5
t-33.5 -14.5t-34 14.5t-14 35.5z" />
    <glyph glyph-name="uniFEF4" unicode="&#x64a;" horiz-adv-x="346" arabic-form="medial" 
d="M171 76q-25 -42 -60 -59t-92 -17h-34v58h34q39 0 63 12t37 34.5t17 53.5t4 70v180q0 15 8 24.5t26 9.5q8 0 16.5 -2.5t11.5 -4.5v-208q0 -38 4 -69.5t17 -53.5t37 -34t63 -12h38v-58h-38q-58 0 -96.5 20.5t-55.5 55.5zM49 -131q0 21 14 35.5t34 14.5t33.5 -14.5
t13.5 -35.5t-13.5 -35.5t-33.5 -14.5t-34 14.5t-14 35.5zM198 -131q0 21 14 35.5t34 14.5t33.5 -14.5t13.5 -35.5t-13.5 -35.5t-33.5 -14.5t-34 14.5t-14 35.5z" />
    <glyph glyph-name="uniFEF3" unicode="&#x64a;" horiz-adv-x="264" arabic-form="initial" 
d="M132 408q0 15 8 24.5t26 9.5q8 0 16.5 -2.5t11.5 -4.5v-435h-209v58h147v350zM-13 -131q0 21 14 35.5t34 14.5t33.5 -14.5t13.5 -35.5t-13.5 -35.5t-33.5 -14.5t-34 14.5t-14 35.5zM136 -131q0 21 14 35.5t34 14.5t33.5 -14.5t13.5 -35.5t-13.5 -35.5t-33.5 -14.5
t-34 14.5t-14 35.5z" />
    <glyph glyph-name="uniFEF1" unicode="&#x64a;" horiz-adv-x="716" arabic-form="isolated" 
d="M298 -230q-77 0 -126.5 24t-79 62t-41 86t-11.5 95q0 24 3.5 65t15.5 77q5 15 13.5 23t23.5 8q7 0 16.5 -2t16.5 -6q-13 -40 -19 -80t-6 -78q0 -47 10 -87t32.5 -68.5t58 -44.5t86.5 -16h177v586q29 13 68.5 20.5t75.5 7.5q35 0 59.5 -9t24.5 -30q0 -15 -15 -31
q-16 7 -31.5 9.5t-31.5 2.5q-23 0 -44.5 -4.5t-43.5 -10.5v-599h-232zM222 -366q0 21 14 35.5t34 14.5t33.5 -14.5t13.5 -35.5t-13.5 -35.5t-33.5 -14.5t-34 14.5t-14 35.5zM371 -366q0 21 14 35.5t34 14.5t33.5 -14.5t13.5 -35.5t-13.5 -35.5t-33.5 -14.5t-34 14.5
t-14 35.5z" />
    <glyph glyph-name="uniFEEE" unicode="&#x648;" horiz-adv-x="600" arabic-form="final" 
d="M482 -25q0 -59 -18 -99.5t-47 -66t-64.5 -37t-71.5 -11.5q-43 0 -73.5 9.5t-47.5 18.5l21 53q13 -7 38 -16.5t62 -9.5q25 0 49.5 8.5t44.5 28t32.5 51.5t12.5 78v18h-134q-50 0 -91.5 14.5t-71.5 41.5t-46.5 66t-16.5 89q0 55 16 98t44.5 72.5t67.5 45t84 15.5
q47 0 85.5 -16t66.5 -45t43 -71t15 -94v-158h133v-58h-133v-25zM420 206q0 45 -11 78t-30.5 55.5t-47 33.5t-59.5 11q-65 0 -105.5 -41.5t-40.5 -131.5q0 -33 10 -61t28.5 -48.5t45.5 -32t62 -11.5h148v148z" />
    <glyph glyph-name="uniFEED" unicode="&#x648;" horiz-adv-x="552" arabic-form="isolated" 
d="M482 -25q0 -59 -18 -99.5t-47 -66t-64.5 -37t-71.5 -11.5q-43 0 -73.5 9.5t-47.5 18.5l21 53q13 -7 38 -16.5t62 -9.5q25 0 49.5 8.5t44.5 28t32.5 51.5t12.5 78v18h-134q-50 0 -91.5 14.5t-71.5 41.5t-46.5 66t-16.5 89q0 55 16 98t44.5 72.5t67.5 45t84 15.5
q47 0 85.5 -16t66.5 -45t43 -71t15 -94v-241zM420 206q0 45 -11 78t-30.5 55.5t-47 33.5t-59.5 11q-65 0 -105.5 -41.5t-40.5 -131.5q0 -33 10 -61t28.5 -48.5t45.5 -32t62 -11.5h148v148z" />
    <glyph glyph-name="uniFEEA" unicode="&#x647;" horiz-adv-x="582" arabic-form="final" 
d="M296 0q-122 0 -179 58t-57 158q0 55 20 97.5t55 71t81.5 43t99.5 14.5h148v-384h133v-58h-301zM402 384h-90q-39 0 -73 -10t-59 -31t-39.5 -52.5t-14.5 -74.5q0 -25 3.5 -47t13.5 -40.5t27.5 -33.5t46.5 -25q14 -5 36.5 -8.5t44.5 -3.5h104v326z" />
    <glyph glyph-name="uniFEEC" unicode="&#x647;" horiz-adv-x="917" arabic-form="medial" 
d="M-15 0v58h188q-33 29 -49.5 69.5t-16.5 88.5q0 55 20 97.5t55 71t81.5 43t99.5 14.5h66v105q0 15 8 24.5t26 9.5q8 0 16.5 -2.5t11.5 -4.5v-132h294v-384h147v-58h-947zM723 58v326h-232v-326h232zM429 384h-70q-39 0 -73 -10t-59 -31t-39.5 -52.5t-14.5 -74.5
q0 -21 3.5 -42.5t13.5 -41t27.5 -36t46.5 -26.5q14 -5 36.5 -8.5t44.5 -3.5h84v326z" />
    <glyph glyph-name="uniFEEB" unicode="&#x647;" horiz-adv-x="855" arabic-form="initial" 
d="M-15 0v58h188q-33 29 -49.5 69.5t-16.5 88.5q0 55 20 97.5t55 71t81.5 43t99.5 14.5h66v105q0 15 8 24.5t26 9.5q8 0 16.5 -2.5t11.5 -4.5v-132h294v-442h-800zM723 58v326h-232v-326h232zM429 384h-70q-39 0 -73 -10t-59 -31t-39.5 -52.5t-14.5 -74.5q0 -21 3.5 -42.5
t13.5 -41t27.5 -36t46.5 -26.5q14 -5 36.5 -8.5t44.5 -3.5h84v326z" />
    <glyph glyph-name="uniFEE9" unicode="&#x647;" horiz-adv-x="534" arabic-form="isolated" 
d="M296 0q-122 0 -179 58t-57 158q0 55 20 97.5t55 71t81.5 43t99.5 14.5h148v-442h-168zM402 384h-90q-39 0 -73 -10t-59 -31t-39.5 -52.5t-14.5 -74.5q0 -25 3.5 -47t13.5 -40.5t27.5 -33.5t46.5 -25q14 -5 36.5 -8.5t44.5 -3.5h104v326z" />
    <glyph glyph-name="uniFEF0" unicode="&#x649;" horiz-adv-x="959" arabic-form="final" 
d="M298 -230q-77 0 -126.5 24t-79 62t-41 86t-11.5 95q0 24 3.5 65t15.5 77q5 15 13.5 23t23.5 8q7 0 16.5 -2t16.5 -6q-13 -40 -19 -80t-6 -78q0 -47 10 -87t32.5 -68.5t58 -44.5t86.5 -16h177v575l30.5 11t44.5 13t54 10.5t58 4.5q97 0 141.5 -47.5t44.5 -142.5v-194h133
v-58h-195v224q0 43 -6 73.5t-20 50t-38 28t-60 8.5q-43 0 -77.5 -10t-47.5 -15v-589h-232z" />
    <glyph glyph-name="uniFBE9" unicode="&#x649;" horiz-adv-x="346" arabic-form="medial" 
d="M171 76q-25 -42 -60 -59t-92 -17h-34v58h34q39 0 63 12t37 34.5t17 53.5t4 70v180q0 15 8 24.5t26 9.5q8 0 16.5 -2.5t11.5 -4.5v-208q0 -38 4 -69.5t17 -53.5t37 -34t63 -12h38v-58h-38q-58 0 -96.5 20.5t-55.5 55.5z" />
    <glyph glyph-name="uniFBE8" unicode="&#x649;" horiz-adv-x="264" arabic-form="initial" 
d="M132 408q0 15 8 24.5t26 9.5q8 0 16.5 -2.5t11.5 -4.5v-435h-209v58h147v350z" />
    <glyph glyph-name="uniFEEF" unicode="&#x649;" horiz-adv-x="716" arabic-form="isolated" 
d="M298 -230q-77 0 -126.5 24t-79 62t-41 86t-11.5 95q0 24 3.5 65t15.5 77q5 15 13.5 23t23.5 8q7 0 16.5 -2t16.5 -6q-13 -40 -19 -80t-6 -78q0 -47 10 -87t32.5 -68.5t58 -44.5t86.5 -16h177v586q29 13 68.5 20.5t75.5 7.5q35 0 59.5 -9t24.5 -30q0 -15 -15 -31
q-16 7 -31.5 9.5t-31.5 2.5q-23 0 -44.5 -4.5t-43.5 -10.5v-599h-232z" />
    <glyph glyph-name="uniFB51" unicode="&#x671;" horiz-adv-x="274" arabic-form="final" 
d="M77 753q0 15 8 24.5t26 9.5q8 0 16 -2.5t12 -4.5v-722h147v-58h-209v753zM176 900v22q0 26 -14 38.5t-37 12.5q-26 0 -47.5 -17.5t-24.5 -55.5h123zM7 900q7 57 40 87t84 30q36 0 63.5 -22t27.5 -72v-65h-247v42h32z" />
    <glyph glyph-name="uniFB50" unicode="&#x671;" horiz-adv-x="222" arabic-form="isolated" 
d="M75 753q0 15 8 24.5t26 9.5q8 0 16.5 -2.5t11.5 -4.5v-780h-62v753zM176 900v22q0 26 -14 38.5t-37 12.5q-26 0 -47.5 -17.5t-24.5 -55.5h123zM7 900q7 57 40 87t84 30q36 0 63.5 -22t27.5 -72v-65h-247v42h32z" />
    <glyph glyph-name="uniFB67" unicode="&#x679;" horiz-adv-x="852" arabic-form="final" 
d="M117 345q-8 -25 -11 -47.5t-3 -43.5q0 -45 14 -81t44 -61.5t77.5 -39.5t114.5 -14h306v350q0 15 8.5 24.5t25.5 9.5q9 0 16.5 -2.5t11.5 -4.5v-377h148v-58h-532q-89 0 -146.5 24.5t-90.5 62t-46 82t-13 84.5q0 58 12.5 79t30.5 21q17 0 33 -8zM458 446v22
q0 26 -14.5 38.5t-34.5 12.5q-12 0 -25 -4t-23.5 -13t-17 -23t-6.5 -33h121zM337 523q14 20 34 30t42 10q36 0 63.5 -22t27.5 -72v-65h-247v42h34v157q0 9 6.5 16t17.5 7q5 0 11 -1.5t11 -5.5v-96z" />
    <glyph glyph-name="uniFB69" unicode="&#x679;" horiz-adv-x="346" arabic-form="medial" 
d="M171 76q-25 -42 -60 -59t-92 -17h-34v58h34q39 0 63 12t37 34.5t17 53.5t4 70v180q0 15 8 24.5t26 9.5q8 0 16.5 -2.5t11.5 -4.5v-208q0 -38 4 -69.5t17 -53.5t37 -34t63 -12h38v-58h-38q-58 0 -96.5 20.5t-55.5 55.5zM245 568v22q0 26 -14.5 38.5t-34.5 12.5
q-12 0 -25 -4t-23.5 -13t-17 -23t-6.5 -33h121zM124 645q14 20 34 30t42 10q36 0 63.5 -22t27.5 -72v-65h-247v42h34v157q0 9 6.5 16t17.5 7q5 0 11 -1.5t11 -5.5v-96z" />
    <glyph glyph-name="uniFB68" unicode="&#x679;" horiz-adv-x="264" arabic-form="initial" 
d="M132 408q0 15 8 24.5t26 9.5q8 0 16.5 -2.5t11.5 -4.5v-435h-209v58h147v350zM229 569v22q0 26 -14.5 38.5t-34.5 12.5q-12 0 -25 -4t-23.5 -13t-17 -23t-6.5 -33h121zM108 646q14 20 34 30t42 10q36 0 63.5 -22t27.5 -72v-65h-247v42h34v157q0 9 6.5 16t17.5 7
q5 0 11 -1.5t11 -5.5v-96z" />
    <glyph glyph-name="uniFB66" unicode="&#x679;" horiz-adv-x="790" arabic-form="isolated" 
d="M117 345q-8 -25 -11 -47.5t-3 -43.5q0 -45 14 -81t44 -61.5t77.5 -39.5t114.5 -14h306v350q0 15 8.5 24.5t25.5 9.5q9 0 16.5 -2.5t11.5 -4.5v-435h-384q-89 0 -146.5 24.5t-90.5 62t-46 82t-13 84.5q0 58 12.5 79t30.5 21q17 0 33 -8zM458 446v22q0 26 -14.5 38.5
t-34.5 12.5q-12 0 -25 -4t-23.5 -13t-17 -23t-6.5 -33h121zM337 523q14 20 34 30t42 10q36 0 63.5 -22t27.5 -72v-65h-247v42h34v157q0 9 6.5 16t17.5 7q5 0 11 -1.5t11 -5.5v-96z" />
    <glyph glyph-name="uniFB57" unicode="&#x67e;" horiz-adv-x="853" arabic-form="final" 
d="M117 345q-8 -25 -11 -47.5t-3 -43.5q0 -45 14 -81t44 -61.5t77.5 -39.5t114.5 -14h306v350q0 15 8.5 24.5t25.5 9.5q9 0 16.5 -2.5t11.5 -4.5v-377h148v-58h-532q-89 0 -146.5 24.5t-90.5 62t-46 82t-13 84.5q0 58 12.5 79t30.5 21q17 0 33 -8zM303 -131q0 21 14 35.5
t34 14.5t33.5 -14.5t13.5 -35.5t-13.5 -35.5t-33.5 -14.5t-34 14.5t-14 35.5zM452 -131q0 21 14 35.5t34 14.5t33.5 -14.5t13.5 -35.5t-13.5 -35.5t-33.5 -14.5t-34 14.5t-14 35.5zM379 -261q0 21 14 35.5t34 14.5t33.5 -14.5t13.5 -35.5t-13.5 -35.5t-33.5 -14.5t-34 14.5
t-14 35.5z" />
    <glyph glyph-name="uniFB59" unicode="&#x67e;" horiz-adv-x="346" arabic-form="medial" 
d="M171 76q-25 -42 -60 -59t-92 -17h-34v58h34q39 0 63 12t37 34.5t17 53.5t4 70v180q0 15 8 24.5t26 9.5q8 0 16.5 -2.5t11.5 -4.5v-208q0 -38 4 -69.5t17 -53.5t37 -34t63 -12h38v-58h-38q-58 0 -96.5 20.5t-55.5 55.5zM52 -131q0 21 14 35.5t34 14.5t33.5 -14.5
t13.5 -35.5t-13.5 -35.5t-33.5 -14.5t-34 14.5t-14 35.5zM201 -131q0 21 14 35.5t34 14.5t33.5 -14.5t13.5 -35.5t-13.5 -35.5t-33.5 -14.5t-34 14.5t-14 35.5zM128 -261q0 21 14 35.5t34 14.5t33.5 -14.5t13.5 -35.5t-13.5 -35.5t-33.5 -14.5t-34 14.5t-14 35.5z" />
    <glyph glyph-name="uniFB58" unicode="&#x67e;" horiz-adv-x="264" arabic-form="initial" 
d="M132 408q0 15 8 24.5t26 9.5q8 0 16.5 -2.5t11.5 -4.5v-435h-209v58h147v350zM-23 -131q0 21 14 35.5t34 14.5t33.5 -14.5t13.5 -35.5t-13.5 -35.5t-33.5 -14.5t-34 14.5t-14 35.5zM126 -131q0 21 14 35.5t34 14.5t33.5 -14.5t13.5 -35.5t-13.5 -35.5t-33.5 -14.5
t-34 14.5t-14 35.5zM53 -261q0 21 14 35.5t34 14.5t33.5 -14.5t13.5 -35.5t-13.5 -35.5t-33.5 -14.5t-34 14.5t-14 35.5z" />
    <glyph glyph-name="uniFB56" unicode="&#x67e;" horiz-adv-x="790" arabic-form="isolated" 
d="M117 345q-8 -25 -11 -47.5t-3 -43.5q0 -45 14 -81t44 -61.5t77.5 -39.5t114.5 -14h306v350q0 15 8.5 24.5t25.5 9.5q9 0 16.5 -2.5t11.5 -4.5v-435h-384q-89 0 -146.5 24.5t-90.5 62t-46 82t-13 84.5q0 58 12.5 79t30.5 21q17 0 33 -8zM303 -131q0 21 14 35.5t34 14.5
t33.5 -14.5t13.5 -35.5t-13.5 -35.5t-33.5 -14.5t-34 14.5t-14 35.5zM452 -131q0 21 14 35.5t34 14.5t33.5 -14.5t13.5 -35.5t-13.5 -35.5t-33.5 -14.5t-34 14.5t-14 35.5zM379 -261q0 21 14 35.5t34 14.5t33.5 -14.5t13.5 -35.5t-13.5 -35.5t-33.5 -14.5t-34 14.5t-14 35.5
z" />
    <glyph glyph-name="uniFB7B" unicode="&#x686;" horiz-adv-x="650" arabic-form="final" 
d="M205 442q41 0 79 -18.5t72.5 -49.5t65 -71t56.5 -82.5t47.5 -85t37.5 -77.5h102v-58h-343q-215 0 -215 -182q0 -47 17 -80t46.5 -55t68 -32t80.5 -10q108 0 211 59l29 -47q-44 -28 -108.5 -48t-132.5 -20q-53 0 -103 12.5t-89 40.5t-62.5 72.5t-23.5 108.5
q0 112 68 175.5t202 63.5h185q-41 77 -77.5 137.5t-72 102.5t-71.5 64t-75 22q-35 0 -57 -12q-15 16 -15 31q0 17 21 28t57 11zM300 -250q0 21 13.5 35.5t33.5 14.5t34 -14.5t14 -35.5t-14 -35.5t-34 -14.5t-33.5 14.5t-13.5 35.5zM373 -120q0 21 13.5 35.5t33.5 14.5
t34 -14.5t14 -35.5t-14 -35.5t-34 -14.5t-33.5 14.5t-13.5 35.5zM224 -120q0 21 13.5 35.5t33.5 14.5t34 -14.5t14 -35.5t-14 -35.5t-34 -14.5t-33.5 14.5t-13.5 35.5z" />
    <glyph glyph-name="uniFB7D" unicode="&#x686;" horiz-adv-x="559" arabic-form="medial" 
d="M419 58q-32 58 -65.5 112t-62.5 89q-26 31 -48.5 54.5t-44.5 39t-43.5 23.5t-46.5 8q-35 0 -57 -12q-15 16 -15 31q0 17 24.5 28t60.5 11q33 0 63 -12t58.5 -33t55 -49.5t52.5 -61.5q21 -26 40.5 -56t37.5 -60.5l33.5 -59l27.5 -52.5h85v-58h-589v58h434zM105 -131
q0 21 14 35.5t34 14.5t33.5 -14.5t13.5 -35.5t-13.5 -35.5t-33.5 -14.5t-34 14.5t-14 35.5zM254 -131q0 21 14 35.5t34 14.5t33.5 -14.5t13.5 -35.5t-13.5 -35.5t-33.5 -14.5t-34 14.5t-14 35.5zM181 -261q0 21 14 35.5t34 14.5t33.5 -14.5t13.5 -35.5t-13.5 -35.5
t-33.5 -14.5t-34 14.5t-14 35.5z" />
    <glyph glyph-name="uniFB7C" unicode="&#x686;" horiz-adv-x="534" arabic-form="initial" 
d="M412 58q-32 58 -65.5 112t-62.5 89q-26 31 -48.5 54.5t-44.5 39t-43.5 23.5t-46.5 8q-35 0 -57 -12q-15 16 -15 31q0 17 24.5 28t60.5 11q33 0 63 -12t58.5 -33t55 -49.5t52.5 -61.5q21 -26 41 -56.5t38.5 -62t34 -61l27.5 -53.5v-53h-499v58h427zM98 -131q0 21 14 35.5
t34 14.5t33.5 -14.5t13.5 -35.5t-13.5 -35.5t-33.5 -14.5t-34 14.5t-14 35.5zM247 -131q0 21 14 35.5t34 14.5t33.5 -14.5t13.5 -35.5t-13.5 -35.5t-33.5 -14.5t-34 14.5t-14 35.5zM174 -261q0 21 14 35.5t34 14.5t33.5 -14.5t13.5 -35.5t-13.5 -35.5t-33.5 -14.5t-34 14.5
t-14 35.5z" />
    <glyph glyph-name="uniFB7A" unicode="&#x686;" horiz-adv-x="613" arabic-form="isolated" 
d="M205 442q41 0 79 -18.5t72.5 -49.5t65 -71t56.5 -82.5t47.5 -85t37.5 -77.5v-58h-241q-215 0 -215 -182q0 -47 17 -80t46.5 -55t68 -32t80.5 -10q108 0 211 59l29 -47q-44 -28 -108.5 -48t-132.5 -20q-53 0 -103 12.5t-89 40.5t-62.5 72.5t-23.5 108.5q0 112 68 175.5
t202 63.5h185q-41 77 -77.5 137.5t-72 102.5t-71.5 64t-75 22q-35 0 -57 -12q-15 16 -15 31q0 17 21 28t57 11zM300 -250q0 21 13.5 35.5t33.5 14.5t34 -14.5t14 -35.5t-14 -35.5t-34 -14.5t-33.5 14.5t-13.5 35.5zM373 -120q0 21 13.5 35.5t33.5 14.5t34 -14.5t14 -35.5
t-14 -35.5t-34 -14.5t-33.5 14.5t-13.5 35.5zM224 -120q0 21 13.5 35.5t33.5 14.5t34 -14.5t14 -35.5t-14 -35.5t-34 -14.5t-33.5 14.5t-13.5 35.5z" />
    <glyph glyph-name="uniFB89" unicode="&#x688;" horiz-adv-x="661" arabic-form="final" 
d="M480 132q0 74 -20.5 122.5t-53.5 77.5t-74.5 40.5t-82.5 11.5q-35 0 -67 -7.5t-57 -21.5q-10 10 -13 18.5t-3 16.5q0 12 10.5 21.5t29 16t43 10.5t53.5 4q48 0 100 -13.5t96 -46.5t72.5 -89.5t28.5 -143.5v-91h134v-58h-626v58h430v74zM373 568v22q0 26 -14.5 38.5
t-34.5 12.5q-12 0 -25 -4t-23.5 -13t-17 -23t-6.5 -33h121zM252 645q14 20 34 30t42 10q36 0 63.5 -22t27.5 -72v-65h-247v42h34v157q0 9 6.5 16t17.5 7q5 0 11 -1.5t11 -5.5v-96z" />
    <glyph glyph-name="uniFB88" unicode="&#x688;" horiz-adv-x="602" arabic-form="isolated" 
d="M480 132q0 74 -20.5 122.5t-53.5 77.5t-74.5 40.5t-82.5 11.5q-35 0 -67 -7.5t-57 -21.5q-10 10 -13 18.5t-3 16.5q0 12 10.5 21.5t29 16t43 10.5t53.5 4q48 0 100 -13.5t96 -46.5t72.5 -89.5t28.5 -143.5v-149h-492v58h430v74zM373 568v22q0 26 -14.5 38.5t-34.5 12.5
q-12 0 -25 -4t-23.5 -13t-17 -23t-6.5 -33h121zM252 645q14 20 34 30t42 10q36 0 63.5 -22t27.5 -72v-65h-247v42h34v157q0 9 6.5 16t17.5 7q5 0 11 -1.5t11 -5.5v-96z" />
    <glyph glyph-name="uniFB8D" unicode="&#x691;" horiz-adv-x="413" arabic-form="final" 
d="M199 408q0 15 8 24.5t26 9.5q8 0 16.5 -2.5t11.5 -4.5v-377h167v-58h-167v-64q0 -48 -13.5 -80t-35.5 -51t-50 -27t-57 -8q-32 0 -57 6.5t-38 11.5l17 52q11 -5 29 -9.5t44 -4.5q17 0 34.5 3t32 14.5t23.5 32.5t9 57v475zM313 568v22q0 26 -14.5 38.5t-34.5 12.5
q-12 0 -25 -4t-23.5 -13t-17 -23t-6.5 -33h121zM192 645q14 20 34 30t42 10q36 0 63.5 -22t27.5 -72v-65h-247v42h34v157q0 9 6.5 16t17.5 7q5 0 11 -1.5t11 -5.5v-96z" />
    <glyph glyph-name="uniFB8C" unicode="&#x691;" horiz-adv-x="327" arabic-form="isolated" 
d="M199 408q0 15 8 24.5t26 9.5q8 0 16.5 -2.5t11.5 -4.5v-499q0 -48 -13.5 -80t-35.5 -51t-50 -27t-57 -8q-32 0 -57 6.5t-38 11.5l17 52q11 -5 29 -9.5t44 -4.5q17 0 34.5 3t32 14.5t23.5 32.5t9 57v475zM299 568v22q0 26 -14.5 38.5t-34.5 12.5q-12 0 -25 -4t-23.5 -13
t-17 -23t-6.5 -33h121zM178 645q14 20 34 30t42 10q36 0 63.5 -22t27.5 -72v-65h-247v42h34v157q0 9 6.5 16t17.5 7q5 0 11 -1.5t11 -5.5v-96z" />
    <glyph glyph-name="uniFB8B" unicode="&#x698;" horiz-adv-x="413" arabic-form="final" 
d="M199 408q0 15 8 24.5t26 9.5q8 0 16.5 -2.5t11.5 -4.5v-377h167v-58h-167v-64q0 -48 -13.5 -80t-35.5 -51t-50 -27t-57 -8q-32 0 -57 6.5t-38 11.5l17 52q11 -5 29 -9.5t44 -4.5q17 0 34.5 3t32 14.5t23.5 32.5t9 57v475zM185 700q0 21 14 35.5t34 14.5t33.5 -14.5
t13.5 -35.5t-13.5 -35.5t-33.5 -14.5t-34 14.5t-14 35.5zM258 570q0 21 14 35.5t34 14.5t33.5 -14.5t13.5 -35.5t-13.5 -35.5t-33.5 -14.5t-34 14.5t-14 35.5zM109 570q0 21 14 35.5t34 14.5t33.5 -14.5t13.5 -35.5t-13.5 -35.5t-33.5 -14.5t-34 14.5t-14 35.5z" />
    <glyph glyph-name="uniFB8A" unicode="&#x698;" horiz-adv-x="341" arabic-form="isolated" 
d="M199 408q0 15 8 24.5t26 9.5q8 0 16.5 -2.5t11.5 -4.5v-499q0 -48 -13.5 -80t-35.5 -51t-50 -27t-57 -8q-32 0 -57 6.5t-38 11.5l17 52q11 -5 29 -9.5t44 -4.5q17 0 34.5 3t32 14.5t23.5 32.5t9 57v475zM186 700q0 21 14 35.5t34 14.5t33.5 -14.5t13.5 -35.5t-13.5 -35.5
t-33.5 -14.5t-34 14.5t-14 35.5zM259 570q0 21 14 35.5t34 14.5t33.5 -14.5t13.5 -35.5t-13.5 -35.5t-33.5 -14.5t-34 14.5t-14 35.5zM110 570q0 21 14 35.5t34 14.5t33.5 -14.5t13.5 -35.5t-13.5 -35.5t-33.5 -14.5t-34 14.5t-14 35.5z" />
    <glyph glyph-name="uniFB6B" unicode="&#x6a4;" horiz-adv-x="1006" arabic-form="final" 
d="M1021 0h-685q-89 0 -146.5 24.5t-90.5 62t-46 82t-13 84.5q0 58 12.5 79t30.5 21q17 0 33 -8q-8 -25 -11 -47.5t-3 -43.5q0 -45 14 -81t44 -61.5t77.5 -39.5t114.5 -14h182q-32 28 -50 67.5t-18 90.5q0 55 16 97.5t44.5 71t67.5 43t84 14.5q47 0 85.5 -16t66.5 -45
t43 -71t15 -94v-158h133v-58zM826 206q0 45 -11 78t-30.5 55.5t-47 33.5t-59.5 11q-65 0 -105.5 -39t-40.5 -129q0 -33 10 -61.5t28.5 -50t45.5 -34t62 -12.5h148v148zM640 691q0 21 14 35.5t34 14.5t33.5 -14.5t13.5 -35.5t-13.5 -35.5t-33.5 -14.5t-34 14.5t-14 35.5z
M713 561q0 21 14 35.5t34 14.5t33.5 -14.5t13.5 -35.5t-13.5 -35.5t-33.5 -14.5t-34 14.5t-14 35.5zM564 561q0 21 14 35.5t34 14.5t33.5 -14.5t13.5 -35.5t-13.5 -35.5t-33.5 -14.5t-34 14.5t-14 35.5z" />
    <glyph glyph-name="uniFB6D" unicode="&#x6a4;" horiz-adv-x="635" arabic-form="medial" 
d="M-15 58h189q-34 32 -50.5 73t-16.5 87q0 43 14 83t41 71.5t66 50.5t89 19q52 0 92 -17t66 -46.5t39.5 -69t13.5 -84.5q0 -48 -16.5 -90t-51.5 -77h190v-58h-665v58zM463 221q0 85 -40 124t-106 39q-36 0 -63 -13t-45 -35.5t-27 -52.5t-9 -64q0 -32 9 -61t27 -52t45 -36.5
t63 -13.5q66 0 106 43.5t40 121.5zM280 700q0 21 14 35.5t34 14.5t33.5 -14.5t13.5 -35.5t-13.5 -35.5t-33.5 -14.5t-34 14.5t-14 35.5zM353 570q0 21 14 35.5t34 14.5t33.5 -14.5t13.5 -35.5t-13.5 -35.5t-33.5 -14.5t-34 14.5t-14 35.5zM204 570q0 21 14 35.5t34 14.5
t33.5 -14.5t13.5 -35.5t-13.5 -35.5t-33.5 -14.5t-34 14.5t-14 35.5z" />
    <glyph glyph-name="uniFB6C" unicode="&#x6a4;" horiz-adv-x="589" arabic-form="initial" 
d="M529 0h-544v58h190q-32 28 -50 67.5t-18 90.5q0 55 16 97.5t44.5 71t67.5 43t84 14.5q47 0 85.5 -16t66.5 -45t43 -71t15 -94v-216zM467 206q0 45 -11 78t-30.5 55.5t-47 33.5t-59.5 11q-65 0 -105.5 -39t-40.5 -129q0 -33 10 -61.5t28.5 -50t45.5 -34t62 -12.5h148v148z
M275 700q0 21 14 35.5t34 14.5t33.5 -14.5t13.5 -35.5t-13.5 -35.5t-33.5 -14.5t-34 14.5t-14 35.5zM348 570q0 21 14 35.5t34 14.5t33.5 -14.5t13.5 -35.5t-13.5 -35.5t-33.5 -14.5t-34 14.5t-14 35.5zM199 570q0 21 14 35.5t34 14.5t33.5 -14.5t13.5 -35.5t-13.5 -35.5
t-33.5 -14.5t-34 14.5t-14 35.5z" />
    <glyph glyph-name="uniFB6A" unicode="&#x6a4;" horiz-adv-x="948" arabic-form="isolated" 
d="M888 0h-552q-89 0 -146.5 24.5t-90.5 62t-46 82t-13 84.5q0 58 12.5 79t30.5 21q17 0 33 -8q-8 -25 -11 -47.5t-3 -43.5q0 -45 14 -81t44 -61.5t77.5 -39.5t114.5 -14h182q-32 28 -50 67.5t-18 90.5q0 55 16 97.5t44.5 71t67.5 43t84 14.5q47 0 85.5 -16t66.5 -45t43 -71
t15 -94v-216zM826 206q0 45 -11 78t-30.5 55.5t-47 33.5t-59.5 11q-65 0 -105.5 -39t-40.5 -129q0 -33 10 -61.5t28.5 -50t45.5 -34t62 -12.5h148v148zM639 700q0 21 14 35.5t34 14.5t33.5 -14.5t13.5 -35.5t-13.5 -35.5t-33.5 -14.5t-34 14.5t-14 35.5zM712 570
q0 21 14 35.5t34 14.5t33.5 -14.5t13.5 -35.5t-13.5 -35.5t-33.5 -14.5t-34 14.5t-14 35.5zM563 570q0 21 14 35.5t34 14.5t33.5 -14.5t13.5 -35.5t-13.5 -35.5t-33.5 -14.5t-34 14.5t-14 35.5z" />
    <glyph glyph-name="uniFB8F" unicode="&#x6a9;" horiz-adv-x="914" arabic-form="final" 
d="M336 0q-89 0 -146.5 24.5t-90.5 62t-46 82t-13 84.5q0 58 12.5 79t30.5 21q17 0 33 -8q-8 -25 -11 -47.5t-3 -43.5q0 -45 14 -81t44 -61.5t77.5 -39.5t114.5 -14h382v74q0 74 -20.5 122.5t-53.5 77.5t-74.5 40.5t-82.5 11.5q-35 0 -67 -7.5t-57 -21.5q-10 10 -13 18.5
t-3 16.5q0 12 10 21l361 354q17 16 28 19t21 3q25 0 41 -22l-337 -323h12q48 0 100 -13.5t96 -46.5t72.5 -89.5t28.5 -143.5v-91h133v-58h-593z" />
    <glyph glyph-name="uniFB91" unicode="&#x6a9;" horiz-adv-x="595" arabic-form="medial" 
d="M-15 0v58h430v74q0 74 -20.5 122.5t-53.5 77.5t-74.5 40.5t-82.5 11.5q-35 0 -67 -7.5t-57 -21.5q-10 10 -13 18.5t-3 16.5q0 12 10 21l361 354q17 16 28 19t21 3q25 0 41 -22l-337 -323h12q48 0 100 -13.5t96 -46.5t72.5 -89.5t28.5 -143.5v-91h133v-58h-625z" />
    <glyph glyph-name="uniFB90" unicode="&#x6a9;" horiz-adv-x="537" arabic-form="initial" 
d="M168 442h12q48 0 100 -13.5t96 -46.5t72.5 -89.5t28.5 -143.5v-149h-492v58h430v74q0 74 -20.5 122.5t-53.5 77.5t-74.5 40.5t-82.5 11.5q-35 0 -67 -7.5t-57 -21.5q-10 10 -13 18.5t-3 16.5q0 12 10 21l361 354q17 16 28 19t21 3q25 0 41 -22z" />
    <glyph glyph-name="uniFB8E" unicode="&#x6a9;" horiz-adv-x="856" arabic-form="isolated" 
d="M487 442h12q48 0 100 -13.5t96 -46.5t72.5 -89.5t28.5 -143.5v-149h-460q-89 0 -146.5 24.5t-90.5 62t-46 82t-13 84.5q0 58 12.5 79t30.5 21q17 0 33 -8q-8 -25 -11 -47.5t-3 -43.5q0 -45 14 -81t44 -61.5t77.5 -39.5t114.5 -14h382v74q0 74 -20.5 122.5t-53.5 77.5
t-74.5 40.5t-82.5 11.5q-35 0 -67 -7.5t-57 -21.5q-10 10 -13 18.5t-3 16.5q0 12 10 21l361 354q17 16 28 19t21 3q25 0 41 -22z" />
    <glyph glyph-name="uniFB93" unicode="&#x6af;" horiz-adv-x="914" arabic-form="final" 
d="M336 0q-89 0 -146.5 24.5t-90.5 62t-46 82t-13 84.5q0 58 12.5 79t30.5 21q17 0 33 -8q-8 -25 -11 -47.5t-3 -43.5q0 -45 14 -81t44 -61.5t77.5 -39.5t114.5 -14h382v74q0 74 -20.5 122.5t-53.5 77.5t-74.5 40.5t-82.5 11.5q-35 0 -67 -7.5t-57 -21.5q-10 10 -13 18.5
t-3 16.5q0 12 10 21l361 354q17 16 28 19t21 3q25 0 41 -22l-337 -323h12q48 0 100 -13.5t96 -46.5t72.5 -89.5t28.5 -143.5v-91h133v-58h-593zM618 836q17 15 28 18.5t21 3.5q25 0 41 -22l-403 -393q-12 11 -16 21t-4 20q0 17 11 32t26 29z" />
    <glyph glyph-name="uniFB95" unicode="&#x6af;" horiz-adv-x="678" arabic-form="medial" 
d="M-15 0v58h513v74q0 74 -20.5 122.5t-53.5 77.5t-74.5 40.5t-82.5 11.5q-35 0 -67 -7.5t-57 -21.5q-10 10 -13 18.5t-3 16.5q0 12 10 21l361 354q17 16 28 19t21 3q25 0 41 -22l-337 -323h12q48 0 100 -13.5t96 -46.5t72.5 -89.5t28.5 -143.5v-91h133v-58h-708zM383 836
q17 15 28 18.5t21 3.5q25 0 41 -22l-403 -393q-12 11 -16 21t-4 20q0 17 11 32t26 29z" />
    <glyph glyph-name="uniFB94" unicode="&#x6af;" horiz-adv-x="619" arabic-form="initial" 
d="M250 442h12q48 0 100 -13.5t96 -46.5t72.5 -89.5t28.5 -143.5v-149h-574v58h512v74q0 74 -20.5 122.5t-53.5 77.5t-74.5 40.5t-82.5 11.5q-35 0 -67 -7.5t-57 -21.5q-10 10 -13 18.5t-3 16.5q0 12 10 21l361 354q17 16 28 19t21 3q25 0 41 -22zM382 836q17 15 28 18.5
t21 3.5q25 0 41 -22l-403 -393q-12 11 -16 21t-4 20q0 17 11 32t26 29z" />
    <glyph glyph-name="uniFB92" unicode="&#x6af;" horiz-adv-x="856" arabic-form="isolated" 
d="M487 442h12q48 0 100 -13.5t96 -46.5t72.5 -89.5t28.5 -143.5v-149h-460q-89 0 -146.5 24.5t-90.5 62t-46 82t-13 84.5q0 58 12.5 79t30.5 21q17 0 33 -8q-8 -25 -11 -47.5t-3 -43.5q0 -45 14 -81t44 -61.5t77.5 -39.5t114.5 -14h382v74q0 74 -20.5 122.5t-53.5 77.5
t-74.5 40.5t-82.5 11.5q-35 0 -67 -7.5t-57 -21.5q-10 10 -13 18.5t-3 16.5q0 12 10 21l361 354q17 16 28 19t21 3q25 0 41 -22zM618 836q17 15 28 18.5t21 3.5q25 0 41 -22l-403 -393q-12 11 -16 21t-4 20q0 17 11 32t26 29z" />
    <glyph glyph-name="uniFB9F" unicode="&#x6ba;" horiz-adv-x="694" arabic-form="final" 
d="M547 212q0 -35 5 -63.5t18 -48.5t36.5 -31t61.5 -11h41v-58h-41q-44 0 -74 9.5t-48 32.5q-5 -133 -68 -201.5t-184 -68.5q-75 0 -124 23.5t-78 61.5t-40.5 85.5t-11.5 94.5q0 24 3.5 65t15.5 77q5 15 13.5 23t23.5 8q7 0 16.5 -2t16.5 -6q-13 -40 -19 -80t-6 -78
q0 -47 10 -87.5t32.5 -69.5t59 -45.5t89.5 -16.5q38 0 72.5 9.5t60.5 37.5t41.5 79t15.5 133v324q0 15 8 24.5t26 9.5q8 0 16 -2.5t12 -4.5v-223z" />
    <glyph glyph-name="uniFB9E" unicode="&#x6ba;" horiz-adv-x="617" arabic-form="isolated" 
d="M547 68q0 -146 -62.5 -221t-190.5 -75q-75 0 -124 23.5t-78 61.5t-40.5 85.5t-11.5 94.5q0 24 3.5 65t15.5 77q5 15 13.5 23t23.5 8q7 0 16.5 -2t16.5 -6q-13 -40 -19 -80t-6 -78q0 -47 10 -87.5t32.5 -69.5t59 -45.5t89.5 -16.5q38 0 72.5 9.5t60.5 37.5t41.5 79
t15.5 133v324q0 15 8 24.5t26 9.5q8 0 16 -2.5t12 -4.5v-367z" />
    <glyph glyph-name="uniFBAB" unicode="&#x6be;" horiz-adv-x="870" arabic-form="final" 
d="M382 547q0 15 8 24.5t26 9.5q8 0 16.5 -2.5t11.5 -4.5v-132h294v-384h147v-58h-589q-122 0 -179 58t-57 158q0 55 20 97.5t55 71t81.5 43t99.5 14.5h66v105zM676 58v326h-232v-326h232zM382 384h-70q-39 0 -73 -10t-59 -31t-39.5 -52.5t-14.5 -74.5q0 -25 3.5 -47
t13.5 -40.5t27.5 -33.5t46.5 -25q14 -5 36.5 -8.5t44.5 -3.5h84v326z" />
    <glyph glyph-name="uniFBAD" unicode="&#x6be;" horiz-adv-x="917" arabic-form="medial" 
d="M-15 0v58h188q-33 29 -49.5 69.5t-16.5 88.5q0 55 20 97.5t55 71t81.5 43t99.5 14.5h66v105q0 15 8 24.5t26 9.5q8 0 16.5 -2.5t11.5 -4.5v-132h294v-384h147v-58h-947zM723 58v326h-232v-326h232zM429 384h-70q-39 0 -73 -10t-59 -31t-39.5 -52.5t-14.5 -74.5
q0 -21 3.5 -42.5t13.5 -41t27.5 -36t46.5 -26.5q14 -5 36.5 -8.5t44.5 -3.5h84v326z" />
    <glyph glyph-name="uniFBAC" unicode="&#x6be;" horiz-adv-x="855" arabic-form="initial" 
d="M-15 0v58h188q-33 29 -49.5 69.5t-16.5 88.5q0 55 20 97.5t55 71t81.5 43t99.5 14.5h66v105q0 15 8 24.5t26 9.5q8 0 16.5 -2.5t11.5 -4.5v-132h294v-442h-800zM723 58v326h-232v-326h232zM429 384h-70q-39 0 -73 -10t-59 -31t-39.5 -52.5t-14.5 -74.5q0 -21 3.5 -42.5
t13.5 -41t27.5 -36t46.5 -26.5q14 -5 36.5 -8.5t44.5 -3.5h84v326z" />
    <glyph glyph-name="uniFBAA" unicode="&#x6be;" horiz-adv-x="808" arabic-form="isolated" 
d="M382 547q0 15 8 24.5t26 9.5q8 0 16.5 -2.5t11.5 -4.5v-132h294v-442h-442q-122 0 -179 58t-57 158q0 55 20 97.5t55 71t81.5 43t99.5 14.5h66v105zM676 58v326h-232v-326h232zM382 384h-70q-39 0 -73 -10t-59 -31t-39.5 -52.5t-14.5 -74.5q0 -25 3.5 -47t13.5 -40.5
t27.5 -33.5t46.5 -25q14 -5 36.5 -8.5t44.5 -3.5h84v326z" />
    <glyph glyph-name="uniFBA5" unicode="&#x6c0;" horiz-adv-x="582" arabic-form="final" 
d="M296 0q-122 0 -179 58t-57 158q0 55 20 97.5t55 71t81.5 43t99.5 14.5h148v-384h133v-58h-301zM402 384h-90q-39 0 -73 -10t-59 -31t-39.5 -52.5t-14.5 -74.5q0 -25 3.5 -47t13.5 -40.5t27.5 -33.5t46.5 -25q14 -5 36.5 -8.5t44.5 -3.5h104v326zM207 577h49
q-12 11 -17.5 25t-5.5 28q0 20 8 34.5t21 23.5t29 13.5t32 4.5q23 0 39.5 -8.5t16.5 -22.5q0 -6 -2.5 -12t-10.5 -14q-17 15 -42 15q-17 0 -30 -9.5t-13 -30.5q0 -17 12.5 -32t38.5 -15h49v-42h-174v42z" />
    <glyph glyph-name="uniFBA4" unicode="&#x6c0;" horiz-adv-x="534" arabic-form="isolated" 
d="M296 0q-122 0 -179 58t-57 158q0 55 20 97.5t55 71t81.5 43t99.5 14.5h148v-442h-168zM402 384h-90q-39 0 -73 -10t-59 -31t-39.5 -52.5t-14.5 -74.5q0 -25 3.5 -47t13.5 -40.5t27.5 -33.5t46.5 -25q14 -5 36.5 -8.5t44.5 -3.5h104v326zM207 577h49q-12 11 -17.5 25
t-5.5 28q0 20 8 34.5t21 23.5t29 13.5t32 4.5q23 0 39.5 -8.5t16.5 -22.5q0 -6 -2.5 -12t-10.5 -14q-17 15 -42 15q-17 0 -30 -9.5t-13 -30.5q0 -17 12.5 -32t38.5 -15h49v-42h-174v42z" />
    <glyph glyph-name="uniFBA7" unicode="&#x6c1;" horiz-adv-x="430" arabic-form="final" 
d="M116 280q46 0 80.5 -25t62.5 -58q28 -32 48.5 -71l36.5 -68h101v-58h-136l-55.5 100.5t-38.5 56.5q-23 27 -50 46t-56 19q-11 0 -21.5 -2t-19.5 -7q-18 13 -18 31t21 27t45 9z" />
    <glyph glyph-name="uniFBA9" unicode="&#x6c1;" horiz-adv-x="346" arabic-form="medial" 
d="M175 -17q25 42 60 59t92 17h34v-58h-34q-39 0 -63 -12t-37 -34.5t-17 -53.5t-4 -70v-89h-62v90q0 38 -4 69.5t-17 53.5t-37 34t-63 12h-38v58h38q58 0 96.5 -20.5t55.5 -55.5zM78 -141q-6 -5 -13.5 -13t-15 -17.5t-13.5 -21.5t-8 -26q48 -5 48 -48q0 -20 -12.5 -33
t-34.5 -13q-20 0 -35.5 15t-15.5 50q0 24 7.5 45t18.5 37.5t22.5 28.5t20.5 20z" />
    <glyph glyph-name="uniFBA8" unicode="&#x6c1;" horiz-adv-x="264" arabic-form="initial" 
d="M132 408q0 15 8 24.5t26 9.5q8 0 16.5 -2.5t11.5 -4.5v-435h-209v58h147v350zM148 -91q-6 -5 -13.5 -13t-15 -17.5t-13.5 -21.5t-8 -26q48 -5 48 -48q0 -20 -12.5 -33t-34.5 -13q-20 0 -35.5 15t-15.5 50q0 24 7.5 45t18.5 37.5t22.5 28.5t20.5 20z" />
    <glyph glyph-name="uniFBA6" unicode="&#x6c1;" horiz-adv-x="534" arabic-form="isolated" 
d="M296 0q-122 0 -179 58t-57 158q0 55 20 97.5t55 71t81.5 43t99.5 14.5h148v-442h-168zM402 384h-90q-39 0 -73 -10t-59 -31t-39.5 -52.5t-14.5 -74.5q0 -25 3.5 -47t13.5 -40.5t27.5 -33.5t46.5 -25q14 -5 36.5 -8.5t44.5 -3.5h104v326z" />
    <glyph glyph-name="uni06C2.fina" unicode="&#x6c2;" horiz-adv-x="430" 
d="M116 280q46 0 80.5 -25t62.5 -58q28 -32 48.5 -71l36.5 -68h101v-58h-136l-55.5 100.5t-38.5 56.5q-23 27 -50 46t-56 19q-11 0 -21.5 -2t-19.5 -7q-18 13 -18 31t21 27t45 9zM108 401h49q-12 11 -17.5 25t-5.5 28q0 20 8 34.5t21 23.5t29 13.5t32 4.5q23 0 39.5 -8.5
t16.5 -22.5q0 -6 -2.5 -12t-10.5 -14q-17 15 -42 15q-17 0 -30 -9.5t-13 -30.5q0 -17 12.5 -32t38.5 -15h49v-42h-174v42z" />
    <glyph glyph-name="uni06C3.fina" unicode="&#x6c3;" horiz-adv-x="430" 
d="M116 280q46 0 80.5 -25t62.5 -58q28 -32 48.5 -71l36.5 -68h101v-58h-136l-55.5 100.5t-38.5 56.5q-23 27 -50 46t-56 19q-11 0 -21.5 -2t-19.5 -7q-18 13 -18 31t21 27t45 9zM63 420q0 21 14 35.5t34 14.5t33.5 -14.5t13.5 -35.5t-13.5 -35.5t-33.5 -14.5t-34 14.5
t-14 35.5zM212 420q0 21 14 35.5t34 14.5t33.5 -14.5t13.5 -35.5t-13.5 -35.5t-33.5 -14.5t-34 14.5t-14 35.5z" />
    <glyph glyph-name="uniFBFD" unicode="&#x6cc;" horiz-adv-x="959" arabic-form="final" 
d="M298 -230q-77 0 -126.5 24t-79 62t-41 86t-11.5 95q0 24 3.5 65t15.5 77q5 15 13.5 23t23.5 8q7 0 16.5 -2t16.5 -6q-13 -40 -19 -80t-6 -78q0 -47 10 -87t32.5 -68.5t58 -44.5t86.5 -16h177v575l30.5 11t44.5 13t54 10.5t58 4.5q97 0 141.5 -47.5t44.5 -142.5v-194h133
v-58h-195v224q0 43 -6 73.5t-20 50t-38 28t-60 8.5q-43 0 -77.5 -10t-47.5 -15v-589h-232z" />
    <glyph glyph-name="uniFBFF" unicode="&#x6cc;" horiz-adv-x="346" arabic-form="medial" 
d="M171 76q-25 -42 -60 -59t-92 -17h-34v58h34q39 0 63 12t37 34.5t17 53.5t4 70v180q0 15 8 24.5t26 9.5q8 0 16.5 -2.5t11.5 -4.5v-208q0 -38 4 -69.5t17 -53.5t37 -34t63 -12h38v-58h-38q-58 0 -96.5 20.5t-55.5 55.5zM49 -131q0 21 14 35.5t34 14.5t33.5 -14.5
t13.5 -35.5t-13.5 -35.5t-33.5 -14.5t-34 14.5t-14 35.5zM198 -131q0 21 14 35.5t34 14.5t33.5 -14.5t13.5 -35.5t-13.5 -35.5t-33.5 -14.5t-34 14.5t-14 35.5z" />
    <glyph glyph-name="uniFBFE" unicode="&#x6cc;" horiz-adv-x="264" arabic-form="initial" 
d="M132 408q0 15 8 24.5t26 9.5q8 0 16.5 -2.5t11.5 -4.5v-435h-209v58h147v350zM-13 -131q0 21 14 35.5t34 14.5t33.5 -14.5t13.5 -35.5t-13.5 -35.5t-33.5 -14.5t-34 14.5t-14 35.5zM136 -131q0 21 14 35.5t34 14.5t33.5 -14.5t13.5 -35.5t-13.5 -35.5t-33.5 -14.5
t-34 14.5t-14 35.5z" />
    <glyph glyph-name="uniFBFC" unicode="&#x6cc;" horiz-adv-x="716" arabic-form="isolated" 
d="M298 -230q-77 0 -126.5 24t-79 62t-41 86t-11.5 95q0 24 3.5 65t15.5 77q5 15 13.5 23t23.5 8q7 0 16.5 -2t16.5 -6q-13 -40 -19 -80t-6 -78q0 -47 10 -87t32.5 -68.5t58 -44.5t86.5 -16h177v586q29 13 68.5 20.5t75.5 7.5q35 0 59.5 -9t24.5 -30q0 -15 -15 -31
q-16 7 -31.5 9.5t-31.5 2.5q-23 0 -44.5 -4.5t-43.5 -10.5v-599h-232z" />
    <glyph glyph-name="uniFBAF" unicode="&#x6d2;" horiz-adv-x="572" arabic-form="final" 
d="M116 -139q0 -31 9 -56.5t31 -43.5t57 -28t88 -10h186v-58h-181q-127 0 -191.5 53t-64.5 143t59.5 143.5t186.5 53.5h291v-58h-286q-53 0 -88 -10t-57 -28.5t-31 -44t-9 -56.5z" />
    <glyph glyph-name="uniFBAE" unicode="&#x6d2;" horiz-adv-x="696" arabic-form="isolated" 
d="M318 344q14 15 25.5 18t20.5 3q23 0 38 -21l-273 -286h517v-58h-596v53z" />
    <glyph glyph-name="uniFBB1" unicode="&#x6d3;" horiz-adv-x="572" arabic-form="final" 
d="M116 -139q0 -31 9 -56.5t31 -43.5t57 -28t88 -10h186v-58h-181q-127 0 -191.5 53t-64.5 143t59.5 143.5t186.5 53.5h291v-58h-286q-53 0 -88 -10t-57 -28.5t-31 -44t-9 -56.5zM34 180h49q-12 11 -17.5 25t-5.5 28q0 20 8 34.5t21 23.5t29 13.5t32 4.5q23 0 39.5 -8.5
t16.5 -22.5q0 -6 -2.5 -12t-10.5 -14q-17 15 -42 15q-17 0 -30 -9.5t-13 -30.5q0 -17 12.5 -32t38.5 -15h49v-42h-174v42z" />
    <glyph glyph-name="uniFBB0" unicode="&#x6d3;" horiz-adv-x="696" arabic-form="isolated" 
d="M318 344q14 15 25.5 18t20.5 3q23 0 38 -21l-273 -286h517v-58h-596v53zM46 407h49q-12 11 -17.5 25t-5.5 28q0 20 8 34.5t21 23.5t29 13.5t32 4.5q23 0 39.5 -8.5t16.5 -22.5q0 -6 -2.5 -12t-10.5 -14q-17 15 -42 15q-17 0 -30 -9.5t-13 -30.5q0 -17 12.5 -32t38.5 -15
h49v-42h-174v42z" />
    <glyph glyph-name="uni06D5.fina" unicode="&#x6d5;" horiz-adv-x="582" 
d="M296 0q-122 0 -179 58t-57 158q0 55 20 97.5t55 71t81.5 43t99.5 14.5h148v-384h133v-58h-301zM402 384h-90q-39 0 -73 -10t-59 -31t-39.5 -52.5t-14.5 -74.5q0 -25 3.5 -47t13.5 -40.5t27.5 -33.5t46.5 -25q14 -5 36.5 -8.5t44.5 -3.5h104v326z" />
    <glyph glyph-name="uniFDFA" unicode="&#xfdfa;" horiz-adv-x="1065" arabic-form="isolated" 
d="M639 295q9 19 24.5 30.5t43.5 11.5q10 0 21.5 -3t21 -10.5t15.5 -20t6 -32.5v-37h-193q-28 0 -38 19q-11 -19 -38 -19h-64q-26 0 -36 -10t-10 -25t10 -24.5t36 -9.5h206v-14h-207q-32 0 -47 13t-15 35t15 35.5t47 13.5h65q20 0 25 11t5 30v254q0 9 9 9q5 0 7 -2v-261
q0 -19 5 -30t25 -11h46v81q0 8 8 8q5 0 7 -2v-40zM316 310q-11 -19 -38 -19h-65q-27 0 -44 11t-17 39q0 22 16 37.5t50 15.5h35v-89h25q20 0 25 11t5 30v118q0 9 9 9q5 0 7 -2v-125q0 -19 5 -30t25 -11h31v188q0 9 9 9q5 0 7 -2v-209h-47q-28 0 -38 19zM891 -133h-29
q-26 0 -39.5 14.5t-13.5 37.5q0 22 13 36.5t36 14.5t35.5 -14t12.5 -37v-60q0 -28 -15.5 -38t-32.5 -10q-11 0 -19 2t-12 4l6 13q3 -2 9 -4t16 -2t21.5 6t11.5 29v8zM755 248v21q0 29 -12.5 41.5t-36.5 12.5q-32 0 -49.5 -21.5t-17.5 -53.5h116zM236 -83q0 17 -8 28.5
t-25 11.5q-16 0 -24 -11t-8 -27t10 -27t26 -11h29v36zM238 380h-23q-23 0 -35 -11.5t-12 -28.5q0 -22 14.5 -28.5t37.5 -6.5h18v75zM136 151h-23q-23 0 -35 -11.5t-12 -28.5q0 -22 14.5 -28.5t37.5 -6.5h18v75zM447 512q0 9 9 9q5 0 7 -2v-228h-16v221zM631 381q-4 -2 -7 -2
q-7 0 -7 11l138 50q2 1 6 1q8 0 8 -10zM291 524q0 -11 9 -11t9 10v19q0 6 7 6q3 0 5 -2v-23q0 -9 9 -9h9v28q0 6 6 6q4 0 6 -2v-43h-20q-11 0 -16 7q-5 -8 -16 -8q-5 0 -12.5 3.5t-7.5 18.5v18q0 6 6 6q4 0 6 -2v-22zM601 524q0 -11 9 -11t9 10v19q0 6 7 6q3 0 5 -2v-23
q0 -9 9 -9h9v28q0 6 6 6q2 0 6 -2v-43h-20q-11 0 -16 7q-5 -8 -16 -8q-5 0 -12.5 3.5t-7.5 18.5v18q0 6 6 6q2 0 6 -2v-22zM418 -7q0 5 3.5 8.5t8.5 3.5q12 0 12 -12t-12 -12q-5 0 -8.5 3.5t-3.5 8.5zM461 -7q0 12 12 12q5 0 8.5 -3.5t3.5 -8.5t-3.5 -8.5t-8.5 -3.5
q-12 0 -12 12zM897 62q-28 0 -38 19q-11 -19 -38 -19h-22q-28 0 -38 18q-11 -18 -38 -18h-399v-140q0 -19 5 -30t25 -11h242q18 0 24 12.5t6 30.5v38q0 8 9 8q2 0 4 -0.5t3 -0.5v-45q0 -23 3 -34t19 -11q17 0 21 11t4 32v40q0 8 9 8q2 0 4 -0.5t3 -0.5v-47q0 -20 4 -30.5
t21 -10.5h22v81q0 8 9 8q2 0 4 -0.5t3 -0.5v-102h-38q-24 0 -33 19q-5 -10 -13.5 -15t-18.5 -5q-25 0 -32 22q-5 -9 -14 -15t-23 -6h-242q-28 0 -38 19q-6 -10 -14 -14.5t-22 -4.5h-123q-14 0 -14 -16v-37h-15v39q0 11 5 19.5t21 8.5h17q-8 6 -12.5 16.5t-4.5 21.5
q0 22 13 36.5t36 14.5q24 0 36.5 -14.5t12.5 -36.5v-38h26q20 0 25 11t5 30v140h-197q-27 0 -44 11t-17 39q0 22 16 37.5t50 15.5h35v-89h157v181q0 9 9 9q5 0 7 -2v-188h399q20 0 25 11t5 29v41q0 8 9 8q5 0 7 -2v-47q0 -18 5 -29t25 -11h22q20 0 25 11t5 30v347q0 9 9 9
q5 0 7 -2v-354q0 -19 5 -30t25 -11h37q-8 6 -12.5 15.5t-4.5 22.5q0 23 14.5 37t37.5 14q14 0 22 -2t11.5 -5t4.5 -6t1 -4q0 -4 -5 -9q-5 4 -12.5 8t-21.5 4q-18 0 -27 -11t-9 -25q0 -17 11 -28t28 -11h40v-14h-115zM183 196q-4 -2 -7 -2q-7 0 -7 11l97 35q2 1 6 1
q8 0 8 -10zM927 197q-4 -2 -7 -2q-7 0 -7 11l88 33q2 1 6 1q8 0 8 -10zM891 -83q0 17 -8 28.5t-25 11.5q-16 0 -24 -11t-8 -27q0 -20 10 -29t26 -9h29v36z" />
    <glyph glyph-name="uniFDF2" unicode="&#xfdf2;" horiz-adv-x="1311" arabic-form="isolated" 
d="M947 753q0 15 8 24.5t26 9.5q8 0 16.5 -2.5t11.5 -4.5v-780h-144q-58 0 -96.5 20.5t-55.5 55.5q-25 -42 -60 -59t-92 -17h-270q-122 0 -179 58t-57 158q0 55 20 97.5t55 71t81.5 43t99.5 14.5h148v-384h102q39 0 63 12t37 34.5t17 53.5t4 70v525q0 15 8 24.5t26 9.5
q8 0 16.5 -2.5t11.5 -4.5v-553q0 -38 4 -69.5t17 -53.5t37 -34t63 -12h82v695zM397 384h-90q-39 0 -73 -10t-59 -31t-39.5 -52.5t-14.5 -74.5q0 -25 3.5 -47t13.5 -40.5t27.5 -33.5t46.5 -25q14 -5 36.5 -8.5t44.5 -3.5h104v326zM847 858h-83q-21 0 -29.5 4.5t-18.5 16.5
q-19 -24 -55 -24q-9 0 -22 2t-25 10.5t-20.5 24.5t-8.5 45v70q0 12 7.5 18t18.5 6q10 0 22 -5v-91q0 -19 8.5 -26.5t22.5 -7.5q28 0 28 34v72q0 12 7.5 18t18.5 6q9 0 22 -5v-91q0 -31 23 -31h36v103q0 12 7.5 18t18.5 6q10 0 22 -5v-168zM742 1091h-52v164q0 14 8 20.5
t19 6.5q13 0 25 -7v-184zM1169 753q0 15 8 24.5t26 9.5q8 0 16.5 -2.5t11.5 -4.5v-780h-62v753z" />
    <glyph glyph-name=".notdef" horiz-adv-x="500" 
d="M50 0v750h400v-750h-400zM400 50v650h-300v-650h300z" />
    <glyph glyph-name=".null" horiz-adv-x="0" 
 />
    <glyph glyph-name=".null" horiz-adv-x="0" 
 />
    <glyph glyph-name=".null" horiz-adv-x="0" 
 />
    <glyph glyph-name="nonmarkingreturn" unicode="&#x9;" horiz-adv-x="250" 
 />
    <glyph glyph-name="nonmarkingreturn" unicode="&#xd;" horiz-adv-x="250" 
 />
    <glyph glyph-name="space" unicode=" " horiz-adv-x="250" 
 />
    <glyph glyph-name="exclam" unicode="!" horiz-adv-x="241" 
d="M87 650q0 16 7.5 26t27.5 10q10 0 18 -2.5t13 -5.5v-466h-66v438zM179 44q0 -24 -17 -41t-41 -17q-25 0 -42.5 17t-17.5 41q0 25 17.5 42.5t42.5 17.5q24 0 41 -17.5t17 -42.5z" />
    <glyph glyph-name="quotedbl" unicode="&#x22;" horiz-adv-x="468" 
d="M103 467v234q0 16 8.5 26t28.5 10q10 0 18.5 -2.5t13.5 -5.5v-262h-69zM296 467v234q0 16 8.5 26t28.5 10q10 0 18.5 -2.5t13.5 -5.5v-262h-69z" />
    <glyph glyph-name="numbersign" unicode="#" horiz-adv-x="785" 
d="M268 237h212l38 225h-212zM149 462q-20 0 -28.5 9t-8.5 23q0 17 8 28h140l25 146q6 36 37 36q7 0 13.5 -2t11.5 -4l-30 -176h212l25 146q6 36 37 36q7 0 13.5 -2t11.5 -4l-30 -176h99q20 0 28.5 -9t8.5 -23q0 -17 -8 -28h-139l-38 -225h99q20 0 28.5 -9t8.5 -23
q0 -17 -8 -28h-139l-30 -177h-57l30 177h-212l-30 -177h-57l30 177h-100q-20 0 -28.5 9t-8.5 23q0 17 8 28h140l38 225h-100z" />
    <glyph glyph-name="dollar" unicode="$" 
d="M525 644q15 -11 18.5 -20t3.5 -17q0 -11 -6 -21.5t-15 -18.5q-17 21 -62.5 44.5t-118.5 29.5v-262l42 -10q95 -22 144 -63t49 -115q0 -78 -56 -130.5t-179 -63.5v-109h-55v109q-87 6 -146 30.5t-88 46.5l31 49q10 -7 27.5 -18t42.5 -21.5t58 -19.5t75 -12v270l-35 9
q-38 9 -72 23.5t-60.5 36t-42 51t-15.5 68.5q0 35 11.5 66t38 55.5t69.5 41t106 22.5v81q0 10 7.5 17t21.5 7q10 0 17 -2t9 -3v-101q40 -2 71 -8.5t53.5 -14.5t36 -15.5t19.5 -11.5zM506 180q0 33 -11.5 55t-32.5 37t-50.5 24.5t-66.5 16.5v-262q75 8 118 38.5t43 90.5z
M290 641q-78 -4 -118 -34t-40 -90q0 -57 43.5 -86t114.5 -43v253z" />
    <glyph glyph-name="percent" unicode="%" horiz-adv-x="939" 
d="M430 548q0 -39 -15.5 -73.5t-41.5 -60t-61 -40t-75 -14.5t-75 14.5t-61.5 40t-41.5 60t-15 73.5q0 40 15 74.5t41.5 60t61.5 40t75 14.5t75 -14.5t61 -40t41.5 -60t15.5 -74.5zM373 548q0 28 -10.5 53t-29 44t-43.5 29.5t-53 10.5t-52.5 -10.5t-43 -29.5t-29 -44
t-10.5 -53t10.5 -52.5t29 -43t43 -29t52.5 -10.5t53 10.5t43.5 29t29 43t10.5 52.5zM895 177q0 -39 -15.5 -73.5t-41.5 -60t-61 -40t-75 -14.5t-75 14.5t-61.5 40t-41.5 60t-15 73.5q0 40 15 74.5t41.5 60t61.5 40t75 14.5t75 -14.5t61 -40t41.5 -60t15.5 -74.5zM838 177
q0 28 -10.5 53t-29 44t-43.5 29.5t-53 10.5t-52.5 -10.5t-43 -29.5t-29 -44t-10.5 -53t10.5 -52.5t29 -43t43 -29t52.5 -10.5t53 10.5t43.5 29t29 43t10.5 52.5zM640 711q5 10 12.5 18t26.5 8q13 0 21 -5t13 -10l-419 -722h-67z" />
    <glyph glyph-name="ampersand" unicode="&#x26;" horiz-adv-x="746" 
d="M552 324h-230q-84 0 -127.5 -36.5t-43.5 -108.5q0 -78 60 -109.5t174 -31.5q61 0 106 4t61 7v275zM618 324v-329q-9 -1 -30.5 -3t-52.5 -4.5t-70 -4t-83 -1.5q-88 0 -146 15t-92.5 41.5t-49 61.5t-14.5 75q0 61 28.5 107.5t100.5 71.5q-63 26 -87.5 68.5t-24.5 96.5
q0 39 15.5 73t45 58.5t73.5 39t101 14.5q39 0 67.5 -4t48.5 -10t32 -12t18 -10q12 -8 16.5 -16t4.5 -18q0 -19 -18 -35q-19 16 -60 33.5t-106 17.5q-81 0 -126.5 -32t-45.5 -104q0 -38 14 -63t38.5 -40t59 -21t76.5 -6h312q14 0 23.5 -7t9.5 -23q0 -11 -3.5 -19t-5.5 -11
h-69z" />
    <glyph glyph-name="quotesingle" unicode="'" horiz-adv-x="278" 
d="M104 467v234q0 16 8.5 26t28.5 10q10 0 18.5 -2.5t13.5 -5.5v-262h-69z" />
    <glyph glyph-name="parenleft" unicode="(" horiz-adv-x="367" 
d="M322 -132q-51 12 -96.5 45.5t-79.5 88.5t-53.5 130.5t-19.5 170.5t19.5 170t53.5 130t79.5 88.5t96.5 45.5v-60q-92 -36 -134.5 -134t-42.5 -240q0 -143 42.5 -241t134.5 -134v-60z" />
    <glyph glyph-name="parenright" unicode=")" horiz-adv-x="367" 
d="M45 -72q91 36 134 134t43 241q0 142 -43 240t-134 134v60q51 -12 96.5 -45.5t79.5 -88.5t53.5 -130t19.5 -170t-19.5 -170.5t-53.5 -130.5t-79.5 -88.5t-96.5 -45.5v60z" />
    <glyph glyph-name="asterisk" unicode="*" horiz-adv-x="549" 
d="M242 703q-1 15 7.5 24.5t27.5 9.5q9 0 17 -2.5t12 -4.5l-5 -184l132 55q8 3 13 4.5t12 1.5q11 0 22 -9.5t11 -35.5v-4l-171 -54l111 -152l-50 -34l-106 161l-106 -161l-50 34l111 152l-171 54v4q0 26 11 35.5t22 9.5q7 0 12 -1.5t13 -4.5l131 -55z" />
    <glyph glyph-name="plus" unicode="+" 
d="M294 558q0 15 8 24.5t27 9.5q9 0 17 -2.5t12 -4.5v-212h184q14 0 23.5 -7t9.5 -23q0 -11 -3.5 -19t-5.5 -11h-208v-220h-64v220h-184q-14 0 -23.5 7t-9.5 23q0 11 3.5 19t5.5 11h208v185z" />
    <glyph glyph-name="comma" unicode="," horiz-adv-x="278" 
d="M63 -145q2 3 13 16.5t23.5 32.5t24 41.5t14.5 43.5q-29 2 -44 17.5t-15 40.5q0 24 16 40.5t42 16.5q24 0 43.5 -18.5t19.5 -61.5q0 -38 -14.5 -72.5t-32.5 -61.5t-34 -44.5t-19 -20.5z" />
    <glyph glyph-name="hyphen" unicode="-" horiz-adv-x="349" 
d="M96 235q-20 0 -28 12t-8 27t6 32h187q21 0 28.5 -12t7.5 -27q0 -12 -5 -32h-188z" />
    <glyph glyph-name="period" unicode="." horiz-adv-x="278" 
d="M198 44q0 -24 -17 -41t-41 -17q-25 0 -42.5 17t-17.5 41q0 25 17.5 42.5t42.5 17.5q24 0 41 -17.5t17 -42.5z" />
    <glyph glyph-name="slash" unicode="/" horiz-adv-x="350" 
d="M89 -18h-69l235 722q5 16 13.5 24.5t29.5 8.5q11 0 19.5 -4t12.5 -7z" />
    <glyph glyph-name="zero" unicode="0" 
d="M590 334q0 -83 -18.5 -148.5t-53 -110.5t-83 -69t-109.5 -24q-60 0 -109 24t-83.5 69t-53 110.5t-18.5 148.5q0 82 18.5 147.5t53 111t83.5 69.5t109 24q61 0 109.5 -24t83 -69.5t53 -111t18.5 -147.5zM517 334q0 59 -10.5 112.5t-34 94t-59.5 64.5t-87 24t-87 -24
t-59.5 -64.5t-34 -94t-10.5 -112.5t10.5 -112.5t34 -94t59.5 -64.5t87 -24t87 24t59.5 64.5t34 94t10.5 112.5z" />
    <glyph glyph-name="one" unicode="1" 
d="M331 0v594l-181 -133q-11 3 -21.5 12t-10.5 23q0 8 3.5 16t16.5 18l151 111q17 13 32.5 20t35.5 7q18 0 28 -3t15 -7v-658h-69z" />
    <glyph glyph-name="two" unicode="2" 
d="M430 272q-18 -20 -53 -51.5l-74 -63.5l-74.5 -59.5t-53.5 -39.5h362v-58h-450v63l51.5 37.5l66 51l68 56t59.5 53.5q24 23 47 47.5t41 52.5t29 58.5t11 65.5q0 28 -8 54t-27 46t-50.5 32.5t-78.5 12.5q-45 0 -75.5 -13.5t-49.5 -30.5t-28 -33.5t-11 -22.5q-17 3 -29 12
t-12 24q0 12 4.5 22.5t12.5 21.5q5 6 18.5 19t36.5 25.5t56 22t77 9.5q61 0 105.5 -15t73.5 -42t43 -64t14 -80q0 -34 -9 -64t-23.5 -56.5t-33 -49.5t-36.5 -43z" />
    <glyph glyph-name="three" unicode="3" 
d="M279 374q81 0 127.5 34.5t46.5 97.5t-43 94t-122 31q-43 0 -74 -11.5t-51 -26.5t-31 -30.5t-14 -22.5q-17 2 -28.5 12t-11.5 24q0 21 18 42q6 7 20 18.5t37 22.5t57 19t79 8q66 0 111 -15.5t72.5 -40.5t39 -55.5t11.5 -60.5q0 -34 -11 -61.5t-29 -48.5t-40.5 -36
t-45.5 -24q75 -19 107.5 -64.5t32.5 -103.5q0 -42 -16 -77.5t-47.5 -61.5t-77 -40.5t-104.5 -14.5q-42 0 -78.5 6t-66 15.5t-52 20t-36.5 19.5l27 52q15 -8 35 -17.5t45.5 -18t55 -14t64.5 -5.5q84 0 131 34t47 106q0 69 -50.5 100t-138.5 31h-47q-2 2 -6 11t-4 20
q0 32 38 32h23z" />
    <glyph glyph-name="four" unicode="4" 
d="M545 222q15 0 24.5 -7t9.5 -22q0 -11 -3.5 -18.5t-5.5 -10.5h-87v-164h-68v164h-202q-41 0 -68 6t-43.5 17.5t-23 28.5t-6.5 40q0 57 30.5 115.5t76.5 113.5q31 37 63.5 70.5t65 58.5t63.5 39.5t58 14.5t39 -5.5t15 -7.5v-433h62zM415 222v391q-43 -19 -88.5 -57.5
t-90.5 -92.5q-17 -20 -34 -44.5t-31 -50.5t-23 -52.5t-9 -49.5q0 -15 6 -24t16.5 -13.5t24 -5.5t28.5 -1h201z" />
    <glyph glyph-name="five" unicode="5" 
d="M189 608l-7 -221q20 4 50.5 7.5t64.5 3.5q71 0 118.5 -18t76 -47t40 -66t11.5 -75q0 -45 -16 -83.5t-48 -66.5t-81.5 -44t-116.5 -16q-38 0 -70.5 5.5t-59 13.5t-46 17t-30.5 16l27 52q37 -19 80 -33t105 -14q94 0 139 40.5t45 109.5q0 71 -46.5 112t-151.5 41
q-48 0 -85 -6t-69 -15l10 308q1 17 11.5 28t33.5 11h305q14 0 23.5 -7t9.5 -23q0 -11 -3.5 -19t-5.5 -11h-314z" />
    <glyph glyph-name="six" unicode="6" 
d="M339 663q8 11 16.5 17t25.5 6q14 0 23.5 -6t12.5 -11l-190 -258q15 11 46.5 20t63.5 9q57 0 101 -18t74 -48t46 -70t16 -85q0 -51 -18.5 -94.5t-51.5 -75t-78.5 -49.5t-98.5 -18q-54 0 -99 17t-77.5 47.5t-51 72t-18.5 91.5q0 62 26.5 118t73.5 119zM502 211q0 43 -13 76
t-36.5 55.5t-55.5 34t-70 11.5q-39 0 -71 -13t-55.5 -36.5t-36.5 -56t-13 -71.5q0 -38 12.5 -70.5t36 -56t56 -37t71.5 -13.5q40 0 72.5 13.5t55.5 37t35 56t12 70.5z" />
    <glyph glyph-name="seven" unicode="7" 
d="M215 0l30 68.5l45.5 103.5l53.5 122l54 124l47.5 110l33.5 79h-377q-14 0 -23.5 7.5t-9.5 23.5q0 11 3.5 19t5.5 11h417q52 0 52 -38q0 -14 -6 -32t-17 -44l-30 -70.5l-42.5 -98l-48.5 -111l-48 -110.5l-42 -96.5l-29 -67.5h-69z" />
    <glyph glyph-name="eight" unicode="8" 
d="M326 686q60 0 105.5 -14t75.5 -38.5t45 -57.5t15 -71q0 -19 -5 -42t-17 -45.5t-33.5 -43t-54.5 -35.5q39 -13 63 -32t38 -41.5t19 -46.5t5 -46q0 -42 -15.5 -77t-47 -60.5t-80 -39.5t-113.5 -14t-113.5 14t-80 39.5t-47 60.5t-15.5 77q0 22 5 46t19 46.5t38 41.5t63 32
q-33 15 -54.5 35.5t-33.5 43t-17 45.5t-5 42q0 38 15 71t45 57.5t75.5 38.5t105.5 14zM326 37q91 0 137.5 35.5t46.5 101.5t-46.5 102t-137.5 36t-137.5 -36t-46.5 -102t46.5 -101.5t137.5 -35.5zM153 500q0 -59 43 -97.5t130 -38.5t130 38.5t43 97.5t-43 97t-130 38
t-130 -38t-43 -97z" />
    <glyph glyph-name="nine" unicode="9" 
d="M232 -8l192 260q-16 -11 -42.5 -20t-71.5 -9q-56 0 -99.5 18t-73.5 48.5t-45.5 71t-15.5 85.5q0 52 19 96t52.5 76t79 50t98.5 18q54 0 99 -17.5t77.5 -48t51 -73t18.5 -92.5q0 -33 -8.5 -63.5t-22 -59t-30 -54.5t-33.5 -50l-169 -236h-76zM146 454q0 -43 13.5 -76.5
t37.5 -56t57 -34.5t72 -12q38 0 70.5 13t56.5 37t37.5 57t13.5 72t-13.5 72t-37.5 57t-56.5 37.5t-70.5 13.5q-41 0 -74 -13.5t-56.5 -37.5t-36.5 -57t-13 -72z" />
    <glyph glyph-name="colon" unicode=":" horiz-adv-x="278" 
d="M198 434q0 -24 -17 -41t-41 -17q-25 0 -42.5 17t-17.5 41q0 25 17.5 42.5t42.5 17.5q24 0 41 -17.5t17 -42.5zM198 44q0 -24 -17 -41t-41 -17q-25 0 -42.5 17t-17.5 41q0 25 17.5 42.5t42.5 17.5q24 0 41 -17.5t17 -42.5z" />
    <glyph glyph-name="semicolon" unicode=";" horiz-adv-x="278" 
d="M198 434q0 -24 -17 -41t-41 -17q-25 0 -42.5 17t-17.5 41q0 25 17.5 42.5t42.5 17.5q24 0 41 -17.5t17 -42.5zM63 -145q2 3 13 16.5t23.5 32.5t24 41.5t14.5 43.5q-29 2 -44 17.5t-15 40.5q0 24 16 40.5t42 16.5q24 0 43.5 -18.5t19.5 -61.5q0 -38 -14.5 -72.5
t-32.5 -61.5t-34 -44.5t-19 -20.5z" />
    <glyph glyph-name="less" unicode="&#x3c;" horiz-adv-x="653" 
d="M119 291q-27 11 -34.5 23.5t-7.5 28.5q0 14 6 25t11 16l481 195v-68l-434 -168l434 -169v-68z" />
    <glyph glyph-name="equal" unicode="=" 
d="M110 444q-14 0 -23.5 7t-9.5 23q0 11 3.5 19t5.5 11h456q14 0 23.5 -7t9.5 -23q0 -11 -3.5 -19t-5.5 -11h-456zM110 181q-14 0 -23.5 7t-9.5 23q0 11 3.5 19t5.5 11h456q14 0 23.5 -7t9.5 -23q0 -11 -3.5 -19t-5.5 -11h-456z" />
    <glyph glyph-name="greater" unicode="&#x3e;" horiz-adv-x="653" 
d="M533 395q27 -11 34.5 -23.5t7.5 -28.5q0 -14 -6 -25t-11 -16l-481 -195v68l434 168l-434 169v68z" />
    <glyph glyph-name="question" unicode="?" horiz-adv-x="558" 
d="M252 648q-43 0 -73.5 -12t-51 -28.5t-31 -33t-13.5 -25.5q-15 2 -27 11.5t-12 23.5q0 12 5 22.5t13 21.5q4 6 17.5 18.5t37 25.5t58 22.5t81.5 9.5q66 0 110.5 -17t71.5 -44.5t38.5 -62t11.5 -68.5q0 -39 -11.5 -69.5t-30 -54.5t-42.5 -43t-48 -34t-40 -28t-25 -26
t-13 -28t-4 -34h-67q0 46 16.5 81t68.5 67q67 41 96 78.5t29 88.5q0 28 -9 53t-28.5 44t-51 30t-76.5 11zM300 44q0 -24 -17 -41t-41 -17q-25 0 -42.5 17t-17.5 41q0 25 17.5 42.5t42.5 17.5q24 0 41 -17.5t17 -42.5z" />
    <glyph glyph-name="at" unicode="@" horiz-adv-x="1017" 
d="M852 79q1 4 5.5 19t9.5 39t9 55.5t4 69.5q0 76 -25.5 145.5t-73.5 122t-116.5 83.5t-154.5 31q-80 0 -148.5 -29.5t-119 -83t-79.5 -126.5t-29 -160q0 -86 29 -157.5t80 -122.5t119 -79.5t146 -28.5q63 0 113.5 7.5t83.5 18.5l20 -55q-36 -14 -91.5 -23t-125.5 -9
q-91 0 -171 33.5t-140 93t-94.5 142t-34.5 180.5q0 99 35 183t95 145.5t140.5 96t171.5 34.5q99 0 180 -34t138.5 -94t89 -141t31.5 -174q0 -42 -5.5 -79t-12.5 -67t-14.5 -51.5l-11.5 -32.5q-11 -2 -35 -4.5t-66 -5t-103 -4.5t-146 -2q-121 0 -184.5 32t-63.5 110
q0 69 44.5 108t143.5 39q20 0 41.5 -1t40 -2.5t33 -3.5t20.5 -3v4q0 40 -11.5 66t-32 41t-48.5 20.5t-61 5.5q-35 0 -64 -6.5t-56 -20.5q-5 5 -8 14t-3 17q0 21 30 35.5t105 14.5q57 0 97 -14t65 -38t36 -57t11 -70v-236q7 0 29 0.5t47.5 2l49.5 3t36 3.5zM630 241
q-17 3 -47.5 6.5t-73.5 3.5q-72 0 -106 -20.5t-34 -74.5q0 -51 46.5 -69.5t137.5 -18.5h77v173z" />
    <glyph glyph-name="A" unicode="A" horiz-adv-x="712" 
d="M25 0l60.5 163l65.5 166l65.5 159.5l61.5 143.5q18 40 34 56t44 16q22 0 34.5 -9t19.5 -17q17 -31 42 -87.5l53.5 -124.5l58 -141l54.5 -138l43.5 -115t25.5 -72h-77q-5 12 -14 38l-20 57l-22.5 62t-20.5 53h-363l-46 -121.5l-32 -88.5h-67zM353 643l-36 -78l-39.5 -91.5
l-42 -100.5l-42.5 -104h318l-40 105l-44 107.5l-41.5 94.5t-32.5 67z" />
    <glyph glyph-name="B" unicode="B" horiz-adv-x="641" 
d="M581 188q0 -30 -10 -63t-35.5 -61t-69.5 -46t-111 -18h-255v646q0 18 11 29t32 11h187q58 0 99 -14.5t67.5 -38t38.5 -54.5t12 -64q0 -32 -9 -58t-22.5 -45.5t-30.5 -32t-33 -18.5q34 -10 58.5 -28t40.5 -41t23 -49.5t7 -54.5zM507 189q0 29 -9 54t-28 43t-48.5 28.5
t-70.5 10.5h-183v-266h180q81 0 120 33.5t39 96.5zM474 511q0 116 -156 116h-150v-243h159q80 0 113.5 35t33.5 92z" />
    <glyph glyph-name="C" unicode="C" horiz-adv-x="669" 
d="M599 653q15 -11 20 -20.5t5 -18.5q0 -14 -10.5 -26.5t-20.5 -17.5q-10 12 -28 25t-42 23.5t-54.5 17.5t-65.5 7q-58 0 -107.5 -21t-86 -60t-57.5 -95t-21 -126q0 -72 22 -127.5t60.5 -93t90 -57t110.5 -19.5q34 0 63 5.5t52 13t40.5 16t28.5 15.5l30 -54q-12 -8 -33 -18
t-49.5 -19t-62.5 -15t-73 -6q-72 0 -136 24t-112 70t-76.5 112.5t-28.5 151.5t28 152.5t75.5 114.5t111 72t134.5 25q37 0 68.5 -5.5t56.5 -13.5t42.5 -17t25.5 -15z" />
    <glyph glyph-name="D" unicode="D" horiz-adv-x="761" 
d="M691 344q0 -78 -25 -141.5t-72 -108.5t-114 -69.5t-152 -24.5h-228v646q0 18 11 29t34 11h173q29 0 61.5 -3t58.5 -8q57 -12 104 -40t80 -70t51 -97.5t18 -123.5zM617 345q0 56 -14.5 102t-40 80.5t-62 57t-79.5 31.5q-26 5 -53 8t-56 3h-143v-568h153q71 0 126 21
t92.5 58.5t57 90.5t19.5 116z" />
    <glyph glyph-name="E" unicode="E" horiz-adv-x="598" 
d="M480 386q14 0 23.5 -7.5t9.5 -23.5q0 -11 -3.5 -19t-5.5 -11h-335v-264h352v-61h-421v646q0 18 11 29t32 11h351q14 0 23.5 -7.5t9.5 -23.5q0 -11 -3.5 -19t-5.5 -11h-349v-239h311z" />
    <glyph glyph-name="F" unicode="F" horiz-adv-x="545" 
d="M169 314v-314h-69v646q0 18 11 29t32 11h319q14 0 23.5 -7.5t9.5 -23.5q0 -11 -3.5 -19t-5.5 -11h-317v-250h262q14 0 23.5 -7.5t9.5 -23.5q0 -11 -3.5 -19t-5.5 -11h-286z" />
    <glyph glyph-name="G" unicode="G" horiz-adv-x="739" 
d="M426 643q-60 0 -111.5 -20.5t-89.5 -59.5t-59.5 -94.5t-21.5 -125.5q0 -80 24.5 -137t67 -93.5t100.5 -54t126 -17.5q54 0 84.5 4t40.5 6v249h-156q-14 0 -23.5 7.5t-9.5 23.5q0 11 3.5 19t5.5 11h204q21 0 32 -11t11 -29v-323q-9 -2 -63 -9t-138 -7q-83 0 -153.5 23
t-121.5 68.5t-79.5 113t-28.5 156.5q0 83 27.5 150t76.5 114t115.5 72t143.5 25q37 0 69.5 -5.5t58 -13t43 -15.5t25.5 -14q16 -11 20.5 -21t4.5 -18q0 -14 -10.5 -26.5t-20.5 -17.5q-11 12 -29.5 24.5t-44 22.5t-56.5 16.5t-67 6.5z" />
    <glyph glyph-name="H" unicode="H" horiz-adv-x="755" 
d="M586 0v327h-417v-327h-69v650q0 16 8.5 26t28.5 10q10 0 18.5 -2.5t13.5 -5.5v-291h417v263q0 16 8.5 26t27.5 10q11 0 19.5 -3t13.5 -6v-677h-69z" />
    <glyph glyph-name="I" unicode="I" horiz-adv-x="269" 
d="M100 0v650q0 16 8.5 26t28.5 10q10 0 18.5 -2.5t13.5 -5.5v-678h-69z" />
    <glyph glyph-name="J" unicode="J" horiz-adv-x="526" 
d="M362 650q0 16 8.5 26t28.5 10q10 0 18.5 -2.5t13.5 -5.5v-458q0 -53 -10.5 -97t-35.5 -75.5t-66 -48.5t-102 -17q-47 0 -82.5 11t-59.5 25t-37.5 27.5t-17.5 18.5l41 43q9 -10 22 -22t31.5 -22.5t43.5 -17.5t57 -7q75 0 111 39t36 136v437z" />
    <glyph glyph-name="K" unicode="K" horiz-adv-x="641" 
d="M100 0v650q0 16 8.5 26t28.5 10q10 0 18.5 -2.5t13.5 -5.5v-298l71 61.5l89.5 75.5l90 75l70.5 59q21 18 35 26.5t37 8.5q17 0 28.5 -9t15.5 -14l-31.5 -26l-62 -50.5l-78.5 -64l-81 -66.5l-69.5 -57.5l-44.5 -37.5q55 -41 109 -86t103.5 -91.5t93 -93t78.5 -90.5h-88
q-26 30 -65.5 70.5t-87.5 84.5t-102 88.5t-111 83.5v-327h-69z" />
    <glyph glyph-name="L" unicode="L" horiz-adv-x="536" 
d="M169 61h342v-61h-411v650q0 16 8.5 26t28.5 10q10 0 18.5 -2.5t13.5 -5.5v-617z" />
    <glyph glyph-name="M" unicode="M" horiz-adv-x="903" 
d="M454 221l23 47l36.5 75.5l43 89.5l42.5 88.5l35.5 73t21.5 42.5q4 7 9.5 15.5t14 16t20 12.5t26.5 5q20 0 30 -5t14 -8l19.5 -337l18.5 -336h-66q-2 32 -4.5 81l-5.5 106.5t-7 119.5t-7 119t-6 105t-4 79l-22.5 -46l-39 -79l-47.5 -96.5l-48.5 -99l-42 -86l-27.5 -57.5
h-61l-25 51l-36 74.5l-42.5 88.5l-45 92.5l-43 86.5l-36.5 71l-8.5 -148.5t-8.5 -156.5l-8 -156.5t-7 -148.5h-66q8 159 17 321l18 321q2 21 16.5 32.5t32.5 11.5q45 0 63 -32q4 -7 19 -36.5l35.5 -72l44.5 -91.5l46 -94.5l40.5 -83z" />
    <glyph glyph-name="N" unicode="N" horiz-adv-x="753" 
d="M570 0l-59.5 93l-70.5 110.5l-75.5 117.5l-74.5 114.5l-67 100t-54 75.5v-611h-69v646q0 17 14 28.5t37 11.5q20 0 35 -7.5t23 -13.5l42 -58l58 -84.5l68 -102l72 -111l71 -111.5l64 -102v554q0 16 8.5 26t27.5 10q11 0 19.5 -3t13.5 -6v-677h-83z" />
    <glyph glyph-name="O" unicode="O" horiz-adv-x="832" 
d="M762 344q0 -77 -26 -143t-72 -114.5t-109.5 -76.5t-138.5 -28t-138.5 28t-109.5 76.5t-72 114.5t-26 143q0 76 26 142t72 114.5t109.5 76t138.5 27.5t138.5 -27.5t109.5 -76t72 -114.5t26 -142zM688 344q0 64 -20 119t-56 95t-86 62.5t-110 22.5t-110 -22.5t-86 -62.5
t-56 -95t-20 -119q0 -65 20 -120t56 -95t86 -63t110 -23t110 23t86 63t56 95t20 120z" />
    <glyph glyph-name="P" unicode="P" horiz-adv-x="597" 
d="M552 482q0 -46 -17 -86t-49.5 -69.5t-80 -46.5t-108.5 -17q-60 0 -89.5 5t-39.5 7v-275h-68v646q0 18 11 29t34 11h171q22 0 45 -1.5t40 -5.5q75 -15 113 -68.5t38 -128.5zM478 481q0 52 -23.5 90.5t-80.5 49.5q-33 6 -78 6h-128v-292q11 -3 39.5 -8t67.5 -5
q108 0 155.5 42t47.5 117z" />
    <glyph glyph-name="Q" unicode="Q" horiz-adv-x="832" 
d="M762 344q0 -88 -34.5 -159.5t-91.5 -120.5l96 -125l-51 -37l-95 126q-76 -46 -170 -46q-75 0 -138.5 28t-109.5 76.5t-72 114.5t-26 143q0 76 26 142t72 114.5t109.5 76t138.5 27.5t138.5 -27.5t109.5 -76t72 -114.5t26 -142zM688 344q0 64 -20 119t-56 95t-86 62.5
t-110 22.5t-110 -22.5t-86 -62.5t-56 -95t-20 -119q0 -65 20 -120t56 -95t86 -63t110 -23q36 0 70 8.5t62 25.5l-81 106q-9 12 -13.5 20.5t-4.5 16.5q0 13 10 22.5t35 9.5l104 -137q42 40 66 99.5t24 129.5z" />
    <glyph glyph-name="R" unicode="R" horiz-adv-x="628" 
d="M291 272q-54 0 -84.5 3t-37.5 5v-280h-68v646q0 18 11 29t34 11h148q49 0 92 -8q39 -8 68.5 -27t48.5 -44.5t28.5 -57t9.5 -64.5q0 -67 -34.5 -117.5t-100.5 -75.5q29 -31 58 -70t55 -79t47.5 -77.5t35.5 -65.5h-84q-10 21 -28.5 54t-42.5 71.5t-52.5 77.5t-57.5 71
q-11 -2 -22.5 -2h-23.5zM466 482q0 51 -22.5 86.5t-73.5 49.5q-17 5 -38.5 7t-42.5 2h-120v-288q5 -2 34 -5t74 -3q98 0 143.5 42t45.5 109z" />
    <glyph glyph-name="S" unicode="S" horiz-adv-x="648" 
d="M316 704q44 0 77 -5.5t57 -14t39 -17t23 -14.5q14 -12 19 -21.5t5 -17.5q0 -14 -10.5 -26t-18.5 -17q-10 12 -25.5 25.5t-38.5 24.5t-54 18.5t-72 7.5q-44 0 -76 -9.5t-52.5 -27t-30 -40.5t-9.5 -50q0 -30 10 -50.5t28.5 -35.5t46 -26t63.5 -21l82 -22
q97 -26 145.5 -68.5t48.5 -118.5q0 -42 -13.5 -77.5t-43 -62t-76 -41.5t-111.5 -15q-56 0 -99.5 9.5t-76 22.5t-53.5 27t-31 22l33 50q12 -9 31.5 -21.5t46.5 -24t62.5 -19.5t80.5 -8q88 0 134 32t46 98q0 33 -12 55.5t-32 37.5t-45.5 24t-52.5 16l-87 23q-41 11 -77 26.5
t-62.5 38t-41.5 53t-15 71.5q0 32 11 65.5t38.5 61t73.5 45t115 17.5z" />
    <glyph glyph-name="T" unicode="T" horiz-adv-x="600" 
d="M58 625q-14 0 -23.5 7.5t-9.5 23.5q0 11 3.5 19t5.5 11h508q14 0 23.5 -7.5t9.5 -23.5q0 -11 -3.5 -19t-5.5 -11h-240v-625h-70v625h-198z" />
    <glyph glyph-name="U" unicode="U" horiz-adv-x="774" 
d="M612 650q0 16 8.5 26t28.5 10q10 0 18.5 -2.5t13.5 -5.5v-371q0 -155 -71 -240t-224 -85t-223 85t-70 240v343q0 16 8.5 26t28.5 10q10 0 18.5 -2.5t13.5 -5.5v-366q0 -68 12 -118t38.5 -84t69.5 -50.5t105 -16.5q123 0 174 67t51 202v338z" />
    <glyph glyph-name="V" unicode="V" horiz-adv-x="676" 
d="M92 676l45.5 -132l58 -157.5l66 -168t70.5 -163.5q9 19 26 60.5l38 95l44.5 114.5l45.5 119l40.5 108l30.5 82t24.5 42t34.5 10q10 0 18.5 -2.5t14.5 -5.5l-27.5 -74l-40 -105.5l-48.5 -124.5l-53 -132.5l-53.5 -129t-50.5 -112.5h-91q-27 53 -53.5 112l-51 118
l-47 115.5l-40.5 104.5l-31.5 84l-20.5 55q-10 26 -13.5 40t-3.5 24q0 14 8.5 23.5t25.5 9.5t25.5 -4.5t8.5 -5.5z" />
    <glyph glyph-name="W" unicode="W" horiz-adv-x="998" 
d="M289 74q23 71 46.5 152.5l44 158.5l37.5 143l28 107q6 23 18.5 37t35.5 14q16 0 27 -3t16 -6l68.5 -287.5t87.5 -316.5l55.5 160l49 153.5l41.5 137.5l33 112q8 25 19.5 37.5t31.5 12.5q16 0 23 -3.5t11 -6.5l-26.5 -92.5l-34 -111l-39.5 -121.5l-42 -124.5l-42 -119.5
l-40 -107h-88q-7 19 -18 57l-25 87l-29 106l-30 115l-28.5 113t-23.5 101l-25 -99l-30 -110.5l-31.5 -112l-30.5 -105l-27 -89t-20 -63.5h-85q-15 35 -34 85.5l-38.5 107.5l-39.5 114.5l-36.5 107.5l-28.5 87l-17 52q-11 32 -17.5 56t-6.5 35q0 18 8.5 29.5t28.5 11.5
q13 0 21 -3.5t10 -5.5q7 -28 19 -71t28 -94l34 -108l37 -114.5l38 -113z" />
    <glyph glyph-name="X" unicode="X" horiz-adv-x="627" 
d="M487 655q23 31 55 31q19 0 28.5 -7.5t11.5 -9.5l-41 -54l-56 -75l-66.5 -90.5l-73.5 -100.5l76.5 -101l71 -96l61.5 -85l48 -67h-87l-40.5 59l-51 71l-58.5 79l-63 83l-111.5 -158.5t-89.5 -133.5h-76l48.5 72l58 84.5l64 92l66.5 94.5l-106 137l-80 107
q-25 33 -33.5 46.5t-8.5 22.5q0 10 7 20t24 10q11 0 17.5 -2t10.5 -4l41 -55l50.5 -66.5l57.5 -75.5l62 -82z" />
    <glyph glyph-name="Y" unicode="Y" horiz-adv-x="656" 
d="M624 672l-28.5 -48.5l-40 -65l-47.5 -75l-51.5 -78.5l-52 -75.5t-48.5 -65.5v-264h-70v266q-26 32 -59.5 77.5l-67 92.5l-62.5 89l-45 66q-16 23 -24.5 38t-8.5 26t7 21t26 10q11 0 17 -2.5t10 -4.5l43 -65l62.5 -93.5l71 -102.5t69.5 -92q36 48 70.5 101.5l63.5 101
l50.5 83.5t32.5 50q9 11 18.5 17.5t25.5 6.5q17 0 26.5 -6t11.5 -8z" />
    <glyph glyph-name="Z" unicode="Z" horiz-adv-x="609" 
d="M87 625q-14 0 -23.5 7.5t-9.5 23.5q0 11 3.5 19t5.5 11h439q33 0 47.5 -11.5t14.5 -33.5q0 -21 -18.5 -46l-45.5 -60l-52 -66l-72.5 -89l-82 -98.5l-80 -95l-66.5 -78l-42 -47.5h456v-61h-526v78l52.5 62l83 100.5l98 118.5l96 117l77.5 95.5l44 53.5h-399z" />
    <glyph glyph-name="bracketleft" unicode="[" horiz-adv-x="385" 
d="M100 -132v835q0 15 8.5 24.5t27.5 9.5h195q2 -3 5.5 -10.5t3.5 -18.5q0 -16 -9.5 -23t-23.5 -7h-142v-751h175v-59h-240z" />
    <glyph glyph-name="backslash" unicode="\" horiz-adv-x="350" 
d="M20 726q4 3 12.5 7t19.5 4q21 0 29.5 -8.5t13.5 -24.5l235 -722h-69z" />
    <glyph glyph-name="bracketright" unicode="]" horiz-adv-x="385" 
d="M249 737q19 0 27.5 -9.5t8.5 -24.5v-835h-240v59h175v751h-142q-14 0 -23.5 7t-9.5 23q0 11 3.5 18.5t5.5 10.5h195z" />
    <glyph glyph-name="asciicircum" unicode="^" horiz-adv-x="498" 
d="M386 344l-137 293l-140 -293h-64l139 294q15 32 32 40t37 8q14 0 25.5 -3.5t16.5 -6.5l158 -332h-67z" />
    <glyph glyph-name="underscore" unicode="_" horiz-adv-x="526" 
d="M23 -125v55h480v-55h-480z" />
    <glyph glyph-name="grave" unicode="`" horiz-adv-x="500" 
d="M157 658q1 13 11.5 28t32.5 15q11 0 19.5 -3.5t20.5 -13.5l103 -84l-29 -38z" />
    <glyph glyph-name="a" unicode="a" horiz-adv-x="586" 
d="M433 247q-5 1 -20 2.5t-35 3t-43.5 2.5t-44.5 1q-75 0 -119 -24t-44 -86q0 -54 36 -81t129 -27q64 0 97 5t44 9v195zM260 453q-57 0 -88.5 -14.5t-44.5 -26.5q-7 5 -12.5 14.5t-5.5 20.5t5.5 19t13.5 14q10 8 40 18t88 10q120 0 181 -49t61 -158v-299q-29 -5 -78 -10.5
t-130 -5.5q-77 0 -122.5 15t-69.5 38t-31 51.5t-7 55.5q0 34 10.5 64t36 52.5t69 35t108.5 12.5q22 0 45 -1t43 -2t36 -2t25 -1v2q0 72 -40 109.5t-133 37.5z" />
    <glyph glyph-name="b" unicode="b" horiz-adv-x="632" 
d="M88 703q0 15 8.5 24.5t27.5 9.5q9 0 17.5 -2.5t12.5 -4.5v-317q6 9 18 25t33 31.5t53.5 27t80.5 11.5q52 0 94.5 -18t73 -51t47 -80.5t16.5 -106.5q0 -58 -18 -107t-54.5 -84t-93 -55t-133.5 -20q-85 0 -132 6.5t-51 7.5v703zM499 252q0 94 -42.5 145.5t-130.5 51.5
q-43 0 -75 -15t-53.5 -41.5t-32.5 -62.5t-11 -78v-200q9 -2 37.5 -7t82.5 -5q59 0 101.5 15.5t70 43t40.5 66.5t13 87z" />
    <glyph glyph-name="c" unicode="c" horiz-adv-x="507" 
d="M326 44q45 0 76.5 12t45.5 20l27 -49q-17 -11 -57 -26t-101 -15q-56 0 -102.5 17t-80.5 50t-53 80.5t-19 109.5q0 63 20 112t55.5 83t82.5 52t101 18q33 0 57.5 -4.5t41.5 -10t26.5 -11.5t13.5 -9q7 -5 12 -12.5t5 -18.5q0 -8 -5.5 -19t-16.5 -19q-7 6 -18.5 14
t-28.5 15.5t-39 12.5t-49 5q-38 0 -72 -12t-59.5 -37.5t-40.5 -64t-15 -90.5q0 -54 15 -92.5t41 -63t61 -36t76 -11.5z" />
    <glyph glyph-name="d" unicode="d" horiz-adv-x="632" 
d="M133 252q0 -48 13 -87t40.5 -66.5t70 -43t101.5 -15.5q54 0 82.5 5t37.5 7v200q0 42 -11 78t-32.5 62.5t-53.5 41.5t-75 15q-88 0 -130.5 -51.5t-42.5 -145.5zM478 703q0 15 8.5 24.5t27.5 9.5q9 0 17.5 -2.5t12.5 -4.5v-730q-4 -1 -51 -7.5t-132 -6.5q-77 0 -133.5 20
t-93 55t-54.5 84t-18 107q0 59 16.5 106.5t47 80.5t73 51t94.5 18q48 0 80.5 -11.5t53.5 -27t33 -31.5t18 -25v290z" />
    <glyph glyph-name="e" unicode="e" horiz-adv-x="585" 
d="M135 209q10 -85 57.5 -124.5t131.5 -39.5q49 0 88 13.5t57 24.5l27 -49q-8 -5 -24.5 -13.5t-40 -16t-53 -13t-63.5 -5.5q-53 0 -99 16t-80 47.5t-54 78t-20 108.5q0 60 19.5 110t53.5 86t81 56t101 20q102 0 155 -49t53 -137q0 -54 -28.5 -83.5t-92.5 -29.5h-269z
M377 262q40 0 61.5 13t21.5 55q0 24 -7.5 46.5t-24 39.5t-44 27.5t-66.5 10.5q-44 0 -78 -17t-57 -44t-35.5 -61.5t-13.5 -69.5h243z" />
    <glyph glyph-name="f" unicode="f" horiz-adv-x="345" 
d="M185 436v-436h-66v436h-61q-14 0 -23.5 6.5t-9.5 22.5q0 11 3.5 18.5t5.5 10.5h85v66q0 46 14 79.5t38 55t57.5 32t72.5 10.5q52 0 76.5 -9t32.5 -13q10 -6 15 -13t5 -18t-7 -20.5t-12 -14.5q-14 12 -41.5 23t-64.5 11q-36 0 -59.5 -10.5t-37 -28.5t-18.5 -43t-5 -55v-52
h130q14 0 23.5 -6.5t9.5 -22.5q0 -11 -3.5 -18.5t-5.5 -10.5h-154z" />
    <glyph glyph-name="g" unicode="g" horiz-adv-x="610" 
d="M295 92q37 0 68 13t53 37t34 57t12 74q0 40 -12 73.5t-34 57.5t-53 37t-68 13q-38 0 -68.5 -13t-52.5 -37t-34 -57.5t-12 -73.5q0 -41 12 -74t34 -57t52.5 -37t68.5 -13zM464 436q33 -31 49.5 -73t16.5 -90q0 -57 -21 -102.5t-58 -77.5q25 -15 41 -32t25 -34.5t12.5 -34
t3.5 -29.5q0 -41 -16.5 -73t-46.5 -54t-72.5 -34t-93.5 -12q-52 0 -93 9.5t-69.5 21t-44.5 21.5t-19 12l31 52q7 -5 22.5 -14.5t40 -19.5t57.5 -17t74 -7q32 0 61.5 5.5t52 19t35.5 36t13 55.5q0 10 -2.5 22.5t-10 25.5t-20.5 25.5t-33 22.5q-48 -22 -104 -22
q-50 0 -93 17.5t-74.5 48.5t-49.5 74t-18 95t18 95t49.5 74t74.5 48.5t93 17.5q42 0 84 -14h153q14 0 23.5 -6.5t9.5 -22.5q0 -11 -3.5 -18.5t-5.5 -10.5h-92z" />
    <glyph glyph-name="h" unicode="h" horiz-adv-x="623" 
d="M88 703q0 15 8.5 24.5t27.5 9.5q9 0 17.5 -2.5t12.5 -4.5v-308q10 16 26 31.5t38.5 27.5t51.5 19.5t66 7.5q94 0 146.5 -51t52.5 -142v-315h-66v290q0 37 -7 67t-23.5 51t-45 32t-70.5 11q-44 0 -75.5 -14t-52.5 -38t-31 -56t-10 -68v-275h-66v703z" />
    <glyph glyph-name="i" unicode="i" horiz-adv-x="262" 
d="M98 460q0 15 8.5 24.5t27.5 9.5q9 0 17.5 -2.5t12.5 -4.5v-487h-66v460zM180 688q0 -21 -14.5 -35.5t-35.5 -14.5t-35 14.5t-14 35.5t14 35t35 14t35.5 -14t14.5 -35z" />
    <glyph glyph-name="j" unicode="j" horiz-adv-x="262" 
d="M164 -53q0 -42 -13 -72t-34.5 -48.5t-49.5 -27.5t-59 -9q-34 0 -61 8t-39 15l21 46q7 -5 26.5 -12t51.5 -7q16 0 32.5 5t29.5 17t21 32t8 50v516q0 15 8.5 24.5t27.5 9.5q9 0 17.5 -2.5t12.5 -4.5v-540zM180 688q0 -21 -14.5 -35.5t-35.5 -14.5t-35 14.5t-14 35.5t14 35
t35 14t35.5 -14t14.5 -35z" />
    <glyph glyph-name="k" unicode="k" horiz-adv-x="526" 
d="M88 0v703q0 15 8.5 24.5t27.5 9.5q9 0 17.5 -2.5t12.5 -4.5v-438q4 2 25.5 18l54 39.5l71 51.5l76.5 55q26 19 43.5 28.5t35.5 9.5t28.5 -10.5t12.5 -13.5q-4 -4 -24.5 -19l-49 -36l-61 -44.5l-61 -43.5l-49.5 -34.5t-25 -17.5q103 -72 175.5 -144.5t114.5 -130.5h-84
q-21 28 -52.5 61t-69.5 66t-79.5 65t-81.5 59v-251h-66z" />
    <glyph glyph-name="l" unicode="l" horiz-adv-x="262" 
d="M98 703q0 15 8.5 24.5t27.5 9.5q9 0 17.5 -2.5t12.5 -4.5v-730h-66v703z" />
    <glyph glyph-name="m" unicode="m" horiz-adv-x="947" 
d="M281 451q-27 0 -50 -3.5t-39.5 -8t-26 -8.5t-11.5 -5v-426h-66v469q3 1 17.5 7.5t39 13.5t59 12.5t77.5 5.5q67 0 116 -26t77 -80q27 52 75.5 79t108.5 27q42 0 79 -11t64 -34.5t42.5 -58.5t15.5 -83v-321h-66v290q0 87 -38 124t-103 37q-31 0 -58 -9.5t-46.5 -30
t-31 -53t-11.5 -78.5v-280h-66v280q0 46 -12 78.5t-33 53t-50 30t-63 9.5z" />
    <glyph glyph-name="n" unicode="n" horiz-adv-x="623" 
d="M469 0v276q0 84 -41.5 129.5t-134.5 45.5q-30 0 -54.5 -3.5t-42.5 -8t-28.5 -9t-13.5 -5.5v-425h-66v469q3 1 19.5 7.5t44.5 13.5t66 12.5t84 5.5q55 0 98 -15t73 -42t46 -64t16 -81v-306h-66z" />
    <glyph glyph-name="o" unicode="o" horiz-adv-x="636" 
d="M574 247q0 -57 -19.5 -105t-53.5 -82.5t-81 -54t-102 -19.5t-102 19.5t-81 54t-53.5 82.5t-19.5 105t19.5 105t53.5 82.5t81 54t102 19.5t102 -19.5t81 -54t53.5 -82.5t19.5 -105zM133 247q0 -46 13 -83.5t37.5 -64.5t58.5 -42t76 -15t76 15t58.5 42t37.5 64.5t13 83.5
t-13 83.5t-37.5 64.5t-58.5 42t-76 15t-76 -15t-58.5 -42t-37.5 -64.5t-13 -83.5z" />
    <glyph glyph-name="p" unicode="p" horiz-adv-x="628" 
d="M88 -200v669q4 1 21 7.5t43 13.5t58.5 12.5t67.5 5.5q73 0 127.5 -20.5t90 -56.5t53 -85.5t17.5 -107.5q0 -59 -17 -105t-48 -78t-74 -48.5t-95 -16.5q-47 0 -79.5 10.5t-53.5 24t-31.5 26.5t-13.5 18v-269h-66zM495 238q0 48 -12.5 87.5t-39 68t-67.5 44t-98 15.5
q-51 0 -84 -11t-40 -14v-266q6 -15 16.5 -34.5t30 -37.5t50 -30t77.5 -12q81 0 124 48t43 142z" />
    <glyph glyph-name="q" unicode="q" horiz-adv-x="632" 
d="M478 -200v281q-6 -9 -18 -25t-33 -31.5t-53.5 -27t-80.5 -11.5q-52 0 -94.5 17.5t-73 50.5t-47 80t-16.5 106q0 58 18 107t54 85t91.5 56t130.5 20q33 0 65 -5.5t58 -12.5t43.5 -13.5t21.5 -7.5v-669h-66zM133 244q0 -94 41.5 -146.5t122.5 -52.5q46 0 80 15t56.5 41.5
t33.5 62.5t11 78v186q-7 3 -41 14t-85 11q-57 0 -98 -15t-68 -42t-40 -65.5t-13 -86.5z" />
    <glyph glyph-name="r" unicode="r" horiz-adv-x="405" 
d="M275 452q-29 0 -51 -4.5t-36.5 -10t-23 -11t-10.5 -7.5v-419h-66v449q3 2 15.5 11.5t36 20t57 19t77.5 8.5q51 0 77 -6.5t37 -14.5q16 -10 16 -28q0 -11 -5 -20t-10 -13q-12 8 -40.5 17t-73.5 9z" />
    <glyph glyph-name="s" unicode="s" horiz-adv-x="551" 
d="M431 471q28 -16 28 -38q0 -14 -7.5 -22.5t-15.5 -13.5q-3 3 -14 12t-32.5 19t-53 18t-74.5 8q-70 0 -103.5 -21t-33.5 -66q0 -35 27 -53t78 -26l86 -13q98 -16 136.5 -50.5t38.5 -88.5q0 -66 -49.5 -108t-159.5 -42q-50 0 -89.5 8t-68 17.5t-45.5 19t-21 12.5l28 50
l20 -11.5t39.5 -17.5t58 -16t76.5 -7q30 0 56.5 4.5t45.5 14.5t30 26t11 40q0 19 -6 33t-20.5 24.5t-38.5 18.5t-61 14l-72 11q-81 12 -123.5 44.5t-42.5 92.5q0 27 9.5 52.5t33 46t63 33t98.5 12.5q66 0 106 -12.5t62 -24.5z" />
    <glyph glyph-name="t" unicode="t" horiz-adv-x="381" 
d="M119 624q0 15 8.5 24.5t27.5 9.5q9 0 17.5 -2.5t12.5 -4.5v-157h150q14 0 23.5 -6.5t9.5 -22.5q0 -11 -3.5 -18.5t-5.5 -10.5h-174v-295q0 -55 24 -77t66 -22q35 0 58 12t31 17l29 -43q-6 -5 -16.5 -12t-26.5 -14t-37.5 -11.5t-48.5 -4.5q-38 0 -65.5 11t-45 30t-26 45
t-8.5 55v309h-61q-14 0 -23.5 6.5t-9.5 22.5q0 11 3.5 18.5t5.5 10.5h85v130z" />
    <glyph glyph-name="u" unicode="u" horiz-adv-x="614" 
d="M460 460q0 15 8.5 24.5t27.5 9.5q9 0 17.5 -2.5t12.5 -4.5v-487q-10 -2 -28.5 -4.5t-42 -5t-51 -4t-54.5 -1.5q-92 0 -146.5 25.5t-84.5 72.5q-31 52 -31 131v246q0 15 8.5 24.5t27.5 9.5q9 0 17.5 -2.5t12.5 -4.5v-266q0 -45 10 -78.5t33.5 -55.5t61 -33t92.5 -11
q42 0 71.5 3.5t37.5 5.5v408z" />
    <glyph glyph-name="v" unicode="v" horiz-adv-x="529" 
d="M29 403q-5 11 -12 29t-7 29q0 14 8 23.5t26 9.5q11 0 17.5 -2t8.5 -3q22 -60 48 -120.5l52.5 -116.5l50.5 -105.5l43 -88.5q19 36 43.5 88l50 109.5l49.5 114.5l42 102q3 7 10 14.5t24 7.5q15 0 24.5 -6.5t11.5 -8.5q-7 -24 -21.5 -60l-33 -79l-40.5 -90l-44 -92l-43 -86
l-38 -72h-73l-52 98.5l-57 113.5l-51.5 108t-36.5 83z" />
    <glyph glyph-name="w" unicode="w" horiz-adv-x="788" 
d="M218 59l29.5 90l30 92.5l31.5 100l34 113.5q7 23 18.5 31t31.5 8q14 0 23.5 -3.5t12.5 -5.5q12 -45 29.5 -99.5l36 -111.5l37.5 -113l34 -104l72.5 205.5t63.5 203.5q4 14 12 21t25 7q14 0 23 -5t11 -7q-9 -37 -28 -94.5l-42.5 -124l-49.5 -135l-50 -128.5h-80
q-10 26 -27 74.5l-36 106.5l-38.5 119.5l-34.5 112.5q-15 -56 -33.5 -117l-37 -117.5l-34.5 -103.5l-26 -75h-80l-49 131l-46 128l-35.5 101t-17.5 50q-4 11 -8.5 25t-4.5 24q0 14 9 24.5t27 10.5q11 0 18 -2t9 -3q11 -44 27.5 -98.5t36 -112l39.5 -114.5z" />
    <glyph glyph-name="x" unicode="x" horiz-adv-x="501" 
d="M410 0q-32 43 -72 91l-97 115l-88 -110.5t-71 -95.5h-72q7 11 26.5 36l46.5 58.5l58.5 73.5l63.5 80l-52.5 59.5l-47.5 53l-39 43.5l-27 31q-7 8 -11.5 16t-4.5 16q0 9 6 18t24 9t24 -6l168 -191l140 173q8 10 17 17t26 7q14 0 24 -5.5t14 -9.5q-5 -7 -22 -27.5
l-42.5 -50.5l-56.5 -67.5l-64 -78.5l67 -78l61 -73.5l49.5 -61.5t32.5 -42h-81z" />
    <glyph glyph-name="y" unicode="y" horiz-adv-x="530" 
d="M284 105l35.5 72l42.5 92l43 99.5l38 94.5q5 14 14.5 22.5t26.5 8.5q15 0 24.5 -6.5t11.5 -8.5q-14 -45 -40.5 -106l-61.5 -136l-72.5 -148t-79.5 -143q-25 -42 -47.5 -70t-45.5 -45t-48 -24t-56 -7q-25 0 -43.5 4t-31.5 9t-20 9.5t-8 5.5l27 52q5 -4 25 -14t51 -10
q25 0 44.5 7.5t37.5 25t35.5 45t38.5 66.5l22 42l-27.5 45.5l-41.5 68.5l-47.5 79l-46 77.5l-37.5 64l-22 38.5l-10 23t-5 23q0 14 7.5 23.5t24.5 9.5q11 0 17.5 -2t8.5 -3q4 -9 17 -34l31.5 -59l41 -73.5l45 -79.5l44 -76z" />
    <glyph glyph-name="z" unicode="z" horiz-adv-x="520" 
d="M438 494q42 0 42 -33q0 -6 -1.5 -12.5t-7 -14.5t-14.5 -20t-24 -29l-47.5 -51l-58.5 -60l-63.5 -63l-62 -61l-54 -53l-40.5 -39h373v-58h-450v64l54.5 51l66.5 65l71 71.5l69.5 71l61.5 64l46 49.5h-336q-14 0 -23.5 6.5t-9.5 22.5q0 11 3.5 18.5t5.5 10.5h399z" />
    <glyph glyph-name="braceleft" unicode="{" horiz-adv-x="395" 
d="M307 678q-46 0 -61.5 -19.5t-15.5 -64.5v-148q0 -33 -5 -56t-15.5 -38.5t-27 -26.5t-38.5 -21q22 -11 38.5 -22.5t27 -27.5t15.5 -38.5t5 -56.5v-148q0 -45 15.5 -64.5t61.5 -19.5h43v-59h-67q-57 0 -88.5 27.5t-31.5 84.5v178q0 64 -30.5 89t-84.5 25h-3v60h3
q54 0 84.5 25t30.5 89v179q0 57 31.5 84.5t88.5 27.5h58q2 -3 5.5 -10.5t3.5 -18.5q0 -16 -9.5 -23t-23.5 -7h-10z" />
    <glyph glyph-name="bar" unicode="|" horiz-adv-x="264" 
d="M100 703q0 15 8.5 24.5t27.5 9.5q9 0 17.5 -2.5t12.5 -4.5v-862h-66v835z" />
    <glyph glyph-name="braceright" unicode="}" horiz-adv-x="395" 
d="M78 678q-14 0 -23.5 7t-9.5 23q0 11 3.5 18.5t5.5 10.5h58q57 0 88.5 -27.5t31.5 -84.5v-179q0 -64 30.5 -89t84.5 -25h3v-60h-3q-54 0 -84.5 -25t-30.5 -89v-178q0 -57 -31.5 -84.5t-88.5 -27.5h-67v59h43q46 0 61.5 19.5t15.5 64.5v148q0 34 5 56.5t15.5 38.5
t26.5 27.5t39 22.5q-23 10 -39 21t-26.5 26.5t-15.5 38.5t-5 56v148q0 45 -15.5 64.5t-61.5 19.5h-10z" />
    <glyph glyph-name="asciitilde" unicode="~" horiz-adv-x="648" 
d="M280 323q-19 8 -45.5 15.5t-49.5 7.5q-19 0 -32 -7t-21.5 -17.5t-13.5 -24t-8 -26.5h-55q8 73 43 106.5t93 33.5q26 0 50 -6t46 -14l74 -31q22 -8 42 -14t45 -6q21 0 34.5 6t22 16t12.5 23.5t7 28.5h54q-8 -69 -40.5 -105t-89.5 -36q-26 0 -53 7.5t-47 15.5z" />
    <glyph glyph-name="Euro" unicode="&#x20ac;" 
d="M210 235q14 -55 39.5 -92t58 -59.5t69.5 -32.5t74 -10q51 0 86 14t55 25l25 -48q-21 -16 -63.5 -33t-112.5 -17q-47 0 -95 13.5t-89.5 44t-73 78.5t-46.5 117h-84v54h76q-1 12 -1.5 25.5t-0.5 27.5q0 31 3 60h-77v54h87q16 65 46 112t69.5 77t86.5 44.5t97 14.5
q33 0 59 -4.5t45.5 -10.5t32.5 -12.5t19 -10.5q17 -11 22.5 -22t5.5 -19q0 -14 -9.5 -26t-19.5 -17q-17 23 -57 43.5t-100 20.5q-36 0 -71 -10t-65 -32.5t-53.5 -59t-36.5 -88.5h274q12 0 20 -6.5t8 -20.5q0 -9 -2.5 -16.5t-4.5 -10.5h-305q-3 -29 -3 -61q0 -14 0.5 -27
t1.5 -25h227q12 0 20 -6.5t8 -20.5q0 -9 -2.5 -16.5t-4.5 -10.5h-238z" />
    <glyph glyph-name="quotesinglbase" unicode="&#x201a;" horiz-adv-x="278" 
d="M63 -145q2 3 13 16.5t23.5 32.5t24 41.5t14.5 43.5q-29 2 -44 17.5t-15 40.5q0 24 16 40.5t42 16.5q24 0 43.5 -18.5t19.5 -61.5q0 -38 -14.5 -72.5t-32.5 -61.5t-34 -44.5t-19 -20.5z" />
    <glyph glyph-name="florin" unicode="&#x192;" 
d="M221 541q7 53 26.5 90.5t48 61t65.5 34t79 10.5q51 0 76 -8.5t33 -13.5q17 -11 17 -27q0 -13 -7 -22t-15 -14q-17 14 -44.5 22.5t-64.5 8.5q-39 0 -65.5 -10.5t-43.5 -31t-26.5 -50.5t-14.5 -68l-4 -29h179q15 0 24 -6t9 -20q0 -8 -3.5 -18.5t-7.5 -15.5h-210l-64 -454
q-8 -57 -25 -94t-41 -58.5t-53 -29.5t-60 -8q-34 0 -57.5 6t-35.5 11l21 47q11 -5 28.5 -9.5t39.5 -4.5q20 0 38.5 4.5t34 19.5t27.5 43.5t19 77.5z" />
    <glyph glyph-name="quotedblbase" unicode="&#x201e;" horiz-adv-x="500" 
d="M253 -145q2 3 13 16.5t23.5 32.5t24 41.5t14.5 43.5q-29 2 -44 17.5t-15 40.5q0 24 16 40.5t42 16.5q24 0 43.5 -18.5t19.5 -61.5q0 -38 -14.5 -72.5t-32.5 -61.5t-34 -44.5t-19 -20.5zM63 -145q2 3 13 16.5t23.5 32.5t24 41.5t14.5 43.5q-29 2 -44 17.5t-15 40.5
q0 24 16 40.5t42 16.5q24 0 43.5 -18.5t19.5 -61.5q0 -38 -14.5 -72.5t-32.5 -61.5t-34 -44.5t-19 -20.5z" />
    <glyph glyph-name="ellipsis" unicode="&#x2026;" horiz-adv-x="786" 
d="M190 46q0 -25 -17 -42.5t-41 -17.5q-25 0 -42.5 17.5t-17.5 42.5q0 24 17.5 41t42.5 17q24 0 41 -17t17 -41zM452 46q0 -25 -17 -42.5t-41 -17.5q-25 0 -42.5 17.5t-17.5 42.5q0 24 17.5 41t42.5 17q24 0 41 -17t17 -41zM714 46q0 -25 -17 -42.5t-41 -17.5
q-25 0 -42.5 17.5t-17.5 42.5q0 24 17.5 41t42.5 17q24 0 41 -17t17 -41z" />
    <glyph glyph-name="dagger" unicode="&#x2020;" horiz-adv-x="490" 
d="M278 -200h-66v634h-165q-21 0 -29 9.5t-8 23.5q0 8 2 15t4 12h196v209q0 15 8.5 24.5t27.5 9.5q9 0 17.5 -2.5t12.5 -4.5v-236h165q21 0 29 -9.5t8 -23.5q0 -8 -2 -15t-4 -12h-196v-634z" />
    <glyph glyph-name="daggerdbl" unicode="&#x2021;" horiz-adv-x="540" 
d="M237 494v209q0 15 8.5 24.5t27.5 9.5q9 0 17.5 -2.5t12.5 -4.5v-236h165q21 0 29 -9.5t8 -23.5q0 -8 -2 -15t-4 -12h-196v-331h165q21 0 29 -9.5t8 -23.5q0 -8 -2 -15t-4 -12h-196v-243h-66v243h-165q-21 0 -29 9.5t-8 23.5q0 8 2 15t4 12h196v331h-165q-21 0 -29 9.5
t-8 23.5q0 8 2 15t4 12h196z" />
    <glyph glyph-name="circumflex" unicode="&#x2c6;" horiz-adv-x="500" 
d="M250 704q14 0 24.5 -8.5l23.5 -19.5l90 -82l-32 -32l-106 74l-106 -74l-32 32l89 82q13 12 24 20t25 8z" />
    <glyph glyph-name="perthousand" unicode="&#x2030;" horiz-adv-x="1281" 
d="M392 548q0 -44 -14 -78.5t-37.5 -59t-55 -37.5t-67.5 -13t-67.5 13t-55 37.5t-37.5 59t-14 78.5q0 43 14 78t37.5 60t55 38t67.5 13t67.5 -13t55 -38t37.5 -60t14 -78zM334 548q0 66 -33.5 101.5t-82.5 35.5q-48 0 -82 -35.5t-34 -101.5q0 -63 34 -99t82 -36
q49 0 82.5 36t33.5 99zM250 -18h-67l413 730v-1q5 10 12.5 18t26.5 8q13 0 21 -5t13 -10zM816 170q0 -44 -14 -78.5t-37.5 -59t-55 -37.5t-67.5 -13t-67.5 13t-55 37.5t-37.5 59t-14 78.5q0 43 14 78t37.5 60t55 38t67.5 13t67.5 -13t55 -38t37.5 -60t14 -78zM758 170
q0 66 -33.5 101.5t-82.5 35.5q-48 0 -82 -35.5t-34 -101.5q0 -63 34 -99t82 -36q49 0 82.5 36t33.5 99zM1237 170q0 -44 -14 -78.5t-37.5 -59t-55 -37.5t-67.5 -13t-67.5 13t-55 37.5t-37.5 59t-14 78.5q0 43 14 78t37.5 60t55 38t67.5 13t67.5 -13t55 -38t37.5 -60t14 -78z
M1179 170q0 66 -33.5 101.5t-82.5 35.5q-48 0 -82 -35.5t-34 -101.5q0 -63 34 -99t82 -36q49 0 82.5 36t33.5 99z" />
    <glyph glyph-name="Scaron" unicode="&#x160;" horiz-adv-x="648" 
d="M316 704q44 0 77 -5.5t57 -14t39 -17t23 -14.5q14 -12 19 -21.5t5 -17.5q0 -14 -10.5 -26t-18.5 -17q-10 12 -25.5 25.5t-38.5 24.5t-54 18.5t-72 7.5q-44 0 -76 -9.5t-52.5 -27t-30 -40.5t-9.5 -50q0 -30 10 -50.5t28.5 -35.5t46 -26t63.5 -21l82 -22
q97 -26 145.5 -68.5t48.5 -118.5q0 -42 -13.5 -77.5t-43 -62t-76 -41.5t-111.5 -15q-56 0 -99.5 9.5t-76 22.5t-53.5 27t-31 22l33 50q12 -9 31.5 -21.5t46.5 -24t62.5 -19.5t80.5 -8q88 0 134 32t46 98q0 33 -12 55.5t-32 37.5t-45.5 24t-52.5 16l-87 23q-41 11 -77 26.5
t-62.5 38t-41.5 53t-15 71.5q0 32 11 65.5t38.5 61t73.5 45t115 17.5zM181 841l27 34l126 -63l127 63l27 -34l-98 -73l-27.5 -20t-28.5 -9t-28.5 9l-27.5 20z" />
    <glyph glyph-name="guilsinglleft" unicode="&#x2039;" horiz-adv-x="287" 
d="M51 211q-5 5 -9.5 13.5t-4.5 16.5q0 6 0.5 9.5t1.5 5.5l168 196l44 -35l-149 -175l149 -165l-44 -35z" />
    <glyph glyph-name="OE" unicode="&#x152;" horiz-adv-x="1175" 
d="M746 325v-264h351v-61h-421v141q-38 -75 -109 -117t-158 -42q-75 0 -137.5 27t-107.5 75.5t-69.5 115t-24.5 144.5t24.5 144t69.5 114t107.5 75t137.5 27q87 0 158 -40t109 -115v97q0 18 11 29t34 11h350q14 0 23.5 -7.5t9.5 -23.5q0 -11 -3.5 -19t-5.5 -11h-349v-239
h309q14 0 23.5 -7.5t9.5 -23.5q0 -11 -3.5 -19t-5.5 -11h-333zM675 344q0 66 -19 121t-54 94.5t-84 61.5t-109 22t-108.5 -22t-83.5 -61.5t-54 -94.5t-19 -121t19 -121.5t54 -95.5t83.5 -62t108.5 -22t109 22t84 62t54 95.5t19 121.5z" />
    <glyph glyph-name="quoteleft" unicode="&#x2018;" horiz-adv-x="278" 
d="M215 707q-2 -3 -13 -16.5t-23.5 -32.5t-24 -41.5t-14.5 -43.5q29 -2 44 -17.5t15 -40.5q0 -24 -16 -40.5t-42 -16.5q-24 0 -43.5 18.5t-19.5 61.5q0 37 14.5 72t32.5 62t34 44.5t19 20.5z" />
    <glyph glyph-name="quoteright" unicode="&#x2019;" horiz-adv-x="278" 
d="M63 488q2 3 13 16.5t23.5 32.5t24 41.5t14.5 43.5q-29 2 -44 17.5t-15 40.5q0 24 16 40.5t42 16.5q24 0 43.5 -18.5t19.5 -61.5q0 -38 -14.5 -72.5t-32.5 -61.5t-34 -44.5t-19 -20.5z" />
    <glyph glyph-name="quotedblleft" unicode="&#x201c;" horiz-adv-x="468" 
d="M405 707q-2 -3 -13 -16.5t-23.5 -32.5t-24 -41.5t-14.5 -43.5q29 -2 44 -17.5t15 -40.5q0 -24 -16 -40.5t-42 -16.5q-24 0 -43.5 18.5t-19.5 61.5q0 37 14.5 72t32.5 62t34 44.5t19 20.5zM215 707q-2 -3 -13 -16.5t-23.5 -32.5t-24 -41.5t-14.5 -43.5q29 -2 44 -17.5
t15 -40.5q0 -24 -16 -40.5t-42 -16.5q-24 0 -43.5 18.5t-19.5 61.5q0 37 14.5 72t32.5 62t34 44.5t19 20.5z" />
    <glyph glyph-name="quotedblright" unicode="&#x201d;" horiz-adv-x="468" 
d="M63 488q2 3 13 16.5t23.5 32.5t24 41.5t14.5 43.5q-29 2 -44 17.5t-15 40.5q0 24 16 40.5t42 16.5q24 0 43.5 -18.5t19.5 -61.5q0 -38 -14.5 -72.5t-32.5 -61.5t-34 -44.5t-19 -20.5zM253 488q2 3 13 16.5t23.5 32.5t24 41.5t14.5 43.5q-29 2 -44 17.5t-15 40.5
q0 24 16 40.5t42 16.5q24 0 43.5 -18.5t19.5 -61.5q0 -38 -14.5 -72.5t-32.5 -61.5t-34 -44.5t-19 -20.5z" />
    <glyph glyph-name="bullet" unicode="&#x2022;" horiz-adv-x="449" 
d="M225 522q39 0 71.5 -14t56.5 -38.5t37.5 -57.5t13.5 -70t-13.5 -69.5t-37.5 -57t-56.5 -38.5t-71.5 -14t-72 14t-57 38.5t-37.5 57t-13.5 69.5t13.5 70t37.5 57.5t57 38.5t72 14z" />
    <glyph glyph-name="endash" unicode="&#x2013;" horiz-adv-x="500" 
d="M0 241v59h500v-59h-500z" />
    <glyph glyph-name="emdash" unicode="&#x2014;" horiz-adv-x="960" 
d="M0 241v59h960v-59h-960z" />
    <glyph glyph-name="tilde" unicode="&#x2dc;" horiz-adv-x="500" 
d="M226 605l-23.5 7.5t-23.5 3.5q-19 0 -26.5 -10t-12.5 -29l-51 8q3 16 9.5 32.5t17 29.5t26.5 21t38 8q20 0 37.5 -4t31.5 -9l21 -7q10 -3 23.5 -7.5t27.5 -4.5q18 0 26 9.5t13 28.5l51 -8q-3 -17 -9.5 -33t-17.5 -29t-27 -21t-37 -8q-20 0 -38 4.5t-32 9.5z" />
    <glyph glyph-name="trademark" unicode="&#x2122;" horiz-adv-x="948" 
d="M515 669l10 -20.5l20 -40.5l26 -52l27.5 -55l25.5 -50.5t20 -37.5l30 59l36.5 73l34 67.5t22.5 42.5q6 11 16 21t30 10q11 0 20 -4.5l13 -6.5l12 -203.5t10 -204.5h-55q-1 25 -3 65.5t-4 86t-5 91.5t-6 83l-124 -240h-56l-28 57l-31 63.5l-32.5 64l-31.5 58.5
q-5 -82 -9 -166t-6 -163h-57l20 385q1 17 11.5 25.5t24.5 8.5q15 0 24.5 -5.5t14.5 -11.5zM367 686q11 0 18.5 -6.5t7.5 -20.5q0 -8 -3.5 -16t-5.5 -12h-159v-364h-58v364h-132q-11 0 -18.5 7.5t-7.5 21.5q0 8 4 15t6 11h348z" />
    <glyph glyph-name="scaron" unicode="&#x161;" horiz-adv-x="551" 
d="M431 471q28 -16 28 -38q0 -14 -7.5 -22.5t-15.5 -13.5q-3 3 -14 12t-32.5 19t-53 18t-74.5 8q-70 0 -103.5 -21t-33.5 -66q0 -35 27 -53t78 -26l86 -13q98 -16 136.5 -50.5t38.5 -88.5q0 -66 -49.5 -108t-159.5 -42q-50 0 -89.5 8t-68 17.5t-45.5 19t-21 12.5l28 50
l20 -11.5t39.5 -17.5t58 -16t76.5 -7q30 0 56.5 4.5t45.5 14.5t30 26t11 40q0 19 -6 33t-20.5 24.5t-38.5 18.5t-61 14l-72 11q-81 12 -123.5 44.5t-42.5 92.5q0 27 9.5 52.5t33 46t63 33t98.5 12.5q66 0 106 -12.5t62 -24.5zM283 562q-14 0 -24.5 8.5l-23.5 19.5l-90 82
l32 32l106 -74l106 74l32 -32l-89 -82q-13 -12 -24 -20t-25 -8z" />
    <glyph glyph-name="guilsinglright" unicode="&#x203a;" horiz-adv-x="287" 
d="M237 283q5 -5 9.5 -13.5t4.5 -16.5q0 -6 -0.5 -9.5t-1.5 -5.5l-168 -196l-44 35l149 175l-149 165l44 35z" />
    <glyph glyph-name="oe" unicode="&#x153;" horiz-adv-x="1020" 
d="M133 247q0 -46 13 -83.5t37.5 -64.5t58.5 -42t76 -15t76 15t58.5 42t37.5 64.5t13 83.5t-13 83.5t-37.5 64.5t-58.5 42t-76 15t-76 -15t-58.5 -42t-37.5 -64.5t-13 -83.5zM531 106q-5 -12 -20.5 -32.5t-41.5 -40t-63.5 -33.5t-87.5 -14q-55 0 -102 19.5t-81 54
t-53.5 82.5t-19.5 105t19.5 105t53.5 82.5t81 54t102 19.5q51 0 89.5 -15t65.5 -36t43 -43t23 -35q6 12 21.5 34t41 43t63 36.5t87.5 15.5q102 0 155 -49t53 -137q0 -54 -28.5 -83.5t-92.5 -29.5h-269q10 -85 57.5 -124.5t131.5 -39.5q49 0 88 13.5t57 24.5l27 -49
q-8 -5 -24.5 -13.5t-40 -16t-53 -13t-63.5 -5.5q-53 0 -92 14t-66 33.5t-42 40t-19 32.5zM812 262q40 0 61.5 13t21.5 55q0 24 -7.5 46.5t-24 39.5t-44 27.5t-66.5 10.5q-44 0 -78 -17t-57 -44t-35.5 -61.5t-13.5 -69.5h243z" />
    <glyph glyph-name="Ydieresis" unicode="&#x178;" horiz-adv-x="656" 
d="M624 672l-28.5 -48.5l-40 -65l-47.5 -75l-51.5 -78.5l-52 -75.5t-48.5 -65.5v-264h-70v266q-26 32 -59.5 77.5l-67 92.5l-62.5 89l-45 66q-16 23 -24.5 38t-8.5 26t7 21t26 10q11 0 17 -2.5t10 -4.5l43 -65l62.5 -93.5l71 -102.5t69.5 -92q36 48 70.5 101.5l63.5 101
l50.5 83.5t32.5 50q9 11 18.5 17.5t25.5 6.5q17 0 26.5 -6t11.5 -8zM232 750q-21 0 -37.5 16t-16.5 35q0 20 16.5 36t37.5 16q22 0 38 -16t16 -36q0 -19 -16 -35t-38 -16zM428 750q-22 0 -38 16t-16 35q0 20 16 36t38 16t38 -16t16 -36q0 -19 -16 -35t-38 -16z" />
    <glyph glyph-name="uni00A0" unicode="&#xa0;" horiz-adv-x="250" 
 />
    <glyph glyph-name="exclamdown" unicode="&#xa1;" horiz-adv-x="241" 
d="M153 22q0 -16 -7.5 -26t-27.5 -10q-10 0 -18 2.5t-13 5.5v466h66v-438zM61 628q0 24 17 41t41 17q25 0 42.5 -17t17.5 -41q0 -25 -17.5 -42.5t-42.5 -17.5q-24 0 -41 17.5t-17 42.5z" />
    <glyph glyph-name="cent" unicode="&#xa2;" 
d="M331 85q-47 7 -85 26.5t-66 52t-43 76.5t-15 99t16 100t43.5 78t66 54t83.5 29v107q0 10 7.5 17t21.5 7q10 0 17 -2t9 -3v-122q31 0 54.5 -4.5t40 -10.5t26 -11.5t13.5 -8.5q7 -5 12 -12.5t5 -18.5q0 -8 -5.5 -19t-16.5 -19q-14 12 -45 28.5t-84 18.5v-408
q45 0 76.5 12.5t45.5 20.5l27 -49q-16 -11 -54 -25t-95 -16v-119h-55v122zM193 343q0 -90 38.5 -137.5t99.5 -61.5v397q-30 -7 -55 -22.5t-43.5 -40t-29 -58.5t-10.5 -77z" />
    <glyph glyph-name="sterling" unicode="&#xa3;" 
d="M586 60v-60h-475l20 440q5 117 71.5 185.5t185.5 68.5q48 0 82 -7.5t56.5 -16.5t33.5 -17.5t14 -11.5q11 -10 15.5 -18t4.5 -19q0 -12 -8.5 -24t-20.5 -17q-8 11 -23 24t-37 24.5t-50 19t-62 7.5q-51 0 -87 -16t-59 -44t-34 -66t-13 -81l-3 -63h268q14 0 23.5 -7t9.5 -23
q0 -11 -3.5 -19t-5.5 -11h-295l-11 -248h403z" />
    <glyph glyph-name="currency" unicode="&#xa4;" horiz-adv-x="584" 
d="M66 343q0 40 13.5 76t36.5 65l-61 65l43 46l64 -67q55 41 130 41q36 0 69 -11t61 -31l64 68l43 -46l-61 -65q23 -29 36.5 -65t13.5 -76q0 -42 -13.5 -77.5t-36.5 -64.5l61 -64l-43 -46l-63 68q-28 -20 -61 -31t-70 -11q-75 0 -131 41l-63 -67l-43 46l61 64
q-23 29 -36.5 64.5t-13.5 77.5zM128 343q0 -36 13 -67t35 -54t52 -36t64 -13t64 13t52 36t35 54t13 67t-13 67t-35 54t-52 36t-64 13t-64 -13t-52 -36t-35 -54t-13 -67z" />
    <glyph glyph-name="yen" unicode="&#xa5;" horiz-adv-x="640" 
d="M354 146v-146h-70v146h-170q-14 0 -23.5 7t-9.5 22q0 10 3.5 17.5t5.5 10.5h194v81h-170q-14 0 -23.5 7t-9.5 22q0 10 3.5 17.5t5.5 10.5h161q-54 63 -102.5 125.5l-93.5 125.5q-16 22 -23 37t-7 26t6 21t23 10q11 0 18 -2.5t9 -4.5l113 -160.5t125 -160.5l47.5 65l54 77
l55.5 80l52 75q11 16 22 23.5t27 7.5q17 0 26.5 -6t11.5 -8l-107.5 -160.5t-125.5 -170.5h143q14 0 23.5 -7t9.5 -22q0 -10 -3.5 -17.5t-5.5 -10.5h-195v-81h171q14 0 23.5 -7t9.5 -22q0 -10 -3.5 -17.5t-5.5 -10.5h-195z" />
    <glyph glyph-name="brokenbar" unicode="&#xa6;" horiz-adv-x="264" 
d="M100 446v257q0 15 8.5 24.5t27.5 9.5q9 0 17.5 -2.5t12.5 -4.5v-284h-66zM166 -132h-66v289h66v-289z" />
    <glyph glyph-name="section" unicode="&#xa7;" horiz-adv-x="650" 
d="M378 152q27 0 51.5 9.5t42.5 25.5t29 37.5t11 45.5q0 45 -31 75.5t-108 40.5l-47 6q-23 4 -57 4q-29 0 -52.5 -10t-40.5 -26.5t-26.5 -38.5t-9.5 -45q0 -45 34 -74t89 -37l52 -7q9 -2 28.5 -4t34.5 -2zM168 416q-48 20 -72 58.5t-24 87.5q0 33 12 64.5t40.5 56t74.5 39.5
t114 15q75 0 125.5 -15t75.5 -29q15 -11 22.5 -20t7.5 -21q0 -17 -8 -26t-17 -14q-5 4 -20 15t-40.5 22.5t-62 20.5t-84.5 9q-78 0 -122.5 -28t-44.5 -85q0 -45 30.5 -70t85.5 -33l116 -15q57 -8 96 -22.5t63 -35.5t34 -48.5t10 -60.5q0 -49 -27 -90.5t-76 -62.5
q52 -21 77.5 -58.5t25.5 -83.5q0 -40 -15.5 -74t-46.5 -59t-76 -39t-105 -14t-108.5 11t-83 24.5t-54 25.5t-21.5 14l34 51q2 -2 19 -13t46.5 -23t71 -21.5t93.5 -9.5q37 0 69 7t55 21.5t36.5 36.5t13.5 51q0 45 -30 73.5t-107 39.5l-113 16q-85 12 -135.5 54t-50.5 114
q0 45 23.5 84t72.5 60z" />
    <glyph glyph-name="dieresis" unicode="&#xa8;" horiz-adv-x="500" 
d="M161 576q-20 0 -36 15.5t-16 34.5t16 34.5t36 15.5q21 0 36.5 -15.5t15.5 -34.5t-15.5 -34.5t-36.5 -15.5zM338 576q-21 0 -36.5 15.5t-15.5 34.5t15.5 34.5t36.5 15.5t36.5 -15.5t15.5 -34.5t-15.5 -34.5t-36.5 -15.5z" />
    <glyph glyph-name="copyright" unicode="&#xa9;" horiz-adv-x="816" 
d="M539 526q11 -8 14 -14t3 -14q0 -12 -9 -23.5t-17 -15.5q-11 13 -42.5 28t-71.5 15q-31 0 -58 -11t-47.5 -31.5t-32.5 -50.5t-12 -68t12 -67.5t33.5 -50t50 -31t61.5 -10.5q42 0 71 11t42 20l24 -48q-15 -11 -49 -25t-92 -14q-43 0 -82 14.5t-69 42t-47.5 67.5t-17.5 90
q0 51 17.5 91t47 68.5t68 43.5t81.5 15q45 0 76.5 -10.5t45.5 -21.5zM47 343q0 75 28.5 140.5t77.5 114.5t114.5 77.5t140.5 28.5t140.5 -28.5t114.5 -77.5t77.5 -114.5t28.5 -140.5t-28.5 -140.5t-77.5 -114.5t-114.5 -77.5t-140.5 -28.5t-140.5 28.5t-114.5 77.5
t-77.5 114.5t-28.5 140.5zM115 343q0 -63 23 -118.5t62.5 -96.5t93 -64.5t114.5 -23.5t114.5 23.5t93 64.5t62.5 96.5t23 118.5t-23 118.5t-62.5 96.5t-93 64.5t-114.5 23.5t-114.5 -23.5t-93 -64.5t-62.5 -96.5t-23 -118.5z" />
    <glyph glyph-name="ordfeminine" unicode="&#xaa;" horiz-adv-x="408" 
d="M177 657q-38 0 -62.5 -10.5t-34.5 -19.5q-7 5 -13 13.5t-6 16.5q0 15 17 26h-1q7 5 32 13t67 8q88 0 135 -35.5t47 -113.5v-213q-23 -3 -63 -7.5t-88 -4.5q-58 0 -93.5 10t-55 26.5t-26 37t-6.5 40.5q0 26 8 47.5t27.5 37t52 24t82.5 8.5q29 0 58 -3t46 -5q0 31 -10 51.5
t-27 32t-39.5 16t-46.5 4.5zM208 375q38 0 60 2.5t32 4.5v124l-1 1q-11 2 -36 5.5t-70 3.5q-49 0 -78.5 -15.5t-29.5 -56.5q0 -35 28.5 -52t94.5 -17z" />
    <glyph glyph-name="guillemotleft" unicode="&#xab;" horiz-adv-x="500" 
d="M51 211q-5 5 -9.5 13.5t-4.5 16.5q0 6 0.5 9.5t1.5 5.5l168 196l44 -35l-149 -175l149 -165l-44 -35zM264 211q-5 5 -9.5 13.5t-4.5 16.5q0 6 0.5 9.5t1.5 5.5l168 196l44 -35l-149 -175l149 -165l-44 -35z" />
    <glyph glyph-name="logicalnot" unicode="&#xac;" horiz-adv-x="637" 
d="M81 383q-19 0 -26.5 8.5t-7.5 22.5q0 8 2 15.5t4 12.5h479q19 0 26.5 -8.5t7.5 -22.5v-226h-65v198h-420z" />
    <glyph glyph-name="uni00AD" unicode="&#xad;" horiz-adv-x="349" 
d="M96 235q-20 0 -28 12t-8 27t6 32h187q21 0 28.5 -12t7.5 -27q0 -12 -5 -32h-188z" />
    <glyph glyph-name="registered" unicode="&#xae;" horiz-adv-x="816" 
d="M507 433q0 36 -29.5 58.5t-105.5 22.5q-28 0 -45.5 -1.5t-25.5 -2.5v-157q11 -2 29.5 -3.5t47.5 -1.5q69 0 99 22.5t30 62.5zM566 433q0 -49 -25 -78t-57 -41q15 -20 29 -42.5l27.5 -45.5t25.5 -45.5l22 -41.5h-65l-19.5 35.5l-27 46.5l-28 45.5t-22.5 33.5
q-7 -1 -25 -1.5t-35 -0.5q-15 0 -33.5 1t-31.5 3v-163h-54v387q0 27 30 33q18 5 99 5q41 0 76 -7t60.5 -22.5t39.5 -40.5t14 -61zM47 343q0 75 28.5 140.5t77.5 114.5t114.5 77.5t140.5 28.5t140.5 -28.5t114.5 -77.5t77.5 -114.5t28.5 -140.5t-28.5 -140.5t-77.5 -114.5
t-114.5 -77.5t-140.5 -28.5t-140.5 28.5t-114.5 77.5t-77.5 114.5t-28.5 140.5zM115 343q0 -63 23 -118.5t62.5 -96.5t93 -64.5t114.5 -23.5t114.5 23.5t93 64.5t62.5 96.5t23 118.5t-23 118.5t-62.5 96.5t-93 64.5t-114.5 23.5t-114.5 -23.5t-93 -64.5t-62.5 -96.5
t-23 -118.5z" />
    <glyph glyph-name="macron" unicode="&#xaf;" horiz-adv-x="500" 
d="M365 660q20 0 28 -9t8 -23q0 -10 -2 -17.5t-4 -12.5h-260q-20 0 -28 9t-8 24q0 9 2 16.5t4 12.5h260z" />
    <glyph glyph-name="degree" unicode="&#xb0;" horiz-adv-x="416" 
d="M391 557q0 -38 -14.5 -70.5t-39 -56.5t-58 -38t-71.5 -14t-71.5 14t-58 38t-39 56.5t-14.5 70.5t14.5 71t39 57t58 38t71.5 14t71.5 -14t58 -38t39 -57t14.5 -71zM333 557q0 26 -10 49t-27 40t-40 27t-48 10q-26 0 -48.5 -10t-39 -27t-26.5 -40t-10 -49t10 -48.5
t26.5 -39t39 -26.5t48.5 -10q25 0 48 10t40 26.5t27 39t10 48.5z" />
    <glyph glyph-name="plusminus" unicode="&#xb1;" horiz-adv-x="637" 
d="M578 358q0 -9 -2 -16.5t-4 -12.5h-220v-206h-65v206h-194q-19 0 -26.5 9t-7.5 23q0 8 2 15.5t4 12.5h222v180q0 14 8 23.5t26 9.5q20 0 31 -7v-206h192q19 0 26.5 -9t7.5 -22zM93 0q-19 0 -26.5 9t-7.5 23q0 8 2 15.5t4 12.5h479q19 0 26.5 -9t7.5 -22q0 -9 -2 -16.5
t-4 -12.5h-479z" />
    <glyph glyph-name="acute" unicode="&#xb4;" horiz-adv-x="500" 
d="M187 562l-29 38l103 84q12 10 20.5 13.5t19.5 3.5q22 0 32.5 -15t11.5 -28z" />
    <glyph glyph-name="mu" unicode="&#xb5;" horiz-adv-x="614" 
d="M350 -15q-70 0 -117.5 19t-78.5 58v-262h-66v660q0 15 8.5 24.5t27.5 9.5q9 0 17.5 -2.5t12.5 -4.5v-328q6 -15 17 -35t32.5 -38t57 -30.5t90.5 -12.5q42 0 71.5 3.5t37.5 5.5v408q0 15 8.5 24.5t27.5 9.5q9 0 17.5 -2.5t12.5 -4.5v-487q-10 -2 -28.5 -4.5t-42 -5t-51 -4
t-54.5 -1.5z" />
    <glyph glyph-name="paragraph" unicode="&#xb6;" horiz-adv-x="655" 
d="M510 -200v829q-8 2 -40 4.5t-86 3.5v-837h-69v453q-77 4 -129 23.5t-83.5 49.5t-45.5 69t-14 81q0 58 23.5 100t66 68.5t101 39t128.5 12.5q73 0 119 -4t57 -6q40 -4 40 -40v-846h-68z" />
    <glyph glyph-name="periodcentered" unicode="&#xb7;" horiz-adv-x="278" 
d="M198 334q0 -24 -17 -41t-41 -17q-25 0 -42.5 17t-17.5 41q0 25 17.5 42.5t42.5 17.5q24 0 41 -17.5t17 -42.5z" />
    <glyph glyph-name="cedilla" unicode="&#xb8;" horiz-adv-x="500" 
d="M251 -42q15 -1 31 -6.5t29.5 -15t22.5 -24.5t9 -36q0 -42 -26.5 -64.5t-72.5 -22.5q-38 0 -61.5 9.5t-25.5 11.5l19 40q2 -2 20 -10t43 -8q21 0 35 8.5t14 31.5q0 12 -5.5 20t-13.5 13t-17 7t-15 2z" />
    <glyph glyph-name="ordmasculine" unicode="&#xba;" horiz-adv-x="446" 
d="M416 517q0 -39 -14.5 -73t-40.5 -59.5t-61 -40t-77 -14.5t-77 14.5t-61 40t-40.5 59.5t-14.5 73t14.5 73.5t40.5 59.5t61 39.5t77 14.5t77 -14.5t61 -39.5t40.5 -59.5t14.5 -73.5zM354 517q0 30 -9.5 55.5t-27 44t-41.5 29.5t-53 11t-53.5 -11t-41.5 -29.5t-26.5 -44
t-9.5 -55.5q0 -29 9.5 -54.5t27 -44t41.5 -29.5t53 -11t53 11t41.5 29.5t27 44t9.5 54.5z" />
    <glyph glyph-name="guillemotright" unicode="&#xbb;" horiz-adv-x="500" 
d="M450 283q5 -5 9.5 -13.5t4.5 -16.5q0 -6 -0.5 -9.5t-1.5 -5.5l-168 -196l-44 35l149 175l-149 165l44 35zM237 283q5 -5 9.5 -13.5t4.5 -16.5q0 -6 -0.5 -9.5t-1.5 -5.5l-168 -196l-44 35l149 175l-149 165l44 35z" />
    <glyph glyph-name="onequarter" unicode="&#xbc;" horiz-adv-x="939" 
d="M231 0h-64l402 710q5 10 14.5 18.5t23.5 8.5q13 0 21 -5t13 -10zM793 161q13 0 21.5 -5.5t8.5 -19.5q0 -7 -4.5 -14t-6.5 -9h-49v-110h-59v110h-144q-57 0 -79 15t-22 47q0 36 22.5 72t49.5 65q22 25 48 47t51.5 38t49 25t41.5 9q20 0 30 -5.5t12 -7.5v-257h30zM704 380
q-27 -12 -59 -34t-59 -51q-11 -11 -23 -25t-22 -28.5t-16 -29.5t-6 -28q0 -15 13.5 -19t33.5 -4h138v219zM144 718q13 8 24.5 13.5t26.5 5.5q13 0 21 -4.5t13 -9.5v-414h-59v364l-119 -76q-9 3 -18.5 10.5t-9.5 18.5q0 17 18 28z" />
    <glyph glyph-name="onehalf" unicode="&#xbd;" horiz-adv-x="939" 
d="M231 0h-64l402 710q5 10 14.5 18.5t23.5 8.5q13 0 21 -5t13 -10zM515 382q4 4 14 12t27 16t40.5 14.5t54.5 6.5q84 0 126 -36.5t42 -91.5q0 -24 -6 -43t-16 -35.5t-23 -30.5t-26 -26l-30.5 -24l-42 -32l-45 -33t-39.5 -27h232v-49h-324v49l36.5 24l48 32l49.5 34t41 31
q16 13 31 27.5t27 30.5t19.5 34t7.5 38q0 31 -25 55.5t-83 24.5q-28 0 -48.5 -8.5t-33.5 -19t-20 -20.5t-8 -13q-16 2 -27.5 9t-11.5 21q0 17 13 30zM144 718q13 8 24.5 13.5t26.5 5.5q13 0 21 -4.5t13 -9.5v-414h-59v364l-119 -76q-9 3 -18.5 10.5t-9.5 18.5q0 17 18 28z
" />
    <glyph glyph-name="threequarters" unicode="&#xbe;" horiz-adv-x="939" 
d="M291 0h-64l402 710q5 10 14.5 18.5t23.5 8.5q13 0 21 -5t13 -10zM853 161q13 0 21.5 -5.5t8.5 -19.5q0 -7 -4.5 -14t-6.5 -9h-49v-110h-59v110h-144q-57 0 -79 15t-22 47q0 36 22.5 72t49.5 65q22 25 48 47t51.5 38t49 25t41.5 9q20 0 30 -5.5t12 -7.5v-257h30zM764 380
q-27 -12 -59 -34t-59 -51q-11 -11 -23 -25t-22 -28.5t-16 -29.5t-6 -28q0 -15 13.5 -19t33.5 -4h138v219zM201 549q51 0 82 19t31 54q0 34 -29 50.5t-77 16.5q-30 0 -51 -6.5t-35 -15.5t-21.5 -18t-9.5 -13q-16 2 -26.5 9t-10.5 19q0 8 2.5 15t10.5 15q4 4 15 11.5
t28.5 14.5t41.5 12t56 5q46 0 77.5 -10t51 -26t28.5 -35.5t9 -38.5q0 -37 -21 -62.5t-49 -39.5q43 -15 60.5 -42.5t17.5 -59.5q0 -54 -45.5 -89.5t-126.5 -35.5q-29 0 -55.5 4.5t-48.5 11t-39 13.5t-27 12l23 43q20 -11 59 -23t84 -12q51 0 83 19.5t32 58.5q0 38 -34.5 55
t-88.5 17h-37q-4 2 -8 9.5t-4 16.5q0 14 9 20t23 6h20z" />
    <glyph glyph-name="questiondown" unicode="&#xbf;" horiz-adv-x="558" 
d="M306 25q43 0 73.5 12t50.5 28.5t31 33t14 25.5q15 -2 27 -11.5t12 -23.5q0 -12 -5 -22.5t-13 -21.5q-5 -6 -18 -18.5t-36.5 -25.5t-58 -22.5t-81.5 -9.5q-66 0 -110.5 17t-71.5 44.5t-38.5 61.5t-11.5 69q0 39 11.5 69.5t30 54.5t42.5 43t48 34t40 27.5t25 25.5t13 27.5
t4 34.5h67q0 -23 -3.5 -43t-13 -37.5t-26 -34t-42.5 -32.5q-68 -41 -96.5 -78.5t-28.5 -88.5q0 -28 9 -53t28.5 -44t51 -30t76.5 -11zM258 629q0 24 17 41t41 17q25 0 42.5 -17t17.5 -41q0 -25 -17.5 -42.5t-42.5 -17.5q-24 0 -41 17.5t-17 42.5z" />
    <glyph glyph-name="Agrave" unicode="&#xc0;" horiz-adv-x="712" 
d="M25 0l60.5 163l65.5 166l65.5 159.5l61.5 143.5q18 40 34 56t44 16q22 0 34.5 -9t19.5 -17q17 -31 42 -87.5l53.5 -124.5l58 -141l54.5 -138l43.5 -115t25.5 -72h-77q-5 12 -14 38l-20 57l-22.5 62t-20.5 53h-363l-46 -121.5l-32 -88.5h-67zM353 643l-36 -78l-39.5 -91.5
l-42 -100.5l-42.5 -104h318l-40 105l-44 107.5l-41.5 94.5t-32.5 67zM249 827q0 17 13 32.5t40 15.5q11 0 19.5 -3.5t20.5 -11.5l120 -79l-28 -43z" />
    <glyph glyph-name="Aacute" unicode="&#xc1;" horiz-adv-x="712" 
d="M25 0l60.5 163l65.5 166l65.5 159.5l61.5 143.5q18 40 34 56t44 16q22 0 34.5 -9t19.5 -17q17 -31 42 -87.5l53.5 -124.5l58 -141l54.5 -138l43.5 -115t25.5 -72h-77q-5 12 -14 38l-20 57l-22.5 62t-20.5 53h-363l-46 -121.5l-32 -88.5h-67zM353 643l-36 -78l-39.5 -91.5
l-42 -100.5l-42.5 -104h318l-40 105l-44 107.5l-41.5 94.5t-32.5 67zM277 738l-28 43l120 79q12 8 20.5 11.5t19.5 3.5q27 0 40 -15.5t13 -32.5z" />
    <glyph glyph-name="Acircumflex" unicode="&#xc2;" horiz-adv-x="712" 
d="M25 0l60.5 163l65.5 166l65.5 159.5l61.5 143.5q18 40 34 56t44 16q22 0 34.5 -9t19.5 -17q17 -31 42 -87.5l53.5 -124.5l58 -141l54.5 -138l43.5 -115t25.5 -72h-77q-5 12 -14 38l-20 57l-22.5 62t-20.5 53h-363l-46 -121.5l-32 -88.5h-67zM353 643l-36 -78l-39.5 -91.5
l-42 -100.5l-42.5 -104h318l-40 105l-44 107.5l-41.5 94.5t-32.5 67zM509 773l-27 -34l-126 63l-127 -63l-27 34l98 73l27.5 20t28.5 9t28.5 -9l27.5 -20z" />
    <glyph glyph-name="Atilde" unicode="&#xc3;" horiz-adv-x="712" 
d="M25 0l60.5 163l65.5 166l65.5 159.5l61.5 143.5q18 40 34 56t44 16q22 0 34.5 -9t19.5 -17q17 -31 42 -87.5l53.5 -124.5l58 -141l54.5 -138l43.5 -115t25.5 -72h-77q-5 12 -14 38l-20 57l-22.5 62t-20.5 53h-363l-46 -121.5l-32 -88.5h-67zM353 643l-36 -78l-39.5 -91.5
l-42 -100.5l-42.5 -104h318l-40 105l-44 107.5l-41.5 94.5t-32.5 67zM425 757q-21 0 -40 5t-36 11l-34 11.5t-30 5.5q-17 0 -24.5 -10t-12.5 -29l-54 8q3 16 9 33t17 30.5t27 22t39 8.5q21 0 40.5 -5t36.5 -11l33.5 -11t29.5 -5q17 0 24.5 9.5t12.5 28.5l55 -8
q-3 -17 -9.5 -34t-17.5 -30.5t-27.5 -21.5t-38.5 -8z" />
    <glyph glyph-name="Adieresis" unicode="&#xc4;" horiz-adv-x="712" 
d="M25 0l60.5 163l65.5 166l65.5 159.5l61.5 143.5q18 40 34 56t44 16q22 0 34.5 -9t19.5 -17q17 -31 42 -87.5l53.5 -124.5l58 -141l54.5 -138l43.5 -115t25.5 -72h-77q-5 12 -14 38l-20 57l-22.5 62t-20.5 53h-363l-46 -121.5l-32 -88.5h-67zM353 643l-36 -78l-39.5 -91.5
l-42 -100.5l-42.5 -104h318l-40 105l-44 107.5l-41.5 94.5t-32.5 67zM258 750q-21 0 -37.5 16t-16.5 35q0 20 16.5 36t37.5 16q22 0 38 -16t16 -36q0 -19 -16 -35t-38 -16zM454 750q-22 0 -38 16t-16 35q0 20 16 36t38 16t38 -16t16 -36q0 -19 -16 -35t-38 -16z" />
    <glyph glyph-name="Aring" unicode="&#xc5;" horiz-adv-x="712" 
d="M253 766q0 21 8 39t22 32t33 22t40 8t40 -8t33 -22t22 -32t8 -39q0 -28 -13.5 -50.5t-36.5 -36.5q17 -31 42.5 -87.5l54 -124.5l57.5 -141.5l54.5 -138.5l44 -115t25.5 -72h-77q-5 12 -14 38l-20 57l-22.5 62t-20.5 53h-363l-46 -121.5l-32 -88.5h-67l60.5 163l65.5 166
l65.5 159.5l61.5 143.5l13 27t13 20q-23 13 -37 36t-14 51zM353 643l-36 -78l-39.5 -91.5l-42 -100.5l-42.5 -104h318l-40 105l-44 107.5l-41.5 94.5t-32.5 67zM299 766q0 -25 16 -42t41 -17t41 17t16 42t-16 42t-41 17t-41 -17t-16 -42z" />
    <glyph glyph-name="AE" unicode="&#xc6;" horiz-adv-x="1049" 
d="M25 0l138 226.5l119.5 185l91 134t53.5 74.5q13 18 23.5 30.5t21.5 20.5t23 11.5t29 3.5h421q14 0 23.5 -7.5t9.5 -23.5q0 -11 -3.5 -19t-5.5 -11h-331v-239h293q14 0 23.5 -7.5t9.5 -23.5q0 -11 -3.5 -19t-5.5 -11h-317v-264h334v-61h-407v235h-324l-80.5 -127.5
l-63.5 -107.5h-72zM565 296v329h-58l-36.5 -50l-53.5 -77l-65 -96l-71 -106h284z" />
    <glyph glyph-name="Ccedilla" unicode="&#xc7;" horiz-adv-x="669" 
d="M599 653q15 -11 20 -20.5t5 -18.5q0 -14 -10.5 -26.5t-20.5 -17.5q-10 12 -28 25t-42 23.5t-54.5 17.5t-65.5 7q-58 0 -107.5 -21t-86 -60t-57.5 -95t-21 -126q0 -72 22 -127.5t60.5 -93t90 -57t110.5 -19.5q34 0 63 5.5t52 13t40.5 16t28.5 15.5l30 -54q-12 -8 -33 -18
t-49.5 -19t-62.5 -15t-73 -6q-72 0 -136 24t-112 70t-76.5 112.5t-28.5 151.5t28 152.5t75.5 114.5t111 72t134.5 25q37 0 68.5 -5.5t56.5 -13.5t42.5 -17t25.5 -15zM355 -41q15 -1 31.5 -6.5t31 -15.5t23.5 -25t9 -36q0 -42 -27 -65.5t-73 -23.5q-19 0 -35 3t-27.5 7
t-18.5 8t-8 5l20 43q2 -2 20.5 -10.5t43.5 -8.5q20 0 33 8t13 30q0 11 -5.5 18.5t-13.5 12t-17 6.5t-15 2z" />
    <glyph glyph-name="Egrave" unicode="&#xc8;" horiz-adv-x="598" 
d="M480 386q14 0 23.5 -7.5t9.5 -23.5q0 -11 -3.5 -19t-5.5 -11h-335v-264h352v-61h-421v646q0 18 11 29t32 11h351q14 0 23.5 -7.5t9.5 -23.5q0 -11 -3.5 -19t-5.5 -11h-349v-239h311zM207 827q0 17 13 32.5t40 15.5q11 0 19.5 -3.5t20.5 -11.5l120 -79l-28 -43z" />
    <glyph glyph-name="Eacute" unicode="&#xc9;" horiz-adv-x="598" 
d="M480 386q14 0 23.5 -7.5t9.5 -23.5q0 -11 -3.5 -19t-5.5 -11h-335v-264h352v-61h-421v646q0 18 11 29t32 11h351q14 0 23.5 -7.5t9.5 -23.5q0 -11 -3.5 -19t-5.5 -11h-349v-239h311zM256 738l-28 43l120 79q12 8 20.5 11.5t19.5 3.5q27 0 40 -15.5t13 -32.5z" />
    <glyph glyph-name="Ecircumflex" unicode="&#xca;" horiz-adv-x="598" 
d="M480 386q14 0 23.5 -7.5t9.5 -23.5q0 -11 -3.5 -19t-5.5 -11h-335v-264h352v-61h-421v646q0 18 11 29t32 11h351q14 0 23.5 -7.5t9.5 -23.5q0 -11 -3.5 -19t-5.5 -11h-349v-239h311zM473 773l-27 -34l-126 63l-127 -63l-27 34l98 73l27.5 20t28.5 9t28.5 -9l27.5 -20z
" />
    <glyph glyph-name="Edieresis" unicode="&#xcb;" horiz-adv-x="598" 
d="M480 386q14 0 23.5 -7.5t9.5 -23.5q0 -11 -3.5 -19t-5.5 -11h-335v-264h352v-61h-421v646q0 18 11 29t32 11h351q14 0 23.5 -7.5t9.5 -23.5q0 -11 -3.5 -19t-5.5 -11h-349v-239h311zM224 750q-21 0 -37.5 16t-16.5 35q0 20 16.5 36t37.5 16q22 0 38 -16t16 -36
q0 -19 -16 -35t-38 -16zM420 750q-22 0 -38 16t-16 35q0 20 16 36t38 16t38 -16t16 -36q0 -19 -16 -35t-38 -16z" />
    <glyph glyph-name="Igrave" unicode="&#xcc;" horiz-adv-x="269" 
d="M100 0v650q0 16 8.5 26t28.5 10q10 0 18.5 -2.5t13.5 -5.5v-678h-69zM19 827q0 17 13 32.5t40 15.5q11 0 19.5 -3.5t20.5 -11.5l120 -79l-28 -43z" />
    <glyph glyph-name="Iacute" unicode="&#xcd;" horiz-adv-x="269" 
d="M100 0v650q0 16 8.5 26t28.5 10q10 0 18.5 -2.5t13.5 -5.5v-678h-69zM78 738l-28 43l120 79q12 8 20.5 11.5t19.5 3.5q27 0 40 -15.5t13 -32.5z" />
    <glyph glyph-name="Icircumflex" unicode="&#xce;" horiz-adv-x="269" 
d="M100 0v650q0 16 8.5 26t28.5 10q10 0 18.5 -2.5t13.5 -5.5v-678h-69zM291 773l-27 -34l-126 63l-127 -63l-27 34l98 73l27.5 20t28.5 9t28.5 -9l27.5 -20z" />
    <glyph glyph-name="Idieresis" unicode="&#xcf;" horiz-adv-x="269" 
d="M100 0v650q0 16 8.5 26t28.5 10q10 0 18.5 -2.5t13.5 -5.5v-678h-69zM40 750q-21 0 -37.5 16t-16.5 35q0 20 16.5 36t37.5 16q22 0 38 -16t16 -36q0 -19 -16 -35t-38 -16zM236 750q-22 0 -38 16t-16 35q0 20 16 36t38 16t38 -16t16 -36q0 -19 -16 -35t-38 -16z" />
    <glyph glyph-name="Eth" unicode="&#xd0;" horiz-adv-x="776" 
d="M115 384v262q0 18 11 29t34 11h183q85 0 152 -24.5t114 -69t72 -107.5t25 -141t-25 -141.5t-72 -108.5t-114 -69.5t-152 -24.5h-228v323h-39q-20 0 -28 9t-8 23q0 9 2 16.5t4 12.5h69zM184 384h169q20 0 27.5 -9t7.5 -23q0 -20 -6 -29h-198v-264h153q71 0 126 21
t92.5 58.5t57 90.5t19.5 116q0 64 -19.5 116t-57 89t-92.5 57t-126 20h-153v-243z" />
    <glyph glyph-name="Ntilde" unicode="&#xd1;" horiz-adv-x="753" 
d="M570 0l-59.5 93l-70.5 110.5l-75.5 117.5l-74.5 114.5l-67 100t-54 75.5v-611h-69v646q0 17 14 28.5t37 11.5q20 0 35 -7.5t23 -13.5l42 -58l58 -84.5l68 -102l72 -111l71 -111.5l64 -102v554q0 16 8.5 26t27.5 10q11 0 19.5 -3t13.5 -6v-677h-83zM471 757q-21 0 -40 5
t-36 11l-34 11.5t-30 5.5q-17 0 -24.5 -10t-12.5 -29l-54 8q3 16 9 33t17 30.5t27 22t39 8.5q21 0 40.5 -5t36.5 -11l33.5 -11t29.5 -5q17 0 24.5 9.5t12.5 28.5l55 -8q-3 -17 -9.5 -34t-17.5 -30.5t-27.5 -21.5t-38.5 -8z" />
    <glyph glyph-name="Ograve" unicode="&#xd2;" horiz-adv-x="832" 
d="M762 344q0 -77 -26 -143t-72 -114.5t-109.5 -76.5t-138.5 -28t-138.5 28t-109.5 76.5t-72 114.5t-26 143q0 76 26 142t72 114.5t109.5 76t138.5 27.5t138.5 -27.5t109.5 -76t72 -114.5t26 -142zM688 344q0 64 -20 119t-56 95t-86 62.5t-110 22.5t-110 -22.5t-86 -62.5
t-56 -95t-20 -119q0 -65 20 -120t56 -95t86 -63t110 -23t110 23t86 63t56 95t20 120zM313 827q0 17 13 32.5t40 15.5q11 0 19.5 -3.5t20.5 -11.5l120 -79l-28 -43z" />
    <glyph glyph-name="Oacute" unicode="&#xd3;" horiz-adv-x="832" 
d="M762 344q0 -77 -26 -143t-72 -114.5t-109.5 -76.5t-138.5 -28t-138.5 28t-109.5 76.5t-72 114.5t-26 143q0 76 26 142t72 114.5t109.5 76t138.5 27.5t138.5 -27.5t109.5 -76t72 -114.5t26 -142zM688 344q0 64 -20 119t-56 95t-86 62.5t-110 22.5t-110 -22.5t-86 -62.5
t-56 -95t-20 -119q0 -65 20 -120t56 -95t86 -63t110 -23t110 23t86 63t56 95t20 120zM343 738l-28 43l120 79q12 8 20.5 11.5t19.5 3.5q27 0 40 -15.5t13 -32.5z" />
    <glyph glyph-name="Ocircumflex" unicode="&#xd4;" horiz-adv-x="832" 
d="M762 344q0 -77 -26 -143t-72 -114.5t-109.5 -76.5t-138.5 -28t-138.5 28t-109.5 76.5t-72 114.5t-26 143q0 76 26 142t72 114.5t109.5 76t138.5 27.5t138.5 -27.5t109.5 -76t72 -114.5t26 -142zM688 344q0 64 -20 119t-56 95t-86 62.5t-110 22.5t-110 -22.5t-86 -62.5
t-56 -95t-20 -119q0 -65 20 -120t56 -95t86 -63t110 -23t110 23t86 63t56 95t20 120zM573 773l-27 -34l-126 63l-127 -63l-27 34l98 73l27.5 20t28.5 9t28.5 -9l27.5 -20z" />
    <glyph glyph-name="Otilde" unicode="&#xd5;" horiz-adv-x="832" 
d="M762 344q0 -77 -26 -143t-72 -114.5t-109.5 -76.5t-138.5 -28t-138.5 28t-109.5 76.5t-72 114.5t-26 143q0 76 26 142t72 114.5t109.5 76t138.5 27.5t138.5 -27.5t109.5 -76t72 -114.5t26 -142zM688 344q0 64 -20 119t-56 95t-86 62.5t-110 22.5t-110 -22.5t-86 -62.5
t-56 -95t-20 -119q0 -65 20 -120t56 -95t86 -63t110 -23t110 23t86 63t56 95t20 120zM497 757q-21 0 -40 5t-36 11l-34 11.5t-30 5.5q-17 0 -24.5 -10t-12.5 -29l-54 8q3 16 9 33t17 30.5t27 22t39 8.5q21 0 40.5 -5t36.5 -11l33.5 -11t29.5 -5q17 0 24.5 9.5t12.5 28.5
l55 -8q-3 -17 -9.5 -34t-17.5 -30.5t-27.5 -21.5t-38.5 -8z" />
    <glyph glyph-name="Odieresis" unicode="&#xd6;" horiz-adv-x="832" 
d="M762 344q0 -77 -26 -143t-72 -114.5t-109.5 -76.5t-138.5 -28t-138.5 28t-109.5 76.5t-72 114.5t-26 143q0 76 26 142t72 114.5t109.5 76t138.5 27.5t138.5 -27.5t109.5 -76t72 -114.5t26 -142zM688 344q0 64 -20 119t-56 95t-86 62.5t-110 22.5t-110 -22.5t-86 -62.5
t-56 -95t-20 -119q0 -65 20 -120t56 -95t86 -63t110 -23t110 23t86 63t56 95t20 120zM328 750q-21 0 -37.5 16t-16.5 35q0 20 16.5 36t37.5 16q22 0 38 -16t16 -36q0 -19 -16 -35t-38 -16zM524 750q-22 0 -38 16t-16 35q0 20 16 36t38 16t38 -16t16 -36q0 -19 -16 -35
t-38 -16z" />
    <glyph glyph-name="multiply" unicode="&#xd7;" 
d="M285 339l-140 139q-13 13 -13 24t12 23q6 5 12.5 9t11.5 6l158 -160l139 140q13 13 25 13q11 0 22 -11q5 -6 9 -12.5t6 -11.5l-161 -159l141 -138q12 -12 12 -24t-10 -22q-7 -6 -13.5 -10t-11.5 -6l-158 160l-138 -140q-11 -12 -24 -12q-12 0 -22 10q-6 6 -10 13t-6 12z
" />
    <glyph glyph-name="Oslash" unicode="&#xd8;" horiz-adv-x="832" 
d="M155 -78l64 120q-69 48 -109 126.5t-40 175.5q0 76 26 142t72 114.5t109.5 76t138.5 27.5q80 0 145 -31l31 58q8 16 16.5 25t28.5 9q11 0 23 -4.5t15 -7.5l-60 -111q69 -48 108 -124.5t39 -173.5q0 -77 -26 -143t-72 -114.5t-109.5 -76.5t-138.5 -28q-76 0 -143 29
l-48 -89h-70zM144 344q0 -78 27.5 -140.5t78.5 -104.5l281 519q-50 25 -115 25q-60 0 -110 -22.5t-86 -62.5t-56 -95t-20 -119zM688 344q0 76 -27.5 137.5t-76.5 103.5l-281 -518q51 -24 113 -24q60 0 110 23t86 63t56 95t20 120z" />
    <glyph glyph-name="Ugrave" unicode="&#xd9;" horiz-adv-x="774" 
d="M612 650q0 16 8.5 26t28.5 10q10 0 18.5 -2.5t13.5 -5.5v-371q0 -155 -71 -240t-224 -85t-223 85t-70 240v343q0 16 8.5 26t28.5 10q10 0 18.5 -2.5t13.5 -5.5v-366q0 -68 12 -118t38.5 -84t69.5 -50.5t105 -16.5q123 0 174 67t51 202v338zM279 827q0 17 13 32.5t40 15.5
q11 0 19.5 -3.5t20.5 -11.5l120 -79l-28 -43z" />
    <glyph glyph-name="Uacute" unicode="&#xda;" horiz-adv-x="774" 
d="M612 650q0 16 8.5 26t28.5 10q10 0 18.5 -2.5t13.5 -5.5v-371q0 -155 -71 -240t-224 -85t-223 85t-70 240v343q0 16 8.5 26t28.5 10q10 0 18.5 -2.5t13.5 -5.5v-366q0 -68 12 -118t38.5 -84t69.5 -50.5t105 -16.5q123 0 174 67t51 202v338zM343 738l-28 43l120 79
q12 8 20.5 11.5t19.5 3.5q27 0 40 -15.5t13 -32.5z" />
    <glyph glyph-name="Ucircumflex" unicode="&#xdb;" horiz-adv-x="774" 
d="M612 650q0 16 8.5 26t28.5 10q10 0 18.5 -2.5t13.5 -5.5v-371q0 -155 -71 -240t-224 -85t-223 85t-70 240v343q0 16 8.5 26t28.5 10q10 0 18.5 -2.5t13.5 -5.5v-366q0 -68 12 -118t38.5 -84t69.5 -50.5t105 -16.5q123 0 174 67t51 202v338zM555 773l-27 -34l-126 63
l-127 -63l-27 34l98 73l27.5 20t28.5 9t28.5 -9l27.5 -20z" />
    <glyph glyph-name="Udieresis" unicode="&#xdc;" horiz-adv-x="774" 
d="M612 650q0 16 8.5 26t28.5 10q10 0 18.5 -2.5t13.5 -5.5v-371q0 -155 -71 -240t-224 -85t-223 85t-70 240v343q0 16 8.5 26t28.5 10q10 0 18.5 -2.5t13.5 -5.5v-366q0 -68 12 -118t38.5 -84t69.5 -50.5t105 -16.5q123 0 174 67t51 202v338zM303 750q-21 0 -37.5 16
t-16.5 35q0 20 16.5 36t37.5 16q22 0 38 -16t16 -36q0 -19 -16 -35t-38 -16zM499 750q-22 0 -38 16t-16 35q0 20 16 36t38 16t38 -16t16 -36q0 -19 -16 -35t-38 -16z" />
    <glyph glyph-name="Yacute" unicode="&#xdd;" horiz-adv-x="656" 
d="M624 672l-28.5 -48.5l-40 -65l-47.5 -75l-51.5 -78.5l-52 -75.5t-48.5 -65.5v-264h-70v266q-26 32 -59.5 77.5l-67 92.5l-62.5 89l-45 66q-16 23 -24.5 38t-8.5 26t7 21t26 10q11 0 17 -2.5t10 -4.5l43 -65l62.5 -93.5l71 -102.5t69.5 -92q36 48 70.5 101.5l63.5 101
l50.5 83.5t32.5 50q9 11 18.5 17.5t25.5 6.5q17 0 26.5 -6t11.5 -8zM299 754l-29 38l103 84q12 10 20.5 13.5t19.5 3.5q22 0 32.5 -15t11.5 -28z" />
    <glyph glyph-name="Thorn" unicode="&#xde;" horiz-adv-x="607" 
d="M323 556q57 0 100 -15.5t71.5 -43.5t43 -66t14.5 -84q0 -43 -17 -82t-49.5 -68t-80 -46.5t-108.5 -17.5q-60 0 -89.5 5t-39.5 7v-145h-68v650q0 16 8.5 26t28.5 10q10 0 18 -2.5t13 -5.5v-122h155zM275 192q107 0 155 41.5t48 113.5q0 71 -40 110.5t-138 39.5h-132v-292
q11 -3 39.5 -8t67.5 -5z" />
    <glyph glyph-name="germandbls" unicode="&#xdf;" horiz-adv-x="673" 
d="M287 436h52q37 0 63 12t42 30.5t23 41.5t7 45q0 20 -9 41t-27.5 38.5t-48 28.5t-69.5 11q-48 0 -80 -13.5t-51 -37t-27 -54.5t-8 -66v-513h-66v522q0 108 61.5 161.5t170.5 53.5q61 0 103.5 -16.5t68.5 -42t38 -55.5t12 -58q0 -23 -7 -45.5t-19 -42t-28 -34.5t-34 -23
q72 -20 115.5 -72t43.5 -137q0 -49 -18 -90t-50 -71t-76 -47t-96 -17q-26 0 -50 3.5t-43 8.5t-32.5 10t-18.5 8l22 52q3 -3 14.5 -7t29 -7.5t38 -6.5t40.5 -3q38 0 69 12.5t53.5 34.5t34.5 52.5t12 67.5q0 43 -14 74.5t-38 52.5t-57 31t-70 10h-76v57z" />
    <glyph glyph-name="agrave" unicode="&#xe0;" horiz-adv-x="586" 
d="M433 247q-5 1 -20 2.5t-35 3t-43.5 2.5t-44.5 1q-75 0 -119 -24t-44 -86q0 -54 36 -81t129 -27q64 0 97 5t44 9v195zM260 453q-57 0 -88.5 -14.5t-44.5 -26.5q-7 5 -12.5 14.5t-5.5 20.5t5.5 19t13.5 14q10 8 40 18t88 10q120 0 181 -49t61 -158v-299q-29 -5 -78 -10.5
t-130 -5.5q-77 0 -122.5 15t-69.5 38t-31 51.5t-7 55.5q0 34 10.5 64t36 52.5t69 35t108.5 12.5q22 0 45 -1t43 -2t36 -2t25 -1v2q0 72 -40 109.5t-133 37.5zM190 658q1 13 11.5 28t32.5 15q11 0 19.5 -3.5t20.5 -13.5l103 -84l-29 -38z" />
    <glyph glyph-name="aacute" unicode="&#xe1;" horiz-adv-x="586" 
d="M433 247q-5 1 -20 2.5t-35 3t-43.5 2.5t-44.5 1q-75 0 -119 -24t-44 -86q0 -54 36 -81t129 -27q64 0 97 5t44 9v195zM260 453q-57 0 -88.5 -14.5t-44.5 -26.5q-7 5 -12.5 14.5t-5.5 20.5t5.5 19t13.5 14q10 8 40 18t88 10q120 0 181 -49t61 -158v-299q-29 -5 -78 -10.5
t-130 -5.5q-77 0 -122.5 15t-69.5 38t-31 51.5t-7 55.5q0 34 10.5 64t36 52.5t69 35t108.5 12.5q22 0 45 -1t43 -2t36 -2t25 -1v2q0 72 -40 109.5t-133 37.5zM270 562l-29 38l103 84q12 10 20.5 13.5t19.5 3.5q22 0 32.5 -15t11.5 -28z" />
    <glyph glyph-name="acircumflex" unicode="&#xe2;" horiz-adv-x="586" 
d="M433 247q-5 1 -20 2.5t-35 3t-43.5 2.5t-44.5 1q-75 0 -119 -24t-44 -86q0 -54 36 -81t129 -27q64 0 97 5t44 9v195zM260 453q-57 0 -88.5 -14.5t-44.5 -26.5q-7 5 -12.5 14.5t-5.5 20.5t5.5 19t13.5 14q10 8 40 18t88 10q120 0 181 -49t61 -158v-299q-29 -5 -78 -10.5
t-130 -5.5q-77 0 -122.5 15t-69.5 38t-31 51.5t-7 55.5q0 34 10.5 64t36 52.5t69 35t108.5 12.5q22 0 45 -1t43 -2t36 -2t25 -1v2q0 72 -40 109.5t-133 37.5zM303 704q14 0 24.5 -8.5l23.5 -19.5l90 -82l-32 -32l-106 74l-106 -74l-32 32l89 82q13 12 24 20t25 8z" />
    <glyph glyph-name="atilde" unicode="&#xe3;" horiz-adv-x="586" 
d="M433 247q-5 1 -20 2.5t-35 3t-43.5 2.5t-44.5 1q-75 0 -119 -24t-44 -86q0 -54 36 -81t129 -27q64 0 97 5t44 9v195zM260 453q-57 0 -88.5 -14.5t-44.5 -26.5q-7 5 -12.5 14.5t-5.5 20.5t5.5 19t13.5 14q10 8 40 18t88 10q120 0 181 -49t61 -158v-299q-29 -5 -78 -10.5
t-130 -5.5q-77 0 -122.5 15t-69.5 38t-31 51.5t-7 55.5q0 34 10.5 64t36 52.5t69 35t108.5 12.5q22 0 45 -1t43 -2t36 -2t25 -1v2q0 72 -40 109.5t-133 37.5zM278 605l-23.5 7.5t-23.5 3.5q-19 0 -26.5 -10t-12.5 -29l-51 8q3 16 9.5 32.5t17 29.5t26.5 21t38 8
q20 0 37.5 -4t31.5 -9l21 -7q10 -3 23.5 -7.5t27.5 -4.5q18 0 26 9.5t13 28.5l51 -8q-3 -17 -9.5 -33t-17.5 -29t-27 -21t-37 -8q-20 0 -38 4.5t-32 9.5z" />
    <glyph glyph-name="adieresis" unicode="&#xe4;" horiz-adv-x="586" 
d="M433 247q-5 1 -20 2.5t-35 3t-43.5 2.5t-44.5 1q-75 0 -119 -24t-44 -86q0 -54 36 -81t129 -27q64 0 97 5t44 9v195zM260 453q-57 0 -88.5 -14.5t-44.5 -26.5q-7 5 -12.5 14.5t-5.5 20.5t5.5 19t13.5 14q10 8 40 18t88 10q120 0 181 -49t61 -158v-299q-29 -5 -78 -10.5
t-130 -5.5q-77 0 -122.5 15t-69.5 38t-31 51.5t-7 55.5q0 34 10.5 64t36 52.5t69 35t108.5 12.5q22 0 45 -1t43 -2t36 -2t25 -1v2q0 72 -40 109.5t-133 37.5zM214 576q-20 0 -36 15.5t-16 34.5t16 34.5t36 15.5q21 0 36.5 -15.5t15.5 -34.5t-15.5 -34.5t-36.5 -15.5z
M391 576q-21 0 -36.5 15.5t-15.5 34.5t15.5 34.5t36.5 15.5t36.5 -15.5t15.5 -34.5t-15.5 -34.5t-36.5 -15.5z" />
    <glyph glyph-name="aring" unicode="&#xe5;" horiz-adv-x="586" 
d="M433 247q-5 1 -20 2.5t-35 3t-43.5 2.5t-44.5 1q-75 0 -119 -24t-44 -86q0 -54 36 -81t129 -27q64 0 97 5t44 9v195zM260 453q-57 0 -88.5 -14.5t-44.5 -26.5q-7 5 -12.5 14.5t-5.5 20.5t5.5 19t13.5 14q10 8 40 18t88 10q120 0 181 -49t61 -158v-299q-29 -5 -78 -10.5
t-130 -5.5q-77 0 -122.5 15t-69.5 38t-31 51.5t-7 55.5q0 34 10.5 64t36 52.5t69 35t108.5 12.5q22 0 45 -1t43 -2t36 -2t25 -1v2q0 72 -40 109.5t-133 37.5zM200 653q0 21 8 39t22 32t33 22t40 8t40 -8t33 -22t22 -32t8 -39t-8 -39t-22 -32t-33 -22t-40 -8t-40 8t-33 22
t-22 32t-8 39zM246 653q0 -25 16 -42t41 -17t41 17t16 42t-16 42t-41 17t-41 -17t-16 -42z" />
    <glyph glyph-name="ae" unicode="&#xe6;" horiz-adv-x="948" 
d="M459 100q-9 14 -21.5 46.5t-12.5 89.5v12q-9 1 -24.5 2.5t-34 2.5l-38.5 2t-38 1q-75 0 -119 -24t-44 -86q0 -54 36 -81t117 -27q42 0 74 8.5t54.5 19.5t35 21t15.5 13zM494 54q-2 -2 -16 -13t-40 -23t-65.5 -22t-91.5 -10q-73 0 -116.5 15t-67 38t-30.5 51.5t-7 55.5
q0 34 10.5 64t36 52.5t69 35t108.5 12.5q45 0 87 -2t62 -4q0 75 -41 112t-132 37q-57 0 -88.5 -14.5t-44.5 -26.5q-7 5 -12.5 14.5t-5.5 20.5t5.5 19t13.5 14q10 8 40 18t88 10q85 0 142 -24.5t80 -81.5q32 51 85 78.5t117 27.5q102 0 155 -49t53 -137q0 -54 -28.5 -83.5
t-92.5 -29.5h-269q10 -85 57.5 -124.5t131.5 -39.5q49 0 88 13.5t57 24.5l27 -49q-8 -5 -24.5 -13.5t-40 -16t-53 -13t-63.5 -5.5q-42 0 -74 8.5t-54 20t-36 23zM740 262q40 0 61.5 13t21.5 55q0 24 -7.5 46.5t-24 39.5t-44 27.5t-66.5 10.5q-44 0 -78 -17t-57 -44
t-35.5 -61.5t-13.5 -69.5h243z" />
    <glyph glyph-name="ccedilla" unicode="&#xe7;" horiz-adv-x="507" 
d="M326 44q45 0 76.5 12t45.5 20l27 -49q-17 -11 -57 -26t-101 -15q-56 0 -102.5 17t-80.5 50t-53 80.5t-19 109.5q0 63 20 112t55.5 83t82.5 52t101 18q33 0 57.5 -4.5t41.5 -10t26.5 -11.5t13.5 -9q7 -5 12 -12.5t5 -18.5q0 -8 -5.5 -19t-16.5 -19q-7 6 -18.5 14
t-28.5 15.5t-39 12.5t-49 5q-38 0 -72 -12t-59.5 -37.5t-40.5 -64t-15 -90.5q0 -54 15 -92.5t41 -63t61 -36t76 -11.5zM274 -42q15 -1 31 -6.5t29.5 -15t22.5 -24.5t9 -36q0 -42 -26.5 -64.5t-72.5 -22.5q-38 0 -61.5 9.5t-25.5 11.5l19 40q2 -2 20 -10t43 -8q21 0 35 8.5
t14 31.5q0 12 -5.5 20t-13.5 13t-17 7t-15 2z" />
    <glyph glyph-name="egrave" unicode="&#xe8;" horiz-adv-x="585" 
d="M135 209q10 -85 57.5 -124.5t131.5 -39.5q49 0 88 13.5t57 24.5l27 -49q-8 -5 -24.5 -13.5t-40 -16t-53 -13t-63.5 -5.5q-53 0 -99 16t-80 47.5t-54 78t-20 108.5q0 60 19.5 110t53.5 86t81 56t101 20q102 0 155 -49t53 -137q0 -54 -28.5 -83.5t-92.5 -29.5h-269z
M377 262q40 0 61.5 13t21.5 55q0 24 -7.5 46.5t-24 39.5t-44 27.5t-66.5 10.5q-44 0 -78 -17t-57 -44t-35.5 -61.5t-13.5 -69.5h243zM209 658q1 13 11.5 28t32.5 15q11 0 19.5 -3.5t20.5 -13.5l103 -84l-29 -38z" />
    <glyph glyph-name="eacute" unicode="&#xe9;" horiz-adv-x="585" 
d="M135 209q10 -85 57.5 -124.5t131.5 -39.5q49 0 88 13.5t57 24.5l27 -49q-8 -5 -24.5 -13.5t-40 -16t-53 -13t-63.5 -5.5q-53 0 -99 16t-80 47.5t-54 78t-20 108.5q0 60 19.5 110t53.5 86t81 56t101 20q102 0 155 -49t53 -137q0 -54 -28.5 -83.5t-92.5 -29.5h-269z
M377 262q40 0 61.5 13t21.5 55q0 24 -7.5 46.5t-24 39.5t-44 27.5t-66.5 10.5q-44 0 -78 -17t-57 -44t-35.5 -61.5t-13.5 -69.5h243zM286 562l-29 38l103 84q12 10 20.5 13.5t19.5 3.5q22 0 32.5 -15t11.5 -28z" />
    <glyph glyph-name="ecircumflex" unicode="&#xea;" horiz-adv-x="585" 
d="M135 209q10 -85 57.5 -124.5t131.5 -39.5q49 0 88 13.5t57 24.5l27 -49q-8 -5 -24.5 -13.5t-40 -16t-53 -13t-63.5 -5.5q-53 0 -99 16t-80 47.5t-54 78t-20 108.5q0 60 19.5 110t53.5 86t81 56t101 20q102 0 155 -49t53 -137q0 -54 -28.5 -83.5t-92.5 -29.5h-269z
M377 262q40 0 61.5 13t21.5 55q0 24 -7.5 46.5t-24 39.5t-44 27.5t-66.5 10.5q-44 0 -78 -17t-57 -44t-35.5 -61.5t-13.5 -69.5h243zM322 704q14 0 24.5 -8.5l23.5 -19.5l90 -82l-32 -32l-106 74l-106 -74l-32 32l89 82q13 12 24 20t25 8z" />
    <glyph glyph-name="edieresis" unicode="&#xeb;" horiz-adv-x="585" 
d="M135 209q10 -85 57.5 -124.5t131.5 -39.5q49 0 88 13.5t57 24.5l27 -49q-8 -5 -24.5 -13.5t-40 -16t-53 -13t-63.5 -5.5q-53 0 -99 16t-80 47.5t-54 78t-20 108.5q0 60 19.5 110t53.5 86t81 56t101 20q102 0 155 -49t53 -137q0 -54 -28.5 -83.5t-92.5 -29.5h-269z
M377 262q40 0 61.5 13t21.5 55q0 24 -7.5 46.5t-24 39.5t-44 27.5t-66.5 10.5q-44 0 -78 -17t-57 -44t-35.5 -61.5t-13.5 -69.5h243zM234 576q-20 0 -36 15.5t-16 34.5t16 34.5t36 15.5q21 0 36.5 -15.5t15.5 -34.5t-15.5 -34.5t-36.5 -15.5zM411 576q-21 0 -36.5 15.5
t-15.5 34.5t15.5 34.5t36.5 15.5t36.5 -15.5t15.5 -34.5t-15.5 -34.5t-36.5 -15.5z" />
    <glyph glyph-name="igrave" unicode="&#xec;" horiz-adv-x="262" 
d="M98 460q0 15 8.5 24.5t27.5 9.5q9 0 17.5 -2.5t12.5 -4.5v-487h-66v460zM27 658q1 13 11.5 28t32.5 15q11 0 19.5 -3.5t20.5 -13.5l103 -84l-29 -38z" />
    <glyph glyph-name="iacute" unicode="&#xed;" horiz-adv-x="262" 
d="M98 460q0 15 8.5 24.5t27.5 9.5q9 0 17.5 -2.5t12.5 -4.5v-487h-66v460zM86 562l-29 38l103 84q12 10 20.5 13.5t19.5 3.5q22 0 32.5 -15t11.5 -28z" />
    <glyph glyph-name="icircumflex" unicode="&#xee;" horiz-adv-x="262" 
d="M98 460q0 15 8.5 24.5t27.5 9.5q9 0 17.5 -2.5t12.5 -4.5v-487h-66v460zM134 704q14 0 24.5 -8.5l23.5 -19.5l90 -82l-32 -32l-106 74l-106 -74l-32 32l89 82q13 12 24 20t25 8z" />
    <glyph glyph-name="idieresis" unicode="&#xef;" horiz-adv-x="262" 
d="M98 460q0 15 8.5 24.5t27.5 9.5q9 0 17.5 -2.5t12.5 -4.5v-487h-66v460zM46 576q-20 0 -36 15.5t-16 34.5t16 34.5t36 15.5q21 0 36.5 -15.5t15.5 -34.5t-15.5 -34.5t-36.5 -15.5zM223 576q-21 0 -36.5 15.5t-15.5 34.5t15.5 34.5t36.5 15.5t36.5 -15.5t15.5 -34.5
t-15.5 -34.5t-36.5 -15.5z" />
    <glyph glyph-name="eth" unicode="&#xf0;" horiz-adv-x="636" 
d="M487 695l-85 -50q78 -63 125 -156t47 -220q0 -141 -67.5 -212t-188.5 -71q-60 0 -107.5 19t-80.5 52t-50.5 78.5t-17.5 98.5q0 54 17.5 99.5t50 78.5t78 51.5t102.5 18.5t101.5 -21.5t70.5 -53.5q-15 60 -50.5 112t-86.5 92l-142 -83l-24 42l122 72q-45 28 -96 45l21 50
q35 -11 68.5 -26t64.5 -35l104 61zM318 426q-44 0 -78.5 -14t-58 -39.5t-36 -60.5t-12.5 -78q0 -42 12.5 -77t36.5 -60.5t58 -39.5t78 -14t78.5 14t58 39.5t36 60.5t12.5 77q0 43 -12.5 78t-36 60.5t-58 39.5t-78.5 14z" />
    <glyph glyph-name="ntilde" unicode="&#xf1;" horiz-adv-x="623" 
d="M469 0v276q0 84 -41.5 129.5t-134.5 45.5q-30 0 -54.5 -3.5t-42.5 -8t-28.5 -9t-13.5 -5.5v-425h-66v469q3 1 19.5 7.5t44.5 13.5t66 12.5t84 5.5q55 0 98 -15t73 -42t46 -64t16 -81v-306h-66zM287 605l-23.5 7.5t-23.5 3.5q-19 0 -26.5 -10t-12.5 -29l-51 8
q3 16 9.5 32.5t17 29.5t26.5 21t38 8q20 0 37.5 -4t31.5 -9l21 -7q10 -3 23.5 -7.5t27.5 -4.5q18 0 26 9.5t13 28.5l51 -8q-3 -17 -9.5 -33t-17.5 -29t-27 -21t-37 -8q-20 0 -38 4.5t-32 9.5z" />
    <glyph glyph-name="ograve" unicode="&#xf2;" horiz-adv-x="636" 
d="M574 247q0 -57 -19.5 -105t-53.5 -82.5t-81 -54t-102 -19.5t-102 19.5t-81 54t-53.5 82.5t-19.5 105t19.5 105t53.5 82.5t81 54t102 19.5t102 -19.5t81 -54t53.5 -82.5t19.5 -105zM133 247q0 -46 13 -83.5t37.5 -64.5t58.5 -42t76 -15t76 15t58.5 42t37.5 64.5t13 83.5
t-13 83.5t-37.5 64.5t-58.5 42t-76 15t-76 -15t-58.5 -42t-37.5 -64.5t-13 -83.5zM205 658q1 13 11.5 28t32.5 15q11 0 19.5 -3.5t20.5 -13.5l103 -84l-29 -38z" />
    <glyph glyph-name="oacute" unicode="&#xf3;" horiz-adv-x="636" 
d="M574 247q0 -57 -19.5 -105t-53.5 -82.5t-81 -54t-102 -19.5t-102 19.5t-81 54t-53.5 82.5t-19.5 105t19.5 105t53.5 82.5t81 54t102 19.5t102 -19.5t81 -54t53.5 -82.5t19.5 -105zM133 247q0 -46 13 -83.5t37.5 -64.5t58.5 -42t76 -15t76 15t58.5 42t37.5 64.5t13 83.5
t-13 83.5t-37.5 64.5t-58.5 42t-76 15t-76 -15t-58.5 -42t-37.5 -64.5t-13 -83.5zM295 562l-29 38l103 84q12 10 20.5 13.5t19.5 3.5q22 0 32.5 -15t11.5 -28z" />
    <glyph glyph-name="ocircumflex" unicode="&#xf4;" horiz-adv-x="636" 
d="M574 247q0 -57 -19.5 -105t-53.5 -82.5t-81 -54t-102 -19.5t-102 19.5t-81 54t-53.5 82.5t-19.5 105t19.5 105t53.5 82.5t81 54t102 19.5t102 -19.5t81 -54t53.5 -82.5t19.5 -105zM133 247q0 -46 13 -83.5t37.5 -64.5t58.5 -42t76 -15t76 15t58.5 42t37.5 64.5t13 83.5
t-13 83.5t-37.5 64.5t-58.5 42t-76 15t-76 -15t-58.5 -42t-37.5 -64.5t-13 -83.5zM318 704q14 0 24.5 -8.5l23.5 -19.5l90 -82l-32 -32l-106 74l-106 -74l-32 32l89 82q13 12 24 20t25 8z" />
    <glyph glyph-name="otilde" unicode="&#xf5;" horiz-adv-x="636" 
d="M574 247q0 -57 -19.5 -105t-53.5 -82.5t-81 -54t-102 -19.5t-102 19.5t-81 54t-53.5 82.5t-19.5 105t19.5 105t53.5 82.5t81 54t102 19.5t102 -19.5t81 -54t53.5 -82.5t19.5 -105zM133 247q0 -46 13 -83.5t37.5 -64.5t58.5 -42t76 -15t76 15t58.5 42t37.5 64.5t13 83.5
t-13 83.5t-37.5 64.5t-58.5 42t-76 15t-76 -15t-58.5 -42t-37.5 -64.5t-13 -83.5zM293 605l-23.5 7.5t-23.5 3.5q-19 0 -26.5 -10t-12.5 -29l-51 8q3 16 9.5 32.5t17 29.5t26.5 21t38 8q20 0 37.5 -4t31.5 -9l21 -7q10 -3 23.5 -7.5t27.5 -4.5q18 0 26 9.5t13 28.5l51 -8
q-3 -17 -9.5 -33t-17.5 -29t-27 -21t-37 -8q-20 0 -38 4.5t-32 9.5z" />
    <glyph glyph-name="odieresis" unicode="&#xf6;" horiz-adv-x="636" 
d="M574 247q0 -57 -19.5 -105t-53.5 -82.5t-81 -54t-102 -19.5t-102 19.5t-81 54t-53.5 82.5t-19.5 105t19.5 105t53.5 82.5t81 54t102 19.5t102 -19.5t81 -54t53.5 -82.5t19.5 -105zM133 247q0 -46 13 -83.5t37.5 -64.5t58.5 -42t76 -15t76 15t58.5 42t37.5 64.5t13 83.5
t-13 83.5t-37.5 64.5t-58.5 42t-76 15t-76 -15t-58.5 -42t-37.5 -64.5t-13 -83.5zM229 576q-20 0 -36 15.5t-16 34.5t16 34.5t36 15.5q21 0 36.5 -15.5t15.5 -34.5t-15.5 -34.5t-36.5 -15.5zM406 576q-21 0 -36.5 15.5t-15.5 34.5t15.5 34.5t36.5 15.5t36.5 -15.5
t15.5 -34.5t-15.5 -34.5t-36.5 -15.5z" />
    <glyph glyph-name="divide" unicode="&#xf7;" horiz-adv-x="637" 
d="M93 309q-19 0 -26.5 9t-7.5 23q0 8 2 15.5t4 12.5h479q19 0 26.5 -9t7.5 -22q0 -9 -2 -16.5t-4 -12.5h-479zM379 159q0 -25 -17 -42.5t-41 -17.5q-25 0 -42.5 17.5t-17.5 42.5q0 24 17.5 41t42.5 17q24 0 41 -17t17 -41zM379 520q0 -25 -17 -42.5t-41 -17.5
q-25 0 -42.5 17.5t-17.5 42.5q0 24 17.5 41t42.5 17q24 0 41 -17t17 -41z" />
    <glyph glyph-name="oslash" unicode="&#xf8;" horiz-adv-x="636" 
d="M170 29q-51 35 -79.5 90.5t-28.5 127.5q0 57 19.5 105t53.5 82.5t81 54t102 19.5q53 0 102 -20l20 37q8 14 15.5 22.5t22.5 8.5q11 0 22 -4.5t14 -7.5l-45 -82q48 -35 76.5 -90t28.5 -125q0 -57 -19.5 -105t-53.5 -82.5t-81 -54t-102 -19.5q-27 0 -52 5t-48 13l-35 -65
h-62zM133 247q0 -109 66 -164l193 355q-36 14 -74 14q-42 0 -76 -15t-58.5 -42t-37.5 -64.5t-13 -83.5zM503 247q0 51 -17 92.5t-47 68.5l-193 -353q30 -13 72 -13t76 15t58.5 42t37.5 64.5t13 83.5z" />
    <glyph glyph-name="ugrave" unicode="&#xf9;" horiz-adv-x="614" 
d="M460 460q0 15 8.5 24.5t27.5 9.5q9 0 17.5 -2.5t12.5 -4.5v-487q-10 -2 -28.5 -4.5t-42 -5t-51 -4t-54.5 -1.5q-92 0 -146.5 25.5t-84.5 72.5q-31 52 -31 131v246q0 15 8.5 24.5t27.5 9.5q9 0 17.5 -2.5t12.5 -4.5v-266q0 -45 10 -78.5t33.5 -55.5t61 -33t92.5 -11
q42 0 71.5 3.5t37.5 5.5v408zM196 658q1 13 11.5 28t32.5 15q11 0 19.5 -3.5t20.5 -13.5l103 -84l-29 -38z" />
    <glyph glyph-name="uacute" unicode="&#xfa;" horiz-adv-x="614" 
d="M460 460q0 15 8.5 24.5t27.5 9.5q9 0 17.5 -2.5t12.5 -4.5v-487q-10 -2 -28.5 -4.5t-42 -5t-51 -4t-54.5 -1.5q-92 0 -146.5 25.5t-84.5 72.5q-31 52 -31 131v246q0 15 8.5 24.5t27.5 9.5q9 0 17.5 -2.5t12.5 -4.5v-266q0 -45 10 -78.5t33.5 -55.5t61 -33t92.5 -11
q42 0 71.5 3.5t37.5 5.5v408zM294 562l-29 38l103 84q12 10 20.5 13.5t19.5 3.5q22 0 32.5 -15t11.5 -28z" />
    <glyph glyph-name="ucircumflex" unicode="&#xfb;" horiz-adv-x="614" 
d="M460 460q0 15 8.5 24.5t27.5 9.5q9 0 17.5 -2.5t12.5 -4.5v-487q-10 -2 -28.5 -4.5t-42 -5t-51 -4t-54.5 -1.5q-92 0 -146.5 25.5t-84.5 72.5q-31 52 -31 131v246q0 15 8.5 24.5t27.5 9.5q9 0 17.5 -2.5t12.5 -4.5v-266q0 -45 10 -78.5t33.5 -55.5t61 -33t92.5 -11
q42 0 71.5 3.5t37.5 5.5v408zM319 704q14 0 24.5 -8.5l23.5 -19.5l90 -82l-32 -32l-106 74l-106 -74l-32 32l89 82q13 12 24 20t25 8z" />
    <glyph glyph-name="udieresis" unicode="&#xfc;" horiz-adv-x="614" 
d="M460 460q0 15 8.5 24.5t27.5 9.5q9 0 17.5 -2.5t12.5 -4.5v-487q-10 -2 -28.5 -4.5t-42 -5t-51 -4t-54.5 -1.5q-92 0 -146.5 25.5t-84.5 72.5q-31 52 -31 131v246q0 15 8.5 24.5t27.5 9.5q9 0 17.5 -2.5t12.5 -4.5v-266q0 -45 10 -78.5t33.5 -55.5t61 -33t92.5 -11
q42 0 71.5 3.5t37.5 5.5v408zM230 576q-20 0 -36 15.5t-16 34.5t16 34.5t36 15.5q21 0 36.5 -15.5t15.5 -34.5t-15.5 -34.5t-36.5 -15.5zM407 576q-21 0 -36.5 15.5t-15.5 34.5t15.5 34.5t36.5 15.5t36.5 -15.5t15.5 -34.5t-15.5 -34.5t-36.5 -15.5z" />
    <glyph glyph-name="yacute" unicode="&#xfd;" horiz-adv-x="530" 
d="M284 105l35.5 72l42.5 92l43 99.5l38 94.5q5 14 14.5 22.5t26.5 8.5q15 0 24.5 -6.5t11.5 -8.5q-14 -45 -40.5 -106l-61.5 -136l-72.5 -148t-79.5 -143q-25 -42 -47.5 -70t-45.5 -45t-48 -24t-56 -7q-25 0 -43.5 4t-31.5 9t-20 9.5t-8 5.5l27 52q5 -4 25 -14t51 -10
q25 0 44.5 7.5t37.5 25t35.5 45t38.5 66.5l22 42l-27.5 45.5l-41.5 68.5l-47.5 79l-46 77.5l-37.5 64l-22 38.5l-10 23t-5 23q0 14 7.5 23.5t24.5 9.5q11 0 17.5 -2t8.5 -3q4 -9 17 -34l31.5 -59l41 -73.5l45 -79.5l44 -76zM247 562l-29 38l103 84q12 10 20.5 13.5t19.5 3.5
q22 0 32.5 -15t11.5 -28z" />
    <glyph glyph-name="thorn" unicode="&#xfe;" horiz-adv-x="628" 
d="M88 703q0 15 8.5 24.5t27.5 9.5q9 0 17.5 -2.5t12.5 -4.5v-240q26 7 57.5 12.5t66.5 5.5q73 0 127.5 -20.5t90 -56.5t53 -85.5t17.5 -107.5q0 -59 -17 -105t-48 -78t-74 -48.5t-95 -16.5q-47 0 -79.5 10.5t-53.5 24t-31.5 26.5t-13.5 18v-269h-66v903zM495 238
q0 48 -12.5 87.5t-39 68t-67.5 44t-98 15.5q-51 0 -84 -11t-40 -14v-266q6 -15 16.5 -34.5t30 -37.5t50 -30t77.5 -12q81 0 124 48t43 142z" />
    <glyph glyph-name="ydieresis" unicode="&#xff;" horiz-adv-x="530" 
d="M284 105l35.5 72l42.5 92l43 99.5l38 94.5q5 14 14.5 22.5t26.5 8.5q15 0 24.5 -6.5t11.5 -8.5q-14 -45 -40.5 -106l-61.5 -136l-72.5 -148t-79.5 -143q-25 -42 -47.5 -70t-45.5 -45t-48 -24t-56 -7q-25 0 -43.5 4t-31.5 9t-20 9.5t-8 5.5l27 52q5 -4 25 -14t51 -10
q25 0 44.5 7.5t37.5 25t35.5 45t38.5 66.5l22 42l-27.5 45.5l-41.5 68.5l-47.5 79l-46 77.5l-37.5 64l-22 38.5l-10 23t-5 23q0 14 7.5 23.5t24.5 9.5q11 0 17.5 -2t8.5 -3q4 -9 17 -34l31.5 -59l41 -73.5l45 -79.5l44 -76zM176 576q-20 0 -36 15.5t-16 34.5t16 34.5
t36 15.5q21 0 36.5 -15.5t15.5 -34.5t-15.5 -34.5t-36.5 -15.5zM353 576q-21 0 -36.5 15.5t-15.5 34.5t15.5 34.5t36.5 15.5t36.5 -15.5t15.5 -34.5t-15.5 -34.5t-36.5 -15.5z" />
    <glyph glyph-name="Amacron" unicode="&#x100;" horiz-adv-x="712" 
d="M25 0l60.5 163l65.5 166l65.5 159.5l61.5 143.5q18 40 34 56t44 16q22 0 34.5 -9t19.5 -17q17 -31 42 -87.5l53.5 -124.5l58 -141l54.5 -138l43.5 -115t25.5 -72h-77q-5 12 -14 38l-20 57l-22.5 62t-20.5 53h-363l-46 -121.5l-32 -88.5h-67zM353 643l-36 -78l-39.5 -91.5
l-42 -100.5l-42.5 -104h318l-40 105l-44 107.5l-41.5 94.5t-32.5 67zM478 836q20 0 28 -8.5t8 -22.5q0 -17 -5 -30h-275q-20 0 -28 9t-8 25q0 8 2 15t4 12h274z" />
    <glyph glyph-name="amacron" unicode="&#x101;" horiz-adv-x="586" 
d="M433 247q-5 1 -20 2.5t-35 3t-43.5 2.5t-44.5 1q-75 0 -119 -24t-44 -86q0 -54 36 -81t129 -27q64 0 97 5t44 9v195zM260 453q-57 0 -88.5 -14.5t-44.5 -26.5q-7 5 -12.5 14.5t-5.5 20.5t5.5 19t13.5 14q10 8 40 18t88 10q120 0 181 -49t61 -158v-299q-29 -5 -78 -10.5
t-130 -5.5q-77 0 -122.5 15t-69.5 38t-31 51.5t-7 55.5q0 34 10.5 64t36 52.5t69 35t108.5 12.5q22 0 45 -1t43 -2t36 -2t25 -1v2q0 72 -40 109.5t-133 37.5zM410 660q20 0 28 -9t8 -23q0 -10 -2 -17.5t-4 -12.5h-260q-20 0 -28 9t-8 24q0 9 2 16.5t4 12.5h260z" />
    <glyph glyph-name="Abreve" unicode="&#x102;" horiz-adv-x="712" 
d="M25 0l60.5 163l65.5 166l65.5 159.5l61.5 143.5q18 40 34 56t44 16q22 0 34.5 -9t19.5 -17q17 -31 42 -87.5l53.5 -124.5l58 -141l54.5 -138l43.5 -115t25.5 -72h-77q-5 12 -14 38l-20 57l-22.5 62t-20.5 53h-363l-46 -121.5l-32 -88.5h-67zM353 643l-36 -78l-39.5 -91.5
l-42 -100.5l-42.5 -104h318l-40 105l-44 107.5l-41.5 94.5t-32.5 67zM357 798q42 0 68.5 20.5t34.5 54.5l45 -5q-1 -17 -8.5 -39.5t-24 -42.5t-44.5 -34t-71 -14q-44 0 -72 14t-45 34t-24 42.5t-8 39.5l48 5q10 -37 34 -56t67 -19z" />
    <glyph glyph-name="abreve" unicode="&#x103;" horiz-adv-x="586" 
d="M433 247q-5 1 -20 2.5t-35 3t-43.5 2.5t-44.5 1q-75 0 -119 -24t-44 -86q0 -54 36 -81t129 -27q64 0 97 5t44 9v195zM260 453q-57 0 -88.5 -14.5t-44.5 -26.5q-7 5 -12.5 14.5t-5.5 20.5t5.5 19t13.5 14q10 8 40 18t88 10q120 0 181 -49t61 -158v-299q-29 -5 -78 -10.5
t-130 -5.5q-77 0 -122.5 15t-69.5 38t-31 51.5t-7 55.5q0 34 10.5 64t36 52.5t69 35t108.5 12.5q22 0 45 -1t43 -2t36 -2t25 -1v2q0 72 -40 109.5t-133 37.5zM309 627q39 0 59 18t32 56l41 -5q-1 -17 -7.5 -39t-21.5 -42t-40.5 -33.5t-63.5 -13.5t-63.5 13.5t-40.5 33.5
t-21.5 42t-7.5 39l42 5q11 -36 32 -55t60 -19z" />
    <glyph glyph-name="Aogonek" unicode="&#x104;" horiz-adv-x="712" 
d="M610 0q-5 12 -14 38l-20 57l-22.5 62t-20.5 53h-363l-46 -121.5l-32 -88.5h-67l60.5 163l65.5 166l65.5 159.5l61.5 143.5q18 40 34 56t44 16q22 0 34.5 -9t19.5 -17q17 -31 42 -87.5l53.5 -124.5l58 -141l54.5 -138l43.5 -115t25.5 -72h-8q-43 -17 -66.5 -37t-23.5 -44
q0 -21 15 -31.5t38 -10.5t40.5 6.5t19.5 8.5l18 -40q-8 -5 -31.5 -13t-61.5 -8q-42 0 -69.5 17.5t-27.5 59.5q0 21 8.5 36.5t20.5 26.5t26 18t25 11zM353 643l-36 -78l-39.5 -91.5l-42 -100.5l-42.5 -104h318l-40 105l-44 107.5l-41.5 94.5t-32.5 67z" />
    <glyph glyph-name="aogonek" unicode="&#x105;" horiz-adv-x="586" 
d="M260 453q-57 0 -88.5 -14.5t-44.5 -26.5q-7 5 -12.5 14.5t-5.5 20.5t5.5 19t13.5 14q10 8 40 18t88 10q120 0 181 -49t61 -158v-299q-11 -2 -25.5 -4t-31.5 -4q-28 -11 -49.5 -30.5t-21.5 -45.5q0 -23 15 -32t38 -9t40.5 6.5t19.5 8.5l18 -40q-8 -5 -31 -13t-58 -8
q-45 0 -73 17.5t-28 59.5q0 33 16.5 51.5t34.5 28.5q-16 -1 -34 -1.5t-38 -0.5q-77 0 -122.5 15t-69.5 38t-31 51.5t-7 55.5q0 34 10.5 64t36 52.5t69 35t108.5 12.5q22 0 45 -1t43 -2t36 -2t25 -1v2q0 72 -40 109.5t-133 37.5zM433 247q-5 1 -20 2.5t-35 3t-43.5 2.5
t-44.5 1q-75 0 -119 -24t-44 -86q0 -54 36 -81t129 -27q64 0 97 5t44 9v195z" />
    <glyph glyph-name="Cacute" unicode="&#x106;" horiz-adv-x="669" 
d="M599 653q15 -11 20 -20.5t5 -18.5q0 -14 -10.5 -26.5t-20.5 -17.5q-10 12 -28 25t-42 23.5t-54.5 17.5t-65.5 7q-58 0 -107.5 -21t-86 -60t-57.5 -95t-21 -126q0 -72 22 -127.5t60.5 -93t90 -57t110.5 -19.5q34 0 63 5.5t52 13t40.5 16t28.5 15.5l30 -54q-12 -8 -33 -18
t-49.5 -19t-62.5 -15t-73 -6q-72 0 -136 24t-112 70t-76.5 112.5t-28.5 151.5t28 152.5t75.5 114.5t111 72t134.5 25q37 0 68.5 -5.5t56.5 -13.5t42.5 -17t25.5 -15zM329 738l-28 43l120 79q12 8 20.5 11.5t19.5 3.5q27 0 40 -15.5t13 -32.5z" />
    <glyph glyph-name="cacute" unicode="&#x107;" horiz-adv-x="507" 
d="M326 44q45 0 76.5 12t45.5 20l27 -49q-17 -11 -57 -26t-101 -15q-56 0 -102.5 17t-80.5 50t-53 80.5t-19 109.5q0 63 20 112t55.5 83t82.5 52t101 18q33 0 57.5 -4.5t41.5 -10t26.5 -11.5t13.5 -9q7 -5 12 -12.5t5 -18.5q0 -8 -5.5 -19t-16.5 -19q-7 6 -18.5 14
t-28.5 15.5t-39 12.5t-49 5q-38 0 -72 -12t-59.5 -37.5t-40.5 -64t-15 -90.5q0 -54 15 -92.5t41 -63t61 -36t76 -11.5zM248 562l-29 38l103 84q12 10 20.5 13.5t19.5 3.5q22 0 32.5 -15t11.5 -28z" />
    <glyph glyph-name="Ccircumflex" unicode="&#x108;" horiz-adv-x="669" 
d="M599 653q15 -11 20 -20.5t5 -18.5q0 -14 -10.5 -26.5t-20.5 -17.5q-10 12 -28 25t-42 23.5t-54.5 17.5t-65.5 7q-58 0 -107.5 -21t-86 -60t-57.5 -95t-21 -126q0 -72 22 -127.5t60.5 -93t90 -57t110.5 -19.5q34 0 63 5.5t52 13t40.5 16t28.5 15.5l30 -54q-12 -8 -33 -18
t-49.5 -19t-62.5 -15t-73 -6q-72 0 -136 24t-112 70t-76.5 112.5t-28.5 151.5t28 152.5t75.5 114.5t111 72t134.5 25q37 0 68.5 -5.5t56.5 -13.5t42.5 -17t25.5 -15zM562 773l-27 -34l-126 63l-127 -63l-27 34l98 73l27.5 20t28.5 9t28.5 -9l27.5 -20z" />
    <glyph glyph-name="ccircumflex" unicode="&#x109;" horiz-adv-x="507" 
d="M326 44q45 0 76.5 12t45.5 20l27 -49q-17 -11 -57 -26t-101 -15q-56 0 -102.5 17t-80.5 50t-53 80.5t-19 109.5q0 63 20 112t55.5 83t82.5 52t101 18q33 0 57.5 -4.5t41.5 -10t26.5 -11.5t13.5 -9q7 -5 12 -12.5t5 -18.5q0 -8 -5.5 -19t-16.5 -19q-7 6 -18.5 14
t-28.5 15.5t-39 12.5t-49 5q-38 0 -72 -12t-59.5 -37.5t-40.5 -64t-15 -90.5q0 -54 15 -92.5t41 -63t61 -36t76 -11.5zM313 704q14 0 24.5 -8.5l23.5 -19.5l90 -82l-32 -32l-106 74l-106 -74l-32 32l89 82q13 12 24 20t25 8z" />
    <glyph glyph-name="Cdotaccent" unicode="&#x10a;" horiz-adv-x="669" 
d="M599 653q15 -11 20 -20.5t5 -18.5q0 -14 -10.5 -26.5t-20.5 -17.5q-10 12 -28 25t-42 23.5t-54.5 17.5t-65.5 7q-58 0 -107.5 -21t-86 -60t-57.5 -95t-21 -126q0 -72 22 -127.5t60.5 -93t90 -57t110.5 -19.5q34 0 63 5.5t52 13t40.5 16t28.5 15.5l30 -54q-12 -8 -33 -18
t-49.5 -19t-62.5 -15t-73 -6q-72 0 -136 24t-112 70t-76.5 112.5t-28.5 151.5t28 152.5t75.5 114.5t111 72t134.5 25q37 0 68.5 -5.5t56.5 -13.5t42.5 -17t25.5 -15zM408 747q-22 0 -39.5 17t-17.5 37q0 10 5 20t13 17.5t18 12.5t21 5q22 0 39 -17.5t17 -37.5t-17 -37
t-39 -17z" />
    <glyph glyph-name="cdotaccent" unicode="&#x10b;" horiz-adv-x="507" 
d="M326 44q45 0 76.5 12t45.5 20l27 -49q-17 -11 -57 -26t-101 -15q-56 0 -102.5 17t-80.5 50t-53 80.5t-19 109.5q0 63 20 112t55.5 83t82.5 52t101 18q33 0 57.5 -4.5t41.5 -10t26.5 -11.5t13.5 -9q7 -5 12 -12.5t5 -18.5q0 -8 -5.5 -19t-16.5 -19q-7 6 -18.5 14
t-28.5 15.5t-39 12.5t-49 5q-38 0 -72 -12t-59.5 -37.5t-40.5 -64t-15 -90.5q0 -54 15 -92.5t41 -63t61 -36t76 -11.5zM320 573q-21 0 -38 16.5t-17 36.5t17 36.5t38 16.5q22 0 38.5 -16.5t16.5 -36.5t-16.5 -36.5t-38.5 -16.5z" />
    <glyph glyph-name="Ccaron" unicode="&#x10c;" horiz-adv-x="669" 
d="M599 653q15 -11 20 -20.5t5 -18.5q0 -14 -10.5 -26.5t-20.5 -17.5q-10 12 -28 25t-42 23.5t-54.5 17.5t-65.5 7q-58 0 -107.5 -21t-86 -60t-57.5 -95t-21 -126q0 -72 22 -127.5t60.5 -93t90 -57t110.5 -19.5q34 0 63 5.5t52 13t40.5 16t28.5 15.5l30 -54q-12 -8 -33 -18
t-49.5 -19t-62.5 -15t-73 -6q-72 0 -136 24t-112 70t-76.5 112.5t-28.5 151.5t28 152.5t75.5 114.5t111 72t134.5 25q37 0 68.5 -5.5t56.5 -13.5t42.5 -17t25.5 -15zM255 841l27 34l126 -63l127 63l27 -34l-98 -73l-27.5 -20t-28.5 -9t-28.5 9l-27.5 20z" />
    <glyph glyph-name="ccaron" unicode="&#x10d;" horiz-adv-x="507" 
d="M326 44q45 0 76.5 12t45.5 20l27 -49q-17 -11 -57 -26t-101 -15q-56 0 -102.5 17t-80.5 50t-53 80.5t-19 109.5q0 63 20 112t55.5 83t82.5 52t101 18q33 0 57.5 -4.5t41.5 -10t26.5 -11.5t13.5 -9q7 -5 12 -12.5t5 -18.5q0 -8 -5.5 -19t-16.5 -19q-7 6 -18.5 14
t-28.5 15.5t-39 12.5t-49 5q-38 0 -72 -12t-59.5 -37.5t-40.5 -64t-15 -90.5q0 -54 15 -92.5t41 -63t61 -36t76 -11.5zM313 562q-14 0 -24.5 8.5l-23.5 19.5l-90 82l32 32l106 -74l106 74l32 -32l-89 -82q-13 -12 -24 -20t-25 -8z" />
    <glyph glyph-name="Dcaron" unicode="&#x10e;" horiz-adv-x="761" 
d="M691 344q0 -78 -25 -141.5t-72 -108.5t-114 -69.5t-152 -24.5h-228v646q0 18 11 29t34 11h173q29 0 61.5 -3t58.5 -8q57 -12 104 -40t80 -70t51 -97.5t18 -123.5zM617 345q0 56 -14.5 102t-40 80.5t-62 57t-79.5 31.5q-26 5 -53 8t-56 3h-143v-568h153q71 0 126 21
t92.5 58.5t57 90.5t19.5 116zM191 841l27 34l126 -63l127 63l27 -34l-98 -73l-27.5 -20t-28.5 -9t-28.5 9l-27.5 20z" />
    <glyph glyph-name="dcaron" unicode="&#x10f;" horiz-adv-x="656" 
d="M133 252q0 -48 13 -87t40.5 -66.5t70 -43t101.5 -15.5q54 0 82.5 5t37.5 7v200q0 42 -11 78t-32.5 62.5t-53.5 41.5t-75 15q-88 0 -130.5 -51.5t-42.5 -145.5zM478 703q0 15 8.5 24.5t27.5 9.5q9 0 17.5 -2.5t12.5 -4.5v-730q-4 -1 -51 -7.5t-132 -6.5q-77 0 -133.5 20
t-93 55t-54.5 84t-18 107q0 59 16.5 106.5t47 80.5t73 51t94.5 18q48 0 80.5 -11.5t53.5 -27t33 -31.5t18 -25v290zM662 545h-42v130q-1 3 -1 15q0 21 10 34t32 13q16 0 25 -4z" />
    <glyph glyph-name="Dcroat" unicode="&#x110;" horiz-adv-x="776" 
d="M115 384v262q0 18 11 29t34 11h183q85 0 152 -24.5t114 -69t72 -107.5t25 -141t-25 -141.5t-72 -108.5t-114 -69.5t-152 -24.5h-228v323h-39q-20 0 -28 9t-8 23q0 9 2 16.5t4 12.5h69zM184 384h169q20 0 27.5 -9t7.5 -23q0 -20 -6 -29h-198v-264h153q71 0 126 21
t92.5 58.5t57 90.5t19.5 116q0 64 -19.5 116t-57 89t-92.5 57t-126 20h-153v-243z" />
    <glyph glyph-name="dcroat" unicode="&#x111;" horiz-adv-x="632" 
d="M478 703q0 15 8.5 24.5t27.5 9.5q9 0 17.5 -2.5t12.5 -4.5v-88h70q19 0 26 -8.5t7 -20.5q0 -9 -2 -16.5t-4 -12.5h-97v-584q-4 -1 -51 -7.5t-132 -6.5q-77 0 -133.5 19.5t-93 54t-54.5 83t-18 106.5t16.5 104t47 78t73 49.5t94.5 17.5q48 0 80.5 -11.5t53.5 -27t33 -31.5
t18 -25v181h-172q-18 0 -25.5 9t-7.5 23q0 8 2 14.5t4 11.5h199v61zM133 249q0 -48 13 -86.5t40.5 -65.5t70 -42t101.5 -15q54 0 82.5 5t37.5 7v190q0 42 -11 78t-32.5 62.5t-53.5 41.5t-75 15q-88 0 -130.5 -49.5t-42.5 -140.5z" />
    <glyph glyph-name="Emacron" unicode="&#x112;" horiz-adv-x="598" 
d="M480 386q14 0 23.5 -7.5t9.5 -23.5q0 -11 -3.5 -19t-5.5 -11h-335v-264h352v-61h-421v646q0 18 11 29t32 11h351q14 0 23.5 -7.5t9.5 -23.5q0 -11 -3.5 -19t-5.5 -11h-349v-239h311zM439 836q20 0 28 -8.5t8 -22.5q0 -17 -5 -30h-275q-20 0 -28 9t-8 25q0 8 2 15t4 12
h274z" />
    <glyph glyph-name="emacron" unicode="&#x113;" horiz-adv-x="585" 
d="M135 209q10 -85 57.5 -124.5t131.5 -39.5q49 0 88 13.5t57 24.5l27 -49q-8 -5 -24.5 -13.5t-40 -16t-53 -13t-63.5 -5.5q-53 0 -99 16t-80 47.5t-54 78t-20 108.5q0 60 19.5 110t53.5 86t81 56t101 20q102 0 155 -49t53 -137q0 -54 -28.5 -83.5t-92.5 -29.5h-269z
M377 262q40 0 61.5 13t21.5 55q0 24 -7.5 46.5t-24 39.5t-44 27.5t-66.5 10.5q-44 0 -78 -17t-57 -44t-35.5 -61.5t-13.5 -69.5h243zM428 660q20 0 28 -9t8 -23q0 -10 -2 -17.5t-4 -12.5h-260q-20 0 -28 9t-8 24q0 9 2 16.5t4 12.5h260z" />
    <glyph glyph-name="Ebreve" unicode="&#x114;" horiz-adv-x="598" 
d="M480 386q14 0 23.5 -7.5t9.5 -23.5q0 -11 -3.5 -19t-5.5 -11h-335v-264h352v-61h-421v646q0 18 11 29t32 11h351q14 0 23.5 -7.5t9.5 -23.5q0 -11 -3.5 -19t-5.5 -11h-349v-239h311zM330 798q42 0 68.5 20.5t34.5 54.5l45 -5q-1 -17 -8.5 -39.5t-24 -42.5t-44.5 -34
t-71 -14q-44 0 -72 14t-45 34t-24 42.5t-8 39.5l48 5q10 -37 34 -56t67 -19z" />
    <glyph glyph-name="ebreve" unicode="&#x115;" horiz-adv-x="585" 
d="M135 209q10 -85 57.5 -124.5t131.5 -39.5q49 0 88 13.5t57 24.5l27 -49q-8 -5 -24.5 -13.5t-40 -16t-53 -13t-63.5 -5.5q-53 0 -99 16t-80 47.5t-54 78t-20 108.5q0 60 19.5 110t53.5 86t81 56t101 20q102 0 155 -49t53 -137q0 -54 -28.5 -83.5t-92.5 -29.5h-269z
M377 262q40 0 61.5 13t21.5 55q0 24 -7.5 46.5t-24 39.5t-44 27.5t-66.5 10.5q-44 0 -78 -17t-57 -44t-35.5 -61.5t-13.5 -69.5h243zM319 627q39 0 59 18t32 56l41 -5q-1 -17 -7.5 -39t-21.5 -42t-40.5 -33.5t-63.5 -13.5t-63.5 13.5t-40.5 33.5t-21.5 42t-7.5 39l42 5
q11 -36 32 -55t60 -19z" />
    <glyph glyph-name="Edotaccent" unicode="&#x116;" horiz-adv-x="598" 
d="M480 386q14 0 23.5 -7.5t9.5 -23.5q0 -11 -3.5 -19t-5.5 -11h-335v-264h352v-61h-421v646q0 18 11 29t32 11h351q14 0 23.5 -7.5t9.5 -23.5q0 -11 -3.5 -19t-5.5 -11h-349v-239h311zM329 747q-22 0 -39.5 17t-17.5 37q0 10 5 20t13 17.5t18 12.5t21 5q22 0 39 -17.5
t17 -37.5t-17 -37t-39 -17z" />
    <glyph glyph-name="edotaccent" unicode="&#x117;" horiz-adv-x="585" 
d="M135 209q10 -85 57.5 -124.5t131.5 -39.5q49 0 88 13.5t57 24.5l27 -49q-8 -5 -24.5 -13.5t-40 -16t-53 -13t-63.5 -5.5q-53 0 -99 16t-80 47.5t-54 78t-20 108.5q0 60 19.5 110t53.5 86t81 56t101 20q102 0 155 -49t53 -137q0 -54 -28.5 -83.5t-92.5 -29.5h-269z
M377 262q40 0 61.5 13t21.5 55q0 24 -7.5 46.5t-24 39.5t-44 27.5t-66.5 10.5q-44 0 -78 -17t-57 -44t-35.5 -61.5t-13.5 -69.5h243zM317 573q-21 0 -38 16.5t-17 36.5t17 36.5t38 16.5q22 0 38.5 -16.5t16.5 -36.5t-16.5 -36.5t-38.5 -16.5z" />
    <glyph glyph-name="Eogonek" unicode="&#x118;" horiz-adv-x="598" 
d="M100 0v646q0 18 11 29t32 11h351q14 0 23.5 -7.5t9.5 -23.5q0 -11 -3.5 -19t-5.5 -11h-349v-239h311q14 0 23.5 -7.5t9.5 -23.5q0 -11 -3.5 -19t-5.5 -11h-335v-264h352v-61h-41q-43 -17 -66.5 -37t-23.5 -44q0 -21 15 -31.5t38 -10.5t40.5 6.5t19.5 8.5l18 -40
q-8 -5 -31.5 -13t-61.5 -8q-42 0 -69.5 17.5t-27.5 59.5q0 21 8.5 36.5t20.5 26.5t26 18t25 11h-311z" />
    </font>
</defs>
</svg>
