<?xml version="1.0" encoding="utf-8"?>
<!-- Generator: Adobe Illustrator 16.0.0, SVG Export Plug-In . SVG Version: 6.00 Build 0)  -->
<!DOCTYPE svg PUBLIC "-//W3C//DTD SVG 1.1//EN" "http://www.w3.org/Graphics/SVG/1.1/DTD/svg11.dtd">
<svg version="1.1" id="Layer_1" xmlns="http://www.w3.org/2000/svg" xmlns:xlink="http://www.w3.org/1999/xlink" x="0px" y="0px"
	 width="591.731px" height="86.915px" viewBox="0 0 591.731 86.915" enable-background="new 0 0 591.731 86.915"
	 xml:space="preserve">
<g>
	<defs>
		<rect id="SVGID_1_" y="0" width="591.731" height="86.915"/>
	</defs>
	<clipPath id="SVGID_2_">
		<use xlink:href="#SVGID_1_"  overflow="visible"/>
	</clipPath>
	<path clip-path="url(#SVGID_2_)" fill="#FFFFFF" d="M32.747,8.491c9.666,0,14.993,1.498,18.938,5.396
		c4.636,4.494,6.904,12.187,6.904,29.571c0,17.282-2.268,25.075-6.904,29.57c-3.945,3.896-9.272,5.395-18.938,5.395H0V8.491H32.747z
		 M39.158,23.076c-1.677-1.599-3.452-1.898-7.989-1.898H16.078v44.558h15.091c4.439,0,6.412-0.399,7.989-1.998
		c1.973-1.8,2.861-5.796,2.861-20.279C42.019,28.871,41.131,24.975,39.158,23.076"/>
	<path clip-path="url(#SVGID_2_)" fill="#FFFFFF" d="M81.09,54.446c0.099,8.692,0.69,10.989,1.282,11.69
		c0.69,0.799,2.268,0.998,4.833,0.998h9.174c3.057,0,3.846-0.299,4.438-0.998c0.493-0.602,0.69-2.1,0.79-5.995h13.906
		c-0.098,8.192-0.986,12.388-3.649,15.085c-1.676,1.699-3.847,3.197-9.666,3.197H82.076c-5.524,0-8.383-0.9-10.752-3.398
		c-3.55-3.594-4.931-7.891-4.931-24.075s1.381-20.479,4.931-24.177c2.269-2.398,5.228-3.295,10.752-3.295h18.346
		c5.524,0,8.483,0.897,10.752,3.295c3.551,3.596,4.339,7.894,4.339,23.677v1.801c0,1.598-0.394,2.195-2.169,2.195H81.09z
		 M81.09,45.856h20.023c0-7.394-0.493-9.392-1.183-10.191c-0.593-0.601-1.48-0.9-4.538-0.9h-8.187c-2.565,0-4.143,0.201-4.833,1
		C81.682,36.464,81.189,38.163,81.09,45.856"/>
	<path clip-path="url(#SVGID_2_)" fill="#FFFFFF" d="M160.602,75.026c-0.986,2.897-2.171,3.599-5.129,3.599h-9.864
		c-2.861,0-4.143-0.701-5.13-3.599l-17.162-51.548h16.077l11.048,39.062h1.085l10.85-39.062h15.387L160.602,75.026z"/>
	<polygon clip-path="url(#SVGID_2_)" fill="#EB214D" points="199.377,43.356 223.641,54.347 223.641,68.533 185.567,49.65 
		185.567,37.263 223.641,18.381 223.641,32.367 	"/>
	<polygon clip-path="url(#SVGID_2_)" fill="#FFFFFF" points="268.532,21.478 268.532,78.423 252.454,78.423 252.454,21.478 
		231.445,21.478 231.445,8.492 289.739,8.492 289.739,21.478 	"/>
	<path clip-path="url(#SVGID_2_)" fill="#FFFFFF" d="M303.066,26.574c2.17-2.199,4.635-3.096,9.666-3.096h19.727
		c5.524,0,8.779,0.998,10.752,3.096c2.466,2.498,3.255,5.394,3.255,14.685v37.166h-15.092V72.13
		c-6.51,5.394-8.877,6.394-13.71,6.394h-7.397c-4.833,0-7.398-0.6-9.568-2.798c-1.874-1.897-3.156-5.094-3.156-12.287
		c0-6.795,0.987-10.991,3.353-13.388c2.468-2.498,5.624-3.697,15.389-3.697c5.229,0,10.652,0.6,15.091,1.598v-4.895
		c0-5.394-0.295-6.492-0.986-7.292c-0.69-0.6-1.677-0.799-3.945-0.799h-7.693c-2.071,0-3.156,0.199-3.748,0.799
		c-0.789,0.8-0.889,1.898-1.085,5.195h-14.204C299.811,31.968,300.797,28.771,303.066,26.574 M331.374,64.736v-9.19h-9.962
		c-5.721,0-7.102,0.399-8.088,1.398s-1.184,2.198-1.184,4.696c0,2.797,0.197,4.295,0.986,5.094s1.874,0.9,3.847,0.9h4.241
		C324.371,67.634,326.442,67.334,331.374,64.736"/>
	<rect x="354.27" y="4.693" clip-path="url(#SVGID_2_)" fill="#FFFFFF" width="15.189" height="73.729"/>
	<polygon clip-path="url(#SVGID_2_)" fill="#FFFFFF" points="377.263,78.423 377.263,4.694 392.354,4.694 392.354,45.156 
		395.708,45.156 411.193,23.478 427.566,23.478 407.938,49.751 428.553,78.423 410.799,78.423 395.708,56.545 392.354,56.545 
		392.354,78.423 	"/>
	<path clip-path="url(#SVGID_2_)" fill="#FFFFFF" d="M479.954,76.026c-1.677,1.698-4.045,2.397-7.989,2.397H449.08
		c-4.832,0-7.791-0.799-9.469-2.599c-2.071-2.196-3.057-5.095-3.255-14.884h13.415c0.099,4.097,0.296,4.994,0.789,5.595
		c0.395,0.498,0.986,0.698,2.861,0.698h12.724c1.873,0,2.662-0.3,3.058-0.698c0.394-0.4,0.592-1.199,0.592-4.197
		c0-2.597-0.198-3.496-0.79-3.996c-0.493-0.498-1.183-0.799-3.649-1.099L447.7,55.246c-4.241-0.5-6.312-1.299-7.892-2.897
		c-2.169-2.197-2.762-4.796-2.762-12.489c0-7.691,1.579-11.687,3.749-13.886c1.677-1.697,3.847-2.496,7.989-2.496h21.602
		c4.833,0,7.692,0.799,9.272,2.398c2.169,2.196,2.958,5.394,3.156,14.685H469.4c-0.099-4.097-0.396-4.597-0.79-5.195
		c-0.394-0.5-1.085-0.699-2.86-0.699h-11.243c-1.776,0-2.467,0.099-2.96,0.599s-0.789,1.198-0.789,3.795
		c0,2.498,0.197,3.398,0.888,3.996c0.592,0.5,1.184,0.701,3.551,1l18.248,2.099c4.143,0.399,6.215,1.3,7.693,2.798
		c1.973,1.998,2.564,5.594,2.564,12.687C483.702,69.833,482.223,73.728,479.954,76.026"/>
	<polygon clip-path="url(#SVGID_2_)" fill="#EB214D" points="491.506,86.915 531.059,0 545.854,0 506.4,86.915 	"/>
	<polygon clip-path="url(#SVGID_2_)" fill="#EB214D" points="553.658,54.446 577.923,43.458 553.658,32.466 553.658,18.382 
		591.731,37.262 591.731,49.65 553.658,68.533 	"/>
</g>
</svg>
